M48
; DRILL file {KiCad 9.0.2} date 2025-05-27T05:35:00-0600
; FORMAT={-:-/ absolute / metric / decimal}
; #@! TF.CreationDate,2025-05-27T05:35:00-06:00
; #@! TF.GenerationSoftware,Kicad,Pcbnew,9.0.2
; #@! TF.FileFunction,NonPlated,1,2,NPTH
FMAT,2
METRIC
; #@! TA.AperFunction,NonPlated,NPTH,ComponentDrill
T1C0.900
; #@! TA.AperFunction,NonPlated,NPTH,ComponentDrill
T2C1.900
; #@! TA.AperFunction,NonPlated,NPTH,ComponentDrill
T3C3.000
; #@! TA.AperFunction,NonPlated,NPTH,ComponentDrill
T4C3.400
%
G90
G05
T1
X112.197Y-13.951
X115.181Y-13.637
T2
X27.088Y-52.741
X31.488Y-69.161
X35.888Y-85.582
X37.713Y-49.894
X40.287Y-102.003
X42.113Y-66.314
X45.769Y-38.709
X46.513Y-82.735
X49.304Y-55.338
X50.913Y-99.156
X52.838Y-71.966
X56.373Y-88.595
X56.529Y-36.422
X60.064Y-53.051
X63.598Y-69.679
X67.133Y-86.308
X67.414Y-28.159
X69.876Y-44.981
X72.338Y-61.803
X74.8Y-78.625
X78.279Y-26.438
X78.653Y-102.314
X80.741Y-43.26
X83.202Y-60.082
X85.664Y-76.904
X89.517Y-100.593
X89.769Y-30.159
X91.546Y-47.066
X93.323Y-63.972
X95.1Y-80.879
X100.708Y-29.009
X102.485Y-45.916
X103.157Y-100.143
X104.262Y-62.823
X106.039Y-79.73
X109.868Y-30.057
X111.645Y-46.964
X113.422Y-63.871
X114.097Y-98.993
X115.199Y-80.778
X120.808Y-28.907
X122.585Y-45.814
X124.362Y-62.721
X126.139Y-79.628
X129.888Y-97.404
X138.937Y-79.54
X139.937Y-101.878
X147.505Y-105.717
X148.986Y-84.014
X156.625Y-111.868
X158.689Y-89.137
X167.808Y-95.288
T3
X26.6Y-48.989
X30.86Y-45.57
X31.0Y-65.41
X35.26Y-61.991
X35.4Y-81.83
X36.259Y-46.401
X39.66Y-78.411
X39.8Y-98.251
X40.659Y-62.821
X44.06Y-94.832
X45.059Y-79.242
X45.479Y-34.937
X49.013Y-51.566
X49.459Y-95.663
X49.912Y-31.746
X52.548Y-68.194
X53.447Y-48.374
X55.26Y-32.858
X56.082Y-84.823
X56.981Y-65.003
X58.795Y-49.487
X60.516Y-81.631
X62.329Y-66.115
X65.864Y-82.744
X67.321Y-24.377
X69.783Y-41.199
X71.916Y-21.422
X72.245Y-58.021
X74.378Y-38.244
X74.707Y-74.843
X76.839Y-55.066
X77.198Y-22.813
X78.56Y-98.532
X79.301Y-71.888
X79.66Y-39.635
X82.122Y-56.457
X83.154Y-95.577
X84.584Y-73.279
X88.437Y-96.968
X89.874Y-26.377
X91.651Y-43.284
X93.428Y-60.191
X94.617Y-23.666
X95.205Y-77.098
X96.393Y-40.573
X98.17Y-57.48
X99.819Y-25.332
X99.947Y-74.387
X101.596Y-42.239
X103.263Y-96.361
X103.373Y-59.145
X105.15Y-76.052
X108.005Y-93.65
X109.973Y-26.275
X111.75Y-43.182
X113.208Y-95.316
X113.527Y-60.089
X114.716Y-23.565
X115.304Y-76.996
X116.493Y-40.472
X118.27Y-57.379
X119.919Y-25.23
X120.047Y-74.286
X121.696Y-42.137
X123.473Y-59.044
X125.25Y-75.951
X131.87Y-94.182
X137.333Y-94.205
X140.919Y-76.317
X141.006Y-98.249
X146.381Y-76.341
X150.017Y-102.888
X150.054Y-80.385
X155.392Y-103.86
X158.307Y-108.48
X161.2Y-86.307
X166.576Y-87.279
X169.491Y-91.899
T4
X32.4Y-51.317
X36.8Y-67.738
X41.2Y-84.159
X45.6Y-100.579
X51.149Y-37.566
X54.684Y-54.194
X58.218Y-70.823
X61.753Y-87.451
X72.846Y-27.299
X75.308Y-44.121
X77.77Y-60.943
X80.232Y-77.765
X84.085Y-101.454
X95.238Y-29.584
X97.015Y-46.491
X98.792Y-63.398
X100.569Y-80.304
X108.627Y-99.568
X115.338Y-29.482
X117.115Y-46.389
X118.892Y-63.296
X120.669Y-80.203
X134.913Y-99.641
X143.961Y-81.777
X152.065Y-108.793
X163.249Y-92.212
M30
