%TF.GenerationSoftware,KiCad,Pcbnew,9.0.2*%
%TF.CreationDate,2025-05-27T05:35:02-06:00*%
%TF.ProjectId,keeb,6b656562-2e6b-4696-9361-645f70636258,v1.0.0*%
%TF.SameCoordinates,Original*%
%TF.FileFunction,Soldermask,Bot*%
%TF.FilePolarity,Negative*%
%FSLAX46Y46*%
G04 Gerber Fmt 4.6, Leading zero omitted, Abs format (unit mm)*
G04 Created by KiCad (PCBNEW 9.0.2) date 2025-05-27 05:35:02*
%MOMM*%
%LPD*%
G01*
G04 APERTURE LIST*
G04 Aperture macros list*
%AMRoundRect*
0 Rectangle with rounded corners*
0 $1 Rounding radius*
0 $2 $3 $4 $5 $6 $7 $8 $9 X,Y pos of 4 corners*
0 Add a 4 corners polygon primitive as box body*
4,1,4,$2,$3,$4,$5,$6,$7,$8,$9,$2,$3,0*
0 Add four circle primitives for the rounded corners*
1,1,$1+$1,$2,$3*
1,1,$1+$1,$4,$5*
1,1,$1+$1,$6,$7*
1,1,$1+$1,$8,$9*
0 Add four rect primitives between the rounded corners*
20,1,$1+$1,$2,$3,$4,$5,0*
20,1,$1+$1,$4,$5,$6,$7,0*
20,1,$1+$1,$6,$7,$8,$9,0*
20,1,$1+$1,$8,$9,$2,$3,0*%
%AMHorizOval*
0 Thick line with rounded ends*
0 $1 width*
0 $2 $3 position (X,Y) of the first rounded end (center of the circle)*
0 $4 $5 position (X,Y) of the second rounded end (center of the circle)*
0 Add line between two ends*
20,1,$1,$2,$3,$4,$5,0*
0 Add two circle primitives to create the rounded ends*
1,1,$1,$2,$3*
1,1,$1,$4,$5*%
%AMFreePoly0*
4,1,14,1.335355,1.335355,1.350000,1.300000,1.350000,-1.300000,1.335355,-1.335355,1.300000,-1.350000,-0.117000,-1.350000,-0.152355,-1.335355,-1.335355,-0.152355,-1.350000,-0.117000,-1.350000,1.300000,-1.335355,1.335355,-1.300000,1.350000,1.300000,1.350000,1.335355,1.335355,1.335355,1.335355,$1*%
%AMFreePoly1*
4,1,16,-0.214645,0.660355,-0.210957,0.656235,0.289043,0.031235,0.299694,-0.005522,0.289043,-0.031235,-0.210957,-0.656235,-0.244478,-0.674694,-0.250000,-0.675000,-0.500000,-0.675001,-0.535355,-0.660355,-0.550000,-0.625000,-0.550000,0.625000,-0.535355,0.660355,-0.500000,0.675000,-0.250000,0.675000,-0.214645,0.660355,-0.214645,0.660355,$1*%
%AMFreePoly2*
4,1,16,0.535355,0.660355,0.550000,0.625000,0.550000,-0.625000,0.535355,-0.660355,0.500000,-0.675000,-0.650001,-0.675000,-0.685355,-0.660355,-0.700000,-0.625000,-0.689043,-0.593765,-0.214031,0.000000,-0.689043,0.593765,-0.699694,0.630522,-0.681235,0.664043,-0.650000,0.675000,0.500000,0.675001,0.535355,0.660355,0.535355,0.660355,$1*%
%AMFreePoly3*
4,1,15,0.975355,0.935355,1.335355,0.575355,1.350000,0.540000,1.350000,-0.900000,1.335355,-0.935355,1.300000,-0.950000,-1.300000,-0.950000,-1.335355,-0.935355,-1.350000,-0.900000,-1.350000,0.540000,-1.335355,0.575355,-0.975355,0.935355,-0.940000,0.950000,0.940001,0.950000,0.975355,0.935355,0.975355,0.935355,$1*%
%AMFreePoly4*
4,1,15,1.335355,0.935355,1.350000,0.900000,1.350000,-0.540000,1.335355,-0.575355,0.975355,-0.935355,0.940000,-0.950000,-0.940001,-0.950000,-0.975355,-0.935355,-1.335355,-0.575355,-1.350000,-0.540000,-1.350000,0.900000,-1.335355,0.935355,-1.300000,0.950000,1.300000,0.950000,1.335355,0.935355,1.335355,0.935355,$1*%
%AMFreePoly5*
4,1,14,0.035355,0.435355,0.635355,-0.164645,0.650000,-0.200000,0.650000,-0.400000,0.635355,-0.435355,0.600000,-0.450000,-0.600000,-0.450000,-0.635355,-0.435355,-0.650000,-0.400000,-0.650000,-0.200000,-0.635355,-0.164645,-0.035355,0.435354,0.000000,0.450000,0.035355,0.435355,0.035355,0.435355,$1*%
%AMFreePoly6*
4,1,16,0.635355,0.285354,0.650000,0.250000,0.650000,-1.000000,0.635355,-1.035356,0.600000,-1.050000,0.564645,-1.035355,0.000000,-0.470710,-0.564645,-1.035355,-0.600000,-1.050000,-0.635355,-1.035355,-0.650000,-1.000000,-0.650000,0.250000,-0.635355,0.285355,-0.600000,0.300000,0.600000,0.300000,0.635355,0.285354,0.635355,0.285354,$1*%
G04 Aperture macros list end*
%ADD10C,3.500000*%
%ADD11C,2.000000*%
%ADD12C,3.100000*%
%ADD13FreePoly0,15.000000*%
%ADD14RoundRect,0.050000X-0.629461X-1.514523X1.302391X-0.996885X0.629461X1.514523X-1.302391X0.996885X0*%
%ADD15FreePoly0,12.000000*%
%ADD16RoundRect,0.050000X-0.707862X-1.479504X1.248433X-1.063680X0.707862X1.479504X-1.248433X1.063680X0*%
%ADD17FreePoly0,9.000000*%
%ADD18RoundRect,0.050000X-0.784324X-1.440429X1.191053X-1.127560X0.784324X1.440429X-1.191053X1.127560X0*%
%ADD19FreePoly0,6.000000*%
%ADD20RoundRect,0.050000X-0.858635X-1.397407X1.130409X-1.188350X0.858635X1.397407X-1.130409X1.188350X0*%
%ADD21FreePoly0,336.000000*%
%ADD22RoundRect,0.050000X-1.442303X-0.780872X0.384788X-1.594346X1.442303X0.780872X-0.384788X1.594346X0*%
%ADD23FreePoly0,326.000000*%
%ADD24RoundRect,0.050000X-1.555988X-0.518556X0.102087X-1.636942X1.555988X0.518556X-0.102087X1.636942X0*%
%ADD25C,1.800000*%
%ADD26C,0.900000*%
%ADD27FreePoly1,6.000000*%
%ADD28FreePoly2,6.000000*%
%ADD29FreePoly2,186.000000*%
%ADD30FreePoly1,186.000000*%
%ADD31RoundRect,0.050000X0.718490X0.578271X-0.823019X0.416251X-0.718490X-0.578271X0.823019X-0.416251X0*%
%ADD32FreePoly3,276.000000*%
%ADD33FreePoly4,276.000000*%
%ADD34HorizOval,1.300000X-0.028745X0.273494X0.028745X-0.273494X0*%
%ADD35FreePoly5,6.000000*%
%ADD36FreePoly6,6.000000*%
%ADD37RoundRect,0.050000X-0.455450X-0.450073X0.539072X-0.345545X0.455450X0.450073X-0.539072X0.345545X0*%
%ADD38RoundRect,0.050000X-0.269686X-0.782476X0.426479X-0.709306X0.269686X0.782476X-0.426479X0.709306X0*%
%ADD39C,1.000000*%
%ADD40RoundRect,0.050000X-0.628072X0.235639X-0.565355X-0.361074X0.628072X-0.235639X0.565355X0.361074X0*%
%ADD41HorizOval,1.800000X0.000000X0.000000X0.000000X0.000000X0*%
G04 APERTURE END LIST*
D10*
%TO.C,S1*%
X45600076Y-100579261D03*
D11*
X50912668Y-99155756D03*
X40287484Y-102002766D03*
D12*
X44060103Y-94832002D03*
X39799875Y-98251134D03*
D13*
X40896696Y-95679635D03*
D14*
X52332763Y-94892957D03*
D12*
X49459134Y-95662944D03*
%TD*%
D10*
%TO.C,S2*%
X41200152Y-84158522D03*
D11*
X46512744Y-82735017D03*
X35887560Y-85582027D03*
D12*
X39660179Y-78411263D03*
X35399951Y-81830395D03*
D13*
X36496772Y-79258896D03*
D14*
X47932839Y-78472218D03*
D12*
X45059210Y-79242205D03*
%TD*%
D10*
%TO.C,S3*%
X36800229Y-67737783D03*
D11*
X42112821Y-66314278D03*
X31487637Y-69161288D03*
D12*
X35260256Y-61990524D03*
X31000028Y-65409656D03*
D13*
X32096849Y-62838157D03*
D14*
X43532916Y-62051479D03*
D12*
X40659287Y-62821466D03*
%TD*%
D10*
%TO.C,S4*%
X32400305Y-51317044D03*
D11*
X37712897Y-49893539D03*
X27087713Y-52740549D03*
D12*
X30860332Y-45569785D03*
X26600104Y-48988917D03*
D13*
X27696925Y-46417418D03*
D14*
X39132992Y-45630740D03*
D12*
X36259363Y-46400727D03*
%TD*%
D10*
%TO.C,S5*%
X61752705Y-87451330D03*
D11*
X67132517Y-86307816D03*
X56372893Y-88594844D03*
D12*
X60515630Y-81631352D03*
X56082298Y-84822835D03*
D15*
X57312197Y-82312263D03*
D16*
X68773763Y-82125181D03*
D12*
X65863774Y-82743718D03*
%TD*%
D10*
%TO.C,S6*%
X58218206Y-70822820D03*
D11*
X63598018Y-69679306D03*
X52838394Y-71966334D03*
D12*
X56981131Y-65002842D03*
X52547799Y-68194325D03*
D15*
X53777698Y-65683753D03*
D16*
X65239264Y-65496671D03*
D12*
X62329275Y-66115208D03*
%TD*%
D10*
%TO.C,S7*%
X54683708Y-54194311D03*
D11*
X60063520Y-53050797D03*
X49303896Y-55337825D03*
D12*
X53446633Y-48374333D03*
X49013301Y-51565816D03*
D15*
X50243200Y-49055244D03*
D16*
X61704766Y-48868162D03*
D12*
X58794777Y-49486699D03*
%TD*%
D10*
%TO.C,S8*%
X51149209Y-37565802D03*
D11*
X56529021Y-36422288D03*
X45769397Y-38709316D03*
D12*
X49912134Y-31745824D03*
X45478802Y-34937307D03*
D15*
X46708701Y-32426735D03*
D16*
X58170267Y-32239653D03*
D12*
X55260278Y-32858190D03*
%TD*%
D10*
%TO.C,S9*%
X80231994Y-77764692D03*
D11*
X85664280Y-76904302D03*
X74799708Y-78625082D03*
D12*
X79301209Y-71887946D03*
X74706923Y-74843033D03*
D17*
X76066530Y-72400269D03*
D18*
X87522179Y-72813296D03*
D12*
X84583806Y-73278688D03*
%TD*%
D10*
%TO.C,S10*%
X77770146Y-60942703D03*
D11*
X83202432Y-60082313D03*
X72337860Y-61803093D03*
D12*
X76839361Y-55065957D03*
X72245075Y-58021044D03*
D17*
X73604682Y-55578280D03*
D18*
X85060331Y-55991307D03*
D12*
X82121958Y-56456699D03*
%TD*%
D10*
%TO.C,S11*%
X75308297Y-44120714D03*
D11*
X80740583Y-43260324D03*
X69876011Y-44981104D03*
D12*
X74377512Y-38243968D03*
X69783226Y-41199055D03*
D17*
X71142833Y-38756291D03*
D18*
X82598482Y-39169318D03*
D12*
X79660109Y-39634710D03*
%TD*%
D10*
%TO.C,S12*%
X72846449Y-27298725D03*
D11*
X78278735Y-26438335D03*
X67414163Y-28159115D03*
D12*
X71915664Y-21421979D03*
X67321378Y-24377066D03*
D17*
X68680985Y-21934302D03*
D18*
X80136634Y-22347329D03*
D12*
X77198261Y-22812721D03*
%TD*%
D10*
%TO.C,S13*%
X84085190Y-101453568D03*
D11*
X89517476Y-100593178D03*
X78652904Y-102313958D03*
D12*
X83154405Y-95576822D03*
X78560119Y-98531909D03*
D17*
X79919726Y-96089145D03*
D18*
X91375375Y-96502172D03*
D12*
X88437002Y-96967564D03*
%TD*%
D10*
%TO.C,S14*%
X100569398Y-80304454D03*
D11*
X106039268Y-79729547D03*
X95099528Y-80879361D03*
D12*
X99947454Y-74387049D03*
X95204807Y-77097639D03*
D19*
X96690394Y-74729379D03*
D20*
X108108728Y-75741382D03*
D12*
X105150026Y-76052355D03*
%TD*%
D10*
%TO.C,S15*%
X98792415Y-63397582D03*
D11*
X104262285Y-62822675D03*
X93322545Y-63972489D03*
D12*
X98170471Y-57480177D03*
X93427824Y-60190767D03*
D19*
X94913411Y-57822507D03*
D20*
X106331745Y-58834510D03*
D12*
X103373043Y-59145483D03*
%TD*%
D10*
%TO.C,S16*%
X97015431Y-46490710D03*
D11*
X102485301Y-45915803D03*
X91545561Y-47065617D03*
D12*
X96393487Y-40573305D03*
X91650840Y-43283895D03*
D19*
X93136427Y-40915635D03*
D20*
X104554761Y-41927638D03*
D12*
X101596059Y-42238611D03*
%TD*%
D10*
%TO.C,S17*%
X95238447Y-29583837D03*
D11*
X100708317Y-29008930D03*
X89768577Y-30158744D03*
D12*
X94616503Y-23666432D03*
X89873856Y-26377022D03*
D19*
X91359443Y-24008762D03*
D20*
X102777777Y-25020765D03*
D12*
X99819075Y-25331738D03*
%TD*%
D10*
%TO.C,S18*%
X120668893Y-80202928D03*
D11*
X126138763Y-79628021D03*
X115199023Y-80777835D03*
D12*
X120046949Y-74285523D03*
X115304302Y-76996113D03*
D19*
X116789889Y-74627853D03*
D20*
X128208223Y-75639856D03*
D12*
X125249521Y-75950829D03*
%TD*%
D10*
%TO.C,S19*%
X118891910Y-63296056D03*
D11*
X124361780Y-62721149D03*
X113422040Y-63870963D03*
D12*
X118269966Y-57378651D03*
X113527319Y-60089241D03*
D19*
X115012906Y-57720981D03*
D20*
X126431240Y-58732984D03*
D12*
X123472538Y-59043957D03*
%TD*%
D10*
%TO.C,S20*%
X117114926Y-46389184D03*
D11*
X122584796Y-45814277D03*
X111645056Y-46964091D03*
D12*
X116492982Y-40471779D03*
X111750335Y-43182369D03*
D19*
X113235922Y-40814109D03*
D20*
X124654256Y-41826112D03*
D12*
X121695554Y-42137085D03*
%TD*%
D10*
%TO.C,S21*%
X115337942Y-29482312D03*
D11*
X120807812Y-28907405D03*
X109868072Y-30057219D03*
D12*
X114715998Y-23564907D03*
X109973351Y-26275497D03*
D19*
X111458938Y-23907237D03*
D20*
X122877272Y-24919240D03*
D12*
X119918570Y-25230213D03*
%TD*%
D10*
%TO.C,S22*%
X108627099Y-99567721D03*
D11*
X114096969Y-98992814D03*
X103157229Y-100142628D03*
D12*
X108005155Y-93650316D03*
X103262508Y-96360906D03*
D19*
X104748095Y-93992646D03*
D20*
X116166429Y-95004649D03*
D12*
X113207727Y-95315622D03*
%TD*%
D10*
%TO.C,S23*%
X143961011Y-81776861D03*
D11*
X148985511Y-84013913D03*
X138936511Y-79539809D03*
D12*
X146381094Y-76341266D03*
X140918546Y-76317382D03*
D21*
X143389233Y-75009203D03*
D22*
X152771798Y-81594790D03*
D12*
X150054001Y-80384749D03*
%TD*%
D10*
%TO.C,S24*%
X134912732Y-99641034D03*
D11*
X139937232Y-101878086D03*
X129888232Y-97403982D03*
D12*
X137332815Y-94205439D03*
X131870267Y-94181555D03*
D21*
X134340954Y-92873376D03*
D22*
X143723519Y-99458963D03*
D12*
X141005722Y-98248922D03*
%TD*%
D10*
%TO.C,S25*%
X163248679Y-92212095D03*
D11*
X167808386Y-95287656D03*
X158688972Y-89136534D03*
D12*
X166575877Y-87279321D03*
X161200465Y-86307240D03*
D23*
X163860779Y-85447965D03*
D24*
X171957227Y-93562768D03*
D12*
X169490840Y-91899169D03*
%TD*%
D10*
%TO.C,S26*%
X152064821Y-108792847D03*
D11*
X156624528Y-111868408D03*
X147505114Y-105717286D03*
D12*
X155392019Y-103860073D03*
X150016607Y-102887992D03*
D23*
X152676921Y-102028717D03*
D24*
X160773369Y-110143520D03*
D12*
X158306982Y-108479921D03*
%TD*%
D25*
%TO.C,MCU1*%
X131295221Y-15035179D03*
X146451734Y-13442165D03*
D26*
X135492103Y-14594069D03*
X142254852Y-13883275D03*
D27*
X133403607Y-14813578D03*
D28*
X134124635Y-14737795D03*
D29*
X143622320Y-13739549D03*
D30*
X144343348Y-13663765D03*
D25*
X131560723Y-17561264D03*
X146717237Y-15968251D03*
D26*
X135757605Y-17120154D03*
X142520354Y-16409361D03*
D27*
X133669109Y-17339664D03*
D28*
X134390138Y-17263881D03*
D29*
X143887822Y-16265634D03*
D30*
X144608850Y-16189851D03*
D25*
X131826225Y-20087350D03*
X146982739Y-18494336D03*
D26*
X136023108Y-19646240D03*
X142785857Y-18935446D03*
D27*
X133934612Y-19865750D03*
D28*
X134655640Y-19789967D03*
D29*
X144153324Y-18791720D03*
D30*
X144874353Y-18715937D03*
D25*
X132091728Y-22613436D03*
X147248241Y-21020422D03*
D26*
X136288610Y-22172326D03*
X143051359Y-21461532D03*
D27*
X134200114Y-22391835D03*
D28*
X134921142Y-22316052D03*
D29*
X144418826Y-21317805D03*
D30*
X145139855Y-21242022D03*
D25*
X132357230Y-25139521D03*
X147513744Y-23546507D03*
D26*
X136554112Y-24698411D03*
X143316861Y-23987618D03*
D27*
X134465616Y-24917921D03*
D28*
X135186645Y-24842138D03*
D29*
X144684329Y-23843891D03*
D30*
X145405357Y-23768108D03*
D25*
X132622732Y-27665607D03*
X147779246Y-26072593D03*
D26*
X136819615Y-27224497D03*
X143582363Y-26513703D03*
D27*
X134731119Y-27444007D03*
D28*
X135452147Y-27368223D03*
D29*
X144949831Y-26369977D03*
D30*
X145670859Y-26294193D03*
D25*
X132888234Y-30191693D03*
X148044748Y-28598679D03*
D26*
X137085117Y-29750582D03*
X143847866Y-29039789D03*
D27*
X134996621Y-29970092D03*
D28*
X135717649Y-29894309D03*
D29*
X145215333Y-28896062D03*
D30*
X145936362Y-28820279D03*
D25*
X133153737Y-32717778D03*
X148310250Y-31124764D03*
D26*
X137350619Y-32276668D03*
X144113368Y-31565874D03*
D27*
X135262123Y-32496178D03*
D28*
X135983152Y-32420395D03*
D29*
X145480836Y-31422148D03*
D30*
X146201864Y-31346365D03*
D25*
X133419239Y-35243864D03*
X148575753Y-33650850D03*
D26*
X137616121Y-34802754D03*
X144378870Y-34091960D03*
D27*
X135527625Y-35022263D03*
D28*
X136248654Y-34946480D03*
D29*
X145746338Y-33948233D03*
D30*
X146467366Y-33872450D03*
D25*
X133684741Y-37769949D03*
X148841255Y-36176936D03*
D26*
X137881624Y-37328839D03*
X144644373Y-36618046D03*
D27*
X135793128Y-37548349D03*
D28*
X136514156Y-37472566D03*
D29*
X146011840Y-36474319D03*
D30*
X146732869Y-36398536D03*
D25*
X133950244Y-40296035D03*
X149106757Y-38703021D03*
D26*
X138147126Y-39854925D03*
X144909875Y-39144131D03*
D27*
X136058630Y-40074435D03*
D28*
X136779658Y-39998651D03*
D29*
X146277343Y-39000405D03*
D30*
X146998371Y-38924622D03*
D25*
X134215746Y-42822121D03*
X149372260Y-41229107D03*
D26*
X138412628Y-42381010D03*
X145175377Y-41670217D03*
D27*
X136324132Y-42600520D03*
D28*
X137045161Y-42524737D03*
D29*
X146542845Y-41526490D03*
D30*
X147263873Y-41450707D03*
%TD*%
D31*
%TO.C,RST1*%
X120937368Y-12202351D03*
X121115066Y-13893038D03*
X126158608Y-11653576D03*
X126336306Y-13344263D03*
%TD*%
D32*
%TO.C,RE1*%
X137390966Y-60023945D03*
D33*
X148529612Y-58853227D03*
%TD*%
D34*
%TO.C,JST1*%
X155062049Y-53461372D03*
X153073005Y-53670428D03*
D35*
X154873898Y-51671232D03*
X152884854Y-51880289D03*
D36*
X152778653Y-50869855D03*
X154767697Y-50660798D03*
%TD*%
D37*
%TO.C,PWR1*%
X110175026Y-15279177D03*
X109944019Y-13081284D03*
X117435036Y-14516119D03*
X117204028Y-12318226D03*
D38*
X111635301Y-15779277D03*
X114618866Y-15465691D03*
X116110649Y-15308898D03*
D39*
X112197222Y-13950522D03*
X115180788Y-13636936D03*
%TD*%
D40*
%TO.C,DISP1*%
X147087635Y-43791955D03*
X144561550Y-44057457D03*
X139509378Y-44588462D03*
X136983293Y-44853964D03*
X147181711Y-44687025D03*
X144655625Y-44952527D03*
X139603454Y-45483532D03*
X137077368Y-45749034D03*
D41*
X137260293Y-47489447D03*
X139786379Y-47223945D03*
X142312464Y-46958443D03*
X144838550Y-46692940D03*
D25*
X147364636Y-46427438D03*
%TD*%
M02*
