%TF.GenerationSoftware,KiCad,Pcbnew,9.0.2*%
%TF.CreationDate,2025-05-27T05:35:02-06:00*%
%TF.ProjectId,keeb,6b656562-2e6b-4696-9361-645f70636258,v1.0.0*%
%TF.SameCoordinates,Original*%
%TF.FileFunction,Paste,Top*%
%TF.FilePolarity,Positive*%
%FSLAX46Y46*%
G04 Gerber Fmt 4.6, Leading zero omitted, Abs format (unit mm)*
G04 Created by KiCad (PCBNEW 9.0.2) date 2025-05-27 05:35:02*
%MOMM*%
%LPD*%
G01*
G04 APERTURE LIST*
G04 Aperture macros list*
%AMRotRect*
0 Rectangle, with rotation*
0 The origin of the aperture is its center*
0 $1 length*
0 $2 width*
0 $3 Rotation angle, in degrees counterclockwise*
0 Add horizontal line*
21,1,$1,$2,0,0,$3*%
%AMOutline5P*
0 Free polygon, 5 corners , with rotation*
0 The origin of the aperture is its center*
0 number of corners: always 5*
0 $1 to $10 corner X, Y*
0 $11 Rotation angle, in degrees counterclockwise*
0 create outline with 5 corners*
4,1,5,$1,$2,$3,$4,$5,$6,$7,$8,$9,$10,$1,$2,$11*%
%AMOutline6P*
0 Free polygon, 6 corners , with rotation*
0 The origin of the aperture is its center*
0 number of corners: always 6*
0 $1 to $12 corner X, Y*
0 $13 Rotation angle, in degrees counterclockwise*
0 create outline with 6 corners*
4,1,6,$1,$2,$3,$4,$5,$6,$7,$8,$9,$10,$11,$12,$1,$2,$13*%
%AMOutline7P*
0 Free polygon, 7 corners , with rotation*
0 The origin of the aperture is its center*
0 number of corners: always 7*
0 $1 to $14 corner X, Y*
0 $15 Rotation angle, in degrees counterclockwise*
0 create outline with 7 corners*
4,1,7,$1,$2,$3,$4,$5,$6,$7,$8,$9,$10,$11,$12,$13,$14,$1,$2,$15*%
%AMOutline8P*
0 Free polygon, 8 corners , with rotation*
0 The origin of the aperture is its center*
0 number of corners: always 8*
0 $1 to $16 corner X, Y*
0 $17 Rotation angle, in degrees counterclockwise*
0 create outline with 8 corners*
4,1,8,$1,$2,$3,$4,$5,$6,$7,$8,$9,$10,$11,$12,$13,$14,$15,$16,$1,$2,$17*%
%AMFreePoly0*
4,1,6,0.250000,0.000000,-0.250000,-0.625000,-0.500000,-0.625000,-0.500000,0.625000,-0.250000,0.625000,0.250000,0.000000,0.250000,0.000000,$1*%
%AMFreePoly1*
4,1,6,0.500000,-0.625000,-0.650000,-0.625000,-0.150000,0.000000,-0.650000,0.625000,0.500000,0.625000,0.500000,-0.625000,0.500000,-0.625000,$1*%
%AMFreePoly2*
4,1,6,0.600000,-0.200000,0.600000,-0.400000,-0.600000,-0.400000,-0.600000,-0.200000,0.000000,0.400000,0.600000,-0.200000,0.600000,-0.200000,$1*%
%AMFreePoly3*
4,1,6,0.600000,-1.000000,0.000000,-0.400000,-0.600000,-1.000000,-0.600000,0.250000,0.600000,0.250000,0.600000,-1.000000,0.600000,-1.000000,$1*%
G04 Aperture macros list end*
%ADD10Outline5P,-1.300000X1.300000X1.300000X1.300000X1.300000X-0.117000X0.117000X-1.300000X-1.300000X-1.300000X15.000000*%
%ADD11RotRect,2.000000X2.600000X15.000000*%
%ADD12Outline5P,-1.300000X1.300000X1.300000X1.300000X1.300000X-0.117000X0.117000X-1.300000X-1.300000X-1.300000X12.000000*%
%ADD13RotRect,2.000000X2.600000X12.000000*%
%ADD14Outline5P,-1.300000X1.300000X1.300000X1.300000X1.300000X-0.117000X0.117000X-1.300000X-1.300000X-1.300000X9.000000*%
%ADD15RotRect,2.000000X2.600000X9.000000*%
%ADD16Outline5P,-1.300000X1.300000X1.300000X1.300000X1.300000X-0.117000X0.117000X-1.300000X-1.300000X-1.300000X6.000000*%
%ADD17RotRect,2.000000X2.600000X6.000000*%
%ADD18Outline5P,-1.300000X1.300000X1.300000X1.300000X1.300000X-0.117000X0.117000X-1.300000X-1.300000X-1.300000X336.000000*%
%ADD19RotRect,2.000000X2.600000X336.000000*%
%ADD20Outline5P,-1.300000X1.300000X1.300000X1.300000X1.300000X-0.117000X0.117000X-1.300000X-1.300000X-1.300000X326.000000*%
%ADD21RotRect,2.000000X2.600000X326.000000*%
%ADD22RotRect,0.900000X1.200000X15.000000*%
%ADD23RotRect,0.900000X1.200000X12.000000*%
%ADD24RotRect,0.900000X1.200000X9.000000*%
%ADD25RotRect,0.900000X1.200000X6.000000*%
%ADD26RotRect,0.900000X1.200000X336.000000*%
%ADD27RotRect,0.900000X1.200000X326.000000*%
%ADD28FreePoly0,6.000000*%
%ADD29FreePoly1,6.000000*%
%ADD30FreePoly1,186.000000*%
%ADD31FreePoly0,186.000000*%
%ADD32RotRect,1.550000X1.000000X186.000000*%
%ADD33FreePoly2,6.000000*%
%ADD34FreePoly3,6.000000*%
%ADD35RotRect,1.000000X0.800000X186.000000*%
%ADD36RotRect,0.700000X1.500000X186.000000*%
%ADD37RotRect,0.600000X1.200000X96.000000*%
G04 APERTURE END LIST*
D10*
%TO.C,S1*%
X47223510Y-93984370D03*
D11*
X36926246Y-99021121D03*
%TD*%
D10*
%TO.C,S2*%
X42823586Y-77563631D03*
D11*
X32526322Y-82600382D03*
%TD*%
D10*
%TO.C,S3*%
X38423663Y-61142892D03*
D11*
X28126399Y-66179643D03*
%TD*%
D10*
%TO.C,S4*%
X34023739Y-44722153D03*
D11*
X23726475Y-49758904D03*
%TD*%
D12*
%TO.C,S5*%
X63719064Y-80950441D03*
D13*
X53172309Y-85441372D03*
%TD*%
D12*
%TO.C,S6*%
X60184565Y-64321931D03*
D13*
X49637810Y-68812862D03*
%TD*%
D12*
%TO.C,S7*%
X56650067Y-47693422D03*
D13*
X46103312Y-52184353D03*
%TD*%
D12*
%TO.C,S8*%
X53115568Y-31064913D03*
D13*
X42568813Y-35555844D03*
%TD*%
D14*
%TO.C,S9*%
X82535888Y-71375624D03*
D15*
X71768550Y-75308426D03*
%TD*%
D14*
%TO.C,S10*%
X80074040Y-54553635D03*
D15*
X69306702Y-58486437D03*
%TD*%
D14*
%TO.C,S11*%
X77612191Y-37731646D03*
D15*
X66844853Y-41664448D03*
%TD*%
D14*
%TO.C,S12*%
X75150343Y-20909657D03*
D15*
X64383005Y-24842459D03*
%TD*%
D14*
%TO.C,S13*%
X86389084Y-95064500D03*
D15*
X75621746Y-98997302D03*
%TD*%
D16*
%TO.C,S14*%
X103204513Y-74044718D03*
D17*
X92246104Y-77408611D03*
%TD*%
D16*
%TO.C,S15*%
X101427530Y-57137846D03*
D17*
X90469121Y-60501739D03*
%TD*%
D16*
%TO.C,S16*%
X99650546Y-40230974D03*
D17*
X88692137Y-43594867D03*
%TD*%
D16*
%TO.C,S17*%
X97873562Y-23324101D03*
D17*
X86915153Y-26687994D03*
%TD*%
D16*
%TO.C,S18*%
X123304008Y-73943192D03*
D17*
X112345599Y-77307085D03*
%TD*%
D16*
%TO.C,S19*%
X121527025Y-57036320D03*
D17*
X110568616Y-60400213D03*
%TD*%
D16*
%TO.C,S20*%
X119750041Y-40129448D03*
D17*
X108791632Y-43493341D03*
%TD*%
D16*
%TO.C,S21*%
X117973057Y-23222576D03*
D17*
X107014648Y-26586469D03*
%TD*%
D16*
%TO.C,S22*%
X111262214Y-93307985D03*
D17*
X100303805Y-96671878D03*
%TD*%
D18*
%TO.C,S23*%
X149372955Y-77673328D03*
D19*
X138200748Y-75107341D03*
%TD*%
D18*
%TO.C,S24*%
X140324676Y-95537501D03*
D19*
X129152469Y-92971514D03*
%TD*%
D20*
%TO.C,S25*%
X169290975Y-89110678D03*
D21*
X158734078Y-84643641D03*
%TD*%
D20*
%TO.C,S26*%
X158107117Y-105691430D03*
D21*
X147550220Y-101224393D03*
%TD*%
D22*
%TO.C,D1*%
X45041574Y-104870015D03*
X48229130Y-104015913D03*
%TD*%
%TO.C,D2*%
X40641651Y-88449276D03*
X43829207Y-87595174D03*
%TD*%
%TO.C,D3*%
X36241727Y-72028537D03*
X39429283Y-71174435D03*
%TD*%
%TO.C,D4*%
X31841803Y-55607798D03*
X35029359Y-54753696D03*
%TD*%
D23*
%TO.C,D5*%
X60970408Y-91706974D03*
X64198296Y-91020866D03*
%TD*%
%TO.C,D6*%
X57435909Y-75078465D03*
X60663797Y-74392357D03*
%TD*%
%TO.C,D7*%
X53901410Y-58449956D03*
X57129298Y-57763848D03*
%TD*%
%TO.C,D8*%
X50366912Y-41821446D03*
X53594800Y-41135338D03*
%TD*%
D24*
%TO.C,D9*%
X79228046Y-81973562D03*
X82487418Y-81457328D03*
%TD*%
%TO.C,D10*%
X76766197Y-65151573D03*
X80025569Y-64635339D03*
%TD*%
%TO.C,D11*%
X74304349Y-48329585D03*
X77563721Y-47813351D03*
%TD*%
%TO.C,D12*%
X71842501Y-31507596D03*
X75101873Y-30991362D03*
%TD*%
%TO.C,D13*%
X83081242Y-105662439D03*
X86340614Y-105146205D03*
%TD*%
D25*
%TO.C,D14*%
X99346551Y-84455014D03*
X102628473Y-84110070D03*
%TD*%
%TO.C,D15*%
X97569567Y-67548141D03*
X100851489Y-67203197D03*
%TD*%
%TO.C,D16*%
X95792584Y-50641269D03*
X99074506Y-50296325D03*
%TD*%
%TO.C,D17*%
X94015600Y-33734397D03*
X97297522Y-33389453D03*
%TD*%
%TO.C,D18*%
X119446046Y-84353488D03*
X122727968Y-84008544D03*
%TD*%
%TO.C,D19*%
X117669062Y-67446616D03*
X120950984Y-67101672D03*
%TD*%
%TO.C,D20*%
X115892078Y-50539744D03*
X119174000Y-50194800D03*
%TD*%
%TO.C,D21*%
X114115095Y-33632871D03*
X117397017Y-33287927D03*
%TD*%
%TO.C,D22*%
X107404252Y-103718281D03*
X110686174Y-103373337D03*
%TD*%
D26*
%TO.C,D23*%
X140826714Y-84759928D03*
X143841414Y-86102158D03*
%TD*%
%TO.C,D24*%
X131778436Y-102624101D03*
X134793136Y-103966331D03*
%TD*%
D27*
%TO.C,D25*%
X159643995Y-94605577D03*
X162379819Y-96450913D03*
%TD*%
%TO.C,D26*%
X148460137Y-111186329D03*
X151195961Y-113031665D03*
%TD*%
D28*
%TO.C,MCU1*%
X133403607Y-14813578D03*
D29*
X134124635Y-14737795D03*
D30*
X143622320Y-13739549D03*
D31*
X144343348Y-13663765D03*
D28*
X133669109Y-17339664D03*
D29*
X134390138Y-17263881D03*
D30*
X143887822Y-16265634D03*
D31*
X144608850Y-16189851D03*
D28*
X133934612Y-19865750D03*
D29*
X134655640Y-19789967D03*
D30*
X144153324Y-18791720D03*
D31*
X144874353Y-18715937D03*
D28*
X134200114Y-22391835D03*
D29*
X134921142Y-22316052D03*
D30*
X144418826Y-21317805D03*
D31*
X145139855Y-21242022D03*
D28*
X134465616Y-24917921D03*
D29*
X135186645Y-24842138D03*
D30*
X144684329Y-23843891D03*
D31*
X145405357Y-23768108D03*
D28*
X134731119Y-27444007D03*
D29*
X135452147Y-27368223D03*
D30*
X144949831Y-26369977D03*
D31*
X145670859Y-26294193D03*
D28*
X134996621Y-29970092D03*
D29*
X135717649Y-29894309D03*
D30*
X145215333Y-28896062D03*
D31*
X145936362Y-28820279D03*
D28*
X135262123Y-32496178D03*
D29*
X135983152Y-32420395D03*
D30*
X145480836Y-31422148D03*
D31*
X146201864Y-31346365D03*
D28*
X135527625Y-35022263D03*
D29*
X136248654Y-34946480D03*
D30*
X145746338Y-33948233D03*
D31*
X146467366Y-33872450D03*
D28*
X135793128Y-37548349D03*
D29*
X136514156Y-37472566D03*
D30*
X146011840Y-36474319D03*
D31*
X146732869Y-36398536D03*
D28*
X136058630Y-40074435D03*
D29*
X136779658Y-39998651D03*
D30*
X146277343Y-39000405D03*
D31*
X146998371Y-38924622D03*
D28*
X136324132Y-42600520D03*
D29*
X137045161Y-42524737D03*
D30*
X146542845Y-41526490D03*
D31*
X147263873Y-41450707D03*
%TD*%
D32*
%TO.C,RST1*%
X126158608Y-11653576D03*
X126336306Y-13344263D03*
X120937368Y-12202351D03*
X121115066Y-13893038D03*
%TD*%
D33*
%TO.C,JST1*%
X154873898Y-51671232D03*
X152884854Y-51880289D03*
D34*
X154767697Y-50660798D03*
X152778653Y-50869855D03*
%TD*%
D35*
%TO.C,PWR1*%
X109944019Y-13081284D03*
X110175026Y-15279177D03*
X117435036Y-14516119D03*
X117204028Y-12318226D03*
D36*
X116110649Y-15308898D03*
X113127083Y-15622484D03*
X111635301Y-15779277D03*
%TD*%
D37*
%TO.C,DISP1*%
X136983293Y-44853964D03*
X139509378Y-44588462D03*
X144561550Y-44057457D03*
X147087635Y-43791955D03*
X137077368Y-45749034D03*
X139603454Y-45483532D03*
X144655625Y-44952527D03*
X147181711Y-44687025D03*
%TD*%
M02*
