M48
; DRILL file {KiCad 9.0.2} date 2025-05-27T05:35:00-0600
; FORMAT={-:-/ absolute / metric / decimal}
; #@! TF.CreationDate,2025-05-27T05:35:00-06:00
; #@! TF.GenerationSoftware,Kicad,Pcbnew,9.0.2
; #@! TF.FileFunction,Plated,1,2,PTH
FMAT,2
METRIC
; #@! TA.AperFunction,Plated,PTH,ViaDrill
T1C0.300
; #@! TA.AperFunction,Plated,PTH,ComponentDrill
T2C0.400
; #@! TA.AperFunction,Plated,PTH,ComponentDrill
T3C0.500
; #@! TA.AperFunction,Plated,PTH,ComponentDrill
T4C0.750
; #@! TA.AperFunction,Plated,PTH,ComponentDrill
T5C1.000
; #@! TA.AperFunction,Plated,PTH,ComponentDrill
T6C1.500
%
G90
G05
T1
X31.397Y-47.574
X31.604Y-48.347
X35.797Y-63.995
X36.004Y-64.768
X40.197Y-80.416
X40.404Y-81.188
X44.597Y-96.836
X44.804Y-97.609
X50.344Y-33.775
X50.51Y-34.558
X53.878Y-50.404
X54.044Y-51.187
X57.413Y-67.032
X57.579Y-67.815
X60.947Y-83.661
X61.113Y-84.444
X72.24Y-23.471
X72.365Y-24.262
X74.702Y-40.293
X74.827Y-41.084
X77.164Y-57.115
X77.289Y-57.906
X79.626Y-73.937
X79.751Y-74.728
X83.479Y-97.626
X83.604Y-98.416
X94.833Y-25.73
X94.917Y-26.526
X96.61Y-42.637
X96.694Y-43.433
X98.387Y-59.544
X98.471Y-60.339
X100.164Y-76.451
X100.248Y-77.246
X108.222Y-95.714
X108.306Y-96.51
X110.0Y-16.5
X113.5Y-13.5
X114.933Y-25.629
X115.017Y-26.424
X116.71Y-42.535
X116.794Y-43.331
X118.487Y-59.442
X118.57Y-60.238
X120.264Y-76.349
X120.347Y-77.145
X123.5Y-11.933
X123.5Y-13.642
X136.163Y-96.832
X136.489Y-96.101
X145.212Y-78.968
X145.537Y-78.237
X151.067Y-28.5
X153.784Y-106.244
X154.0Y-50.0
X154.232Y-105.58
X154.5Y-48.5
X155.5Y-48.5
X164.968Y-89.663
X165.416Y-89.0
T2
X135.492Y-14.594
X135.758Y-17.12
X136.023Y-19.646
X136.289Y-22.172
X136.554Y-24.698
X136.82Y-27.224
X137.085Y-29.751
X137.351Y-32.277
X137.616Y-34.803
X137.882Y-37.329
X138.147Y-39.855
X138.413Y-42.381
X142.255Y-13.883
X142.52Y-16.409
X142.786Y-18.935
X143.051Y-21.462
X143.317Y-23.988
X143.582Y-26.514
X143.848Y-29.04
X144.113Y-31.566
X144.379Y-34.092
X144.644Y-36.618
X144.91Y-39.144
X145.175Y-41.67
T4
X153.073Y-53.67
X155.062Y-53.461
T5
X131.295Y-15.035
X131.561Y-17.561
X131.826Y-20.087
X132.092Y-22.613
X132.357Y-25.14
X132.623Y-27.666
X132.888Y-30.192
X133.154Y-32.718
X133.419Y-35.244
X133.685Y-37.77
X133.95Y-40.296
X134.216Y-42.822
X137.26Y-47.489
X139.786Y-47.224
X142.312Y-46.958
X144.839Y-46.693
X146.452Y-13.442
X146.717Y-15.968
X146.983Y-18.494
X147.248Y-21.02
X147.365Y-46.427
X147.514Y-23.547
X147.779Y-26.073
X148.045Y-28.599
X148.31Y-31.125
X148.576Y-33.651
X148.841Y-36.177
X149.107Y-38.703
X149.372Y-41.229
T3
G00X139.494Y-52.764
M15
G01X139.991Y-52.712
M16
G05
G00X141.009Y-67.185
M15
G01X141.507Y-67.133
M16
G05
G00X143.496Y-66.924
M15
G01X143.993Y-66.871
M16
G05
G00X144.466Y-52.242
M15
G01X144.964Y-52.189
M16
G05
G00X145.982Y-66.662
M15
G01X146.479Y-66.61
M16
G05
T6
G00X137.349Y-59.626
M15
G01X137.433Y-60.422
M16
G05
G00X148.488Y-58.455
M15
G01X148.571Y-59.251
M16
G05
M30
