%TF.GenerationSoftware,KiCad,Pcbnew,9.0.2*%
%TF.CreationDate,2025-05-27T05:35:02-06:00*%
%TF.ProjectId,keeb,6b656562-2e6b-4696-9361-645f70636258,v1.0.0*%
%TF.SameCoordinates,Original*%
%TF.FileFunction,Paste,Bot*%
%TF.FilePolarity,Positive*%
%FSLAX46Y46*%
G04 Gerber Fmt 4.6, Leading zero omitted, Abs format (unit mm)*
G04 Created by KiCad (PCBNEW 9.0.2) date 2025-05-27 05:35:02*
%MOMM*%
%LPD*%
G01*
G04 APERTURE LIST*
G04 Aperture macros list*
%AMRotRect*
0 Rectangle, with rotation*
0 The origin of the aperture is its center*
0 $1 length*
0 $2 width*
0 $3 Rotation angle, in degrees counterclockwise*
0 Add horizontal line*
21,1,$1,$2,0,0,$3*%
%AMOutline5P*
0 Free polygon, 5 corners , with rotation*
0 The origin of the aperture is its center*
0 number of corners: always 5*
0 $1 to $10 corner X, Y*
0 $11 Rotation angle, in degrees counterclockwise*
0 create outline with 5 corners*
4,1,5,$1,$2,$3,$4,$5,$6,$7,$8,$9,$10,$1,$2,$11*%
%AMOutline6P*
0 Free polygon, 6 corners , with rotation*
0 The origin of the aperture is its center*
0 number of corners: always 6*
0 $1 to $12 corner X, Y*
0 $13 Rotation angle, in degrees counterclockwise*
0 create outline with 6 corners*
4,1,6,$1,$2,$3,$4,$5,$6,$7,$8,$9,$10,$11,$12,$1,$2,$13*%
%AMOutline7P*
0 Free polygon, 7 corners , with rotation*
0 The origin of the aperture is its center*
0 number of corners: always 7*
0 $1 to $14 corner X, Y*
0 $15 Rotation angle, in degrees counterclockwise*
0 create outline with 7 corners*
4,1,7,$1,$2,$3,$4,$5,$6,$7,$8,$9,$10,$11,$12,$13,$14,$1,$2,$15*%
%AMOutline8P*
0 Free polygon, 8 corners , with rotation*
0 The origin of the aperture is its center*
0 number of corners: always 8*
0 $1 to $16 corner X, Y*
0 $17 Rotation angle, in degrees counterclockwise*
0 create outline with 8 corners*
4,1,8,$1,$2,$3,$4,$5,$6,$7,$8,$9,$10,$11,$12,$13,$14,$15,$16,$1,$2,$17*%
%AMFreePoly0*
4,1,6,0.250000,0.000000,-0.250000,-0.625000,-0.500000,-0.625000,-0.500000,0.625000,-0.250000,0.625000,0.250000,0.000000,0.250000,0.000000,$1*%
%AMFreePoly1*
4,1,6,0.500000,-0.625000,-0.650000,-0.625000,-0.150000,0.000000,-0.650000,0.625000,0.500000,0.625000,0.500000,-0.625000,0.500000,-0.625000,$1*%
%AMFreePoly2*
4,1,6,0.600000,-0.200000,0.600000,-0.400000,-0.600000,-0.400000,-0.600000,-0.200000,0.000000,0.400000,0.600000,-0.200000,0.600000,-0.200000,$1*%
%AMFreePoly3*
4,1,6,0.600000,-1.000000,0.000000,-0.400000,-0.600000,-1.000000,-0.600000,0.250000,0.600000,0.250000,0.600000,-1.000000,0.600000,-1.000000,$1*%
G04 Aperture macros list end*
%ADD10Outline5P,-1.300000X1.300000X1.300000X1.300000X1.300000X-1.300000X-0.117000X-1.300000X-1.300000X-0.117000X15.000000*%
%ADD11RotRect,2.000000X2.600000X15.000000*%
%ADD12Outline5P,-1.300000X1.300000X1.300000X1.300000X1.300000X-1.300000X-0.117000X-1.300000X-1.300000X-0.117000X12.000000*%
%ADD13RotRect,2.000000X2.600000X12.000000*%
%ADD14Outline5P,-1.300000X1.300000X1.300000X1.300000X1.300000X-1.300000X-0.117000X-1.300000X-1.300000X-0.117000X9.000000*%
%ADD15RotRect,2.000000X2.600000X9.000000*%
%ADD16Outline5P,-1.300000X1.300000X1.300000X1.300000X1.300000X-1.300000X-0.117000X-1.300000X-1.300000X-0.117000X6.000000*%
%ADD17RotRect,2.000000X2.600000X6.000000*%
%ADD18Outline5P,-1.300000X1.300000X1.300000X1.300000X1.300000X-1.300000X-0.117000X-1.300000X-1.300000X-0.117000X336.000000*%
%ADD19RotRect,2.000000X2.600000X336.000000*%
%ADD20Outline5P,-1.300000X1.300000X1.300000X1.300000X1.300000X-1.300000X-0.117000X-1.300000X-1.300000X-0.117000X326.000000*%
%ADD21RotRect,2.000000X2.600000X326.000000*%
%ADD22FreePoly0,6.000000*%
%ADD23FreePoly1,6.000000*%
%ADD24FreePoly1,186.000000*%
%ADD25FreePoly0,186.000000*%
%ADD26RotRect,1.550000X1.000000X186.000000*%
%ADD27FreePoly2,6.000000*%
%ADD28FreePoly3,6.000000*%
%ADD29RotRect,1.000000X0.800000X6.000000*%
%ADD30RotRect,0.700000X1.500000X6.000000*%
%ADD31RotRect,0.600000X1.200000X276.000000*%
G04 APERTURE END LIST*
D10*
%TO.C,S1*%
X40896696Y-95679635D03*
D11*
X52332763Y-94892957D03*
%TD*%
D10*
%TO.C,S2*%
X36496772Y-79258896D03*
D11*
X47932839Y-78472218D03*
%TD*%
D10*
%TO.C,S3*%
X32096849Y-62838157D03*
D11*
X43532916Y-62051479D03*
%TD*%
D10*
%TO.C,S4*%
X27696925Y-46417418D03*
D11*
X39132992Y-45630740D03*
%TD*%
D12*
%TO.C,S5*%
X57312197Y-82312263D03*
D13*
X68773763Y-82125181D03*
%TD*%
D12*
%TO.C,S6*%
X53777698Y-65683753D03*
D13*
X65239264Y-65496671D03*
%TD*%
D12*
%TO.C,S7*%
X50243200Y-49055244D03*
D13*
X61704766Y-48868162D03*
%TD*%
D12*
%TO.C,S8*%
X46708701Y-32426735D03*
D13*
X58170267Y-32239653D03*
%TD*%
D14*
%TO.C,S9*%
X76066530Y-72400269D03*
D15*
X87522179Y-72813296D03*
%TD*%
D14*
%TO.C,S10*%
X73604682Y-55578280D03*
D15*
X85060331Y-55991307D03*
%TD*%
D14*
%TO.C,S11*%
X71142833Y-38756291D03*
D15*
X82598482Y-39169318D03*
%TD*%
D14*
%TO.C,S12*%
X68680985Y-21934302D03*
D15*
X80136634Y-22347329D03*
%TD*%
D14*
%TO.C,S13*%
X79919726Y-96089145D03*
D15*
X91375375Y-96502172D03*
%TD*%
D16*
%TO.C,S14*%
X96690394Y-74729379D03*
D17*
X108108728Y-75741382D03*
%TD*%
D16*
%TO.C,S15*%
X94913411Y-57822507D03*
D17*
X106331745Y-58834510D03*
%TD*%
D16*
%TO.C,S16*%
X93136427Y-40915635D03*
D17*
X104554761Y-41927638D03*
%TD*%
D16*
%TO.C,S17*%
X91359443Y-24008762D03*
D17*
X102777777Y-25020765D03*
%TD*%
D16*
%TO.C,S18*%
X116789889Y-74627853D03*
D17*
X128208223Y-75639856D03*
%TD*%
D16*
%TO.C,S19*%
X115012906Y-57720981D03*
D17*
X126431240Y-58732984D03*
%TD*%
D16*
%TO.C,S20*%
X113235922Y-40814109D03*
D17*
X124654256Y-41826112D03*
%TD*%
D16*
%TO.C,S21*%
X111458938Y-23907237D03*
D17*
X122877272Y-24919240D03*
%TD*%
D16*
%TO.C,S22*%
X104748095Y-93992646D03*
D17*
X116166429Y-95004649D03*
%TD*%
D18*
%TO.C,S23*%
X143389233Y-75009203D03*
D19*
X152771798Y-81594790D03*
%TD*%
D18*
%TO.C,S24*%
X134340954Y-92873376D03*
D19*
X143723519Y-99458963D03*
%TD*%
D20*
%TO.C,S25*%
X163860779Y-85447965D03*
D21*
X171957227Y-93562768D03*
%TD*%
D20*
%TO.C,S26*%
X152676921Y-102028717D03*
D21*
X160773369Y-110143520D03*
%TD*%
D22*
%TO.C,MCU1*%
X133403607Y-14813578D03*
D23*
X134124635Y-14737795D03*
D24*
X143622320Y-13739549D03*
D25*
X144343348Y-13663765D03*
D22*
X133669109Y-17339664D03*
D23*
X134390138Y-17263881D03*
D24*
X143887822Y-16265634D03*
D25*
X144608850Y-16189851D03*
D22*
X133934612Y-19865750D03*
D23*
X134655640Y-19789967D03*
D24*
X144153324Y-18791720D03*
D25*
X144874353Y-18715937D03*
D22*
X134200114Y-22391835D03*
D23*
X134921142Y-22316052D03*
D24*
X144418826Y-21317805D03*
D25*
X145139855Y-21242022D03*
D22*
X134465616Y-24917921D03*
D23*
X135186645Y-24842138D03*
D24*
X144684329Y-23843891D03*
D25*
X145405357Y-23768108D03*
D22*
X134731119Y-27444007D03*
D23*
X135452147Y-27368223D03*
D24*
X144949831Y-26369977D03*
D25*
X145670859Y-26294193D03*
D22*
X134996621Y-29970092D03*
D23*
X135717649Y-29894309D03*
D24*
X145215333Y-28896062D03*
D25*
X145936362Y-28820279D03*
D22*
X135262123Y-32496178D03*
D23*
X135983152Y-32420395D03*
D24*
X145480836Y-31422148D03*
D25*
X146201864Y-31346365D03*
D22*
X135527625Y-35022263D03*
D23*
X136248654Y-34946480D03*
D24*
X145746338Y-33948233D03*
D25*
X146467366Y-33872450D03*
D22*
X135793128Y-37548349D03*
D23*
X136514156Y-37472566D03*
D24*
X146011840Y-36474319D03*
D25*
X146732869Y-36398536D03*
D22*
X136058630Y-40074435D03*
D23*
X136779658Y-39998651D03*
D24*
X146277343Y-39000405D03*
D25*
X146998371Y-38924622D03*
D22*
X136324132Y-42600520D03*
D23*
X137045161Y-42524737D03*
D24*
X146542845Y-41526490D03*
D25*
X147263873Y-41450707D03*
%TD*%
D26*
%TO.C,RST1*%
X120937368Y-12202351D03*
X121115066Y-13893038D03*
X126158608Y-11653576D03*
X126336306Y-13344263D03*
%TD*%
D27*
%TO.C,JST1*%
X154873898Y-51671232D03*
X152884854Y-51880289D03*
D28*
X152778653Y-50869855D03*
X154767697Y-50660798D03*
%TD*%
D29*
%TO.C,PWR1*%
X110175026Y-15279177D03*
X109944019Y-13081284D03*
X117435036Y-14516119D03*
X117204028Y-12318226D03*
D30*
X111635301Y-15779277D03*
X114618866Y-15465691D03*
X116110649Y-15308898D03*
%TD*%
D31*
%TO.C,DISP1*%
X147087635Y-43791955D03*
X144561550Y-44057457D03*
X139509378Y-44588462D03*
X136983293Y-44853964D03*
X147181711Y-44687025D03*
X144655625Y-44952527D03*
X139603454Y-45483532D03*
X137077368Y-45749034D03*
%TD*%
M02*
