%TF.GenerationSoftware,KiCad,Pcbnew,9.0.2*%
%TF.CreationDate,2025-05-27T05:35:02-06:00*%
%TF.ProjectId,keeb,6b656562-2e6b-4696-9361-645f70636258,v1.0.0*%
%TF.SameCoordinates,Original*%
%TF.FileFunction,Copper,L2,Bot*%
%TF.FilePolarity,Positive*%
%FSLAX46Y46*%
G04 Gerber Fmt 4.6, Leading zero omitted, Abs format (unit mm)*
G04 Created by KiCad (PCBNEW 9.0.2) date 2025-05-27 05:35:02*
%MOMM*%
%LPD*%
G01*
G04 APERTURE LIST*
G04 Aperture macros list*
%AMHorizOval*
0 Thick line with rounded ends*
0 $1 width*
0 $2 $3 position (X,Y) of the first rounded end (center of the circle)*
0 $4 $5 position (X,Y) of the second rounded end (center of the circle)*
0 Add line between two ends*
20,1,$1,$2,$3,$4,$5,0*
0 Add two circle primitives to create the rounded ends*
1,1,$1,$2,$3*
1,1,$1,$4,$5*%
%AMRotRect*
0 Rectangle, with rotation*
0 The origin of the aperture is its center*
0 $1 length*
0 $2 width*
0 $3 Rotation angle, in degrees counterclockwise*
0 Add horizontal line*
21,1,$1,$2,0,0,$3*%
%AMOutline5P*
0 Free polygon, 5 corners , with rotation*
0 The origin of the aperture is its center*
0 number of corners: always 5*
0 $1 to $10 corner X, Y*
0 $11 Rotation angle, in degrees counterclockwise*
0 create outline with 5 corners*
4,1,5,$1,$2,$3,$4,$5,$6,$7,$8,$9,$10,$1,$2,$11*%
%AMOutline6P*
0 Free polygon, 6 corners , with rotation*
0 The origin of the aperture is its center*
0 number of corners: always 6*
0 $1 to $12 corner X, Y*
0 $13 Rotation angle, in degrees counterclockwise*
0 create outline with 6 corners*
4,1,6,$1,$2,$3,$4,$5,$6,$7,$8,$9,$10,$11,$12,$1,$2,$13*%
%AMOutline7P*
0 Free polygon, 7 corners , with rotation*
0 The origin of the aperture is its center*
0 number of corners: always 7*
0 $1 to $14 corner X, Y*
0 $15 Rotation angle, in degrees counterclockwise*
0 create outline with 7 corners*
4,1,7,$1,$2,$3,$4,$5,$6,$7,$8,$9,$10,$11,$12,$13,$14,$1,$2,$15*%
%AMOutline8P*
0 Free polygon, 8 corners , with rotation*
0 The origin of the aperture is its center*
0 number of corners: always 8*
0 $1 to $16 corner X, Y*
0 $17 Rotation angle, in degrees counterclockwise*
0 create outline with 8 corners*
4,1,8,$1,$2,$3,$4,$5,$6,$7,$8,$9,$10,$11,$12,$13,$14,$15,$16,$1,$2,$17*%
%AMFreePoly0*
4,1,6,0.250000,0.000000,-0.250000,-0.625000,-0.500000,-0.625000,-0.500000,0.625000,-0.250000,0.625000,0.250000,0.000000,0.250000,0.000000,$1*%
%AMFreePoly1*
4,1,6,0.500000,-0.625000,-0.650000,-0.625000,-0.150000,0.000000,-0.650000,0.625000,0.500000,0.625000,0.500000,-0.625000,0.500000,-0.625000,$1*%
%AMFreePoly2*
4,1,6,0.600000,-0.200000,0.600000,-0.400000,-0.600000,-0.400000,-0.600000,-0.200000,0.000000,0.400000,0.600000,-0.200000,0.600000,-0.200000,$1*%
%AMFreePoly3*
4,1,6,0.600000,-1.000000,0.000000,-0.400000,-0.600000,-1.000000,-0.600000,0.250000,0.600000,0.250000,0.600000,-1.000000,0.600000,-1.000000,$1*%
G04 Aperture macros list end*
%TA.AperFunction,SMDPad,CuDef*%
%ADD10Outline5P,-1.300000X1.300000X1.300000X1.300000X1.300000X-1.300000X-0.117000X-1.300000X-1.300000X-0.117000X15.000000*%
%TD*%
%TA.AperFunction,SMDPad,CuDef*%
%ADD11RotRect,2.000000X2.600000X15.000000*%
%TD*%
%TA.AperFunction,SMDPad,CuDef*%
%ADD12Outline5P,-1.300000X1.300000X1.300000X1.300000X1.300000X-1.300000X-0.117000X-1.300000X-1.300000X-0.117000X12.000000*%
%TD*%
%TA.AperFunction,SMDPad,CuDef*%
%ADD13RotRect,2.000000X2.600000X12.000000*%
%TD*%
%TA.AperFunction,SMDPad,CuDef*%
%ADD14Outline5P,-1.300000X1.300000X1.300000X1.300000X1.300000X-1.300000X-0.117000X-1.300000X-1.300000X-0.117000X9.000000*%
%TD*%
%TA.AperFunction,SMDPad,CuDef*%
%ADD15RotRect,2.000000X2.600000X9.000000*%
%TD*%
%TA.AperFunction,SMDPad,CuDef*%
%ADD16Outline5P,-1.300000X1.300000X1.300000X1.300000X1.300000X-1.300000X-0.117000X-1.300000X-1.300000X-0.117000X6.000000*%
%TD*%
%TA.AperFunction,SMDPad,CuDef*%
%ADD17RotRect,2.000000X2.600000X6.000000*%
%TD*%
%TA.AperFunction,SMDPad,CuDef*%
%ADD18Outline5P,-1.300000X1.300000X1.300000X1.300000X1.300000X-1.300000X-0.117000X-1.300000X-1.300000X-0.117000X336.000000*%
%TD*%
%TA.AperFunction,SMDPad,CuDef*%
%ADD19RotRect,2.000000X2.600000X336.000000*%
%TD*%
%TA.AperFunction,SMDPad,CuDef*%
%ADD20Outline5P,-1.300000X1.300000X1.300000X1.300000X1.300000X-1.300000X-0.117000X-1.300000X-1.300000X-0.117000X326.000000*%
%TD*%
%TA.AperFunction,SMDPad,CuDef*%
%ADD21RotRect,2.000000X2.600000X326.000000*%
%TD*%
%TA.AperFunction,ComponentPad*%
%ADD22C,1.700000*%
%TD*%
%TA.AperFunction,ComponentPad*%
%ADD23C,0.800000*%
%TD*%
%TA.AperFunction,SMDPad,CuDef*%
%ADD24FreePoly0,6.000000*%
%TD*%
%TA.AperFunction,SMDPad,CuDef*%
%ADD25FreePoly1,6.000000*%
%TD*%
%TA.AperFunction,SMDPad,CuDef*%
%ADD26FreePoly1,186.000000*%
%TD*%
%TA.AperFunction,SMDPad,CuDef*%
%ADD27FreePoly0,186.000000*%
%TD*%
%TA.AperFunction,SMDPad,CuDef*%
%ADD28RotRect,1.550000X1.000000X186.000000*%
%TD*%
%TA.AperFunction,ComponentPad*%
%ADD29HorizOval,1.100000X0.248630X0.026132X-0.248630X-0.026132X0*%
%TD*%
%TA.AperFunction,ComponentPad*%
%ADD30Outline6P,-1.300000X0.540000X-0.940000X0.900000X0.940000X0.900000X1.300000X0.540000X1.300000X-0.900000X-1.300000X-0.900000X276.000000*%
%TD*%
%TA.AperFunction,ComponentPad*%
%ADD31Outline6P,-1.300000X0.900000X1.300000X0.900000X1.300000X-0.540000X0.940000X-0.900000X-0.940000X-0.900000X-1.300000X-0.540000X276.000000*%
%TD*%
%TA.AperFunction,ComponentPad*%
%ADD32HorizOval,1.200000X-0.028745X0.273494X0.028745X-0.273494X0*%
%TD*%
%TA.AperFunction,SMDPad,CuDef*%
%ADD33FreePoly2,6.000000*%
%TD*%
%TA.AperFunction,SMDPad,CuDef*%
%ADD34FreePoly3,6.000000*%
%TD*%
%TA.AperFunction,SMDPad,CuDef*%
%ADD35RotRect,1.000000X0.800000X6.000000*%
%TD*%
%TA.AperFunction,SMDPad,CuDef*%
%ADD36RotRect,0.700000X1.500000X6.000000*%
%TD*%
%TA.AperFunction,SMDPad,CuDef*%
%ADD37RotRect,0.600000X1.200000X276.000000*%
%TD*%
%TA.AperFunction,ComponentPad*%
%ADD38HorizOval,1.700000X0.000000X0.000000X0.000000X0.000000X0*%
%TD*%
%TA.AperFunction,ViaPad*%
%ADD39C,0.600000*%
%TD*%
%TA.AperFunction,Conductor*%
%ADD40C,0.200000*%
%TD*%
%TA.AperFunction,Conductor*%
%ADD41C,0.250000*%
%TD*%
G04 APERTURE END LIST*
D10*
%TO.P,S1,1*%
%TO.N,P21*%
X40896696Y-95679635D03*
D11*
%TO.P,S1,2*%
%TO.N,pinky_bottom*%
X52332763Y-94892957D03*
%TD*%
D10*
%TO.P,S2,1*%
%TO.N,P21*%
X36496772Y-79258896D03*
D11*
%TO.P,S2,2*%
%TO.N,pinky_home*%
X47932839Y-78472218D03*
%TD*%
D10*
%TO.P,S3,1*%
%TO.N,P21*%
X32096849Y-62838157D03*
D11*
%TO.P,S3,2*%
%TO.N,pinky_top*%
X43532916Y-62051479D03*
%TD*%
D10*
%TO.P,S4,1*%
%TO.N,P21*%
X27696925Y-46417418D03*
D11*
%TO.P,S4,2*%
%TO.N,pinky_number*%
X39132992Y-45630740D03*
%TD*%
D12*
%TO.P,S5,1*%
%TO.N,P20*%
X57312197Y-82312263D03*
D13*
%TO.P,S5,2*%
%TO.N,ring_bottom*%
X68773763Y-82125181D03*
%TD*%
D12*
%TO.P,S6,1*%
%TO.N,P20*%
X53777698Y-65683753D03*
D13*
%TO.P,S6,2*%
%TO.N,ring_home*%
X65239264Y-65496671D03*
%TD*%
D12*
%TO.P,S7,1*%
%TO.N,P20*%
X50243200Y-49055244D03*
D13*
%TO.P,S7,2*%
%TO.N,ring_top*%
X61704766Y-48868162D03*
%TD*%
D12*
%TO.P,S8,1*%
%TO.N,P20*%
X46708701Y-32426735D03*
D13*
%TO.P,S8,2*%
%TO.N,ring_number*%
X58170267Y-32239653D03*
%TD*%
D14*
%TO.P,S9,1*%
%TO.N,P19*%
X76066530Y-72400269D03*
D15*
%TO.P,S9,2*%
%TO.N,middle_bottom*%
X87522179Y-72813296D03*
%TD*%
D14*
%TO.P,S10,1*%
%TO.N,P19*%
X73604682Y-55578280D03*
D15*
%TO.P,S10,2*%
%TO.N,middle_home*%
X85060331Y-55991307D03*
%TD*%
D14*
%TO.P,S11,1*%
%TO.N,P19*%
X71142833Y-38756291D03*
D15*
%TO.P,S11,2*%
%TO.N,middle_top*%
X82598482Y-39169318D03*
%TD*%
D14*
%TO.P,S12,1*%
%TO.N,P19*%
X68680985Y-21934302D03*
D15*
%TO.P,S12,2*%
%TO.N,middle_number*%
X80136634Y-22347329D03*
%TD*%
D14*
%TO.P,S13,1*%
%TO.N,P19*%
X79919726Y-96089145D03*
D15*
%TO.P,S13,2*%
%TO.N,middle_additional*%
X91375375Y-96502172D03*
%TD*%
D16*
%TO.P,S14,1*%
%TO.N,P18*%
X96690394Y-74729379D03*
D17*
%TO.P,S14,2*%
%TO.N,index_bottom*%
X108108728Y-75741382D03*
%TD*%
D16*
%TO.P,S15,1*%
%TO.N,P18*%
X94913411Y-57822507D03*
D17*
%TO.P,S15,2*%
%TO.N,index_home*%
X106331745Y-58834510D03*
%TD*%
D16*
%TO.P,S16,1*%
%TO.N,P18*%
X93136427Y-40915635D03*
D17*
%TO.P,S16,2*%
%TO.N,index_top*%
X104554761Y-41927638D03*
%TD*%
D16*
%TO.P,S17,1*%
%TO.N,P18*%
X91359443Y-24008762D03*
D17*
%TO.P,S17,2*%
%TO.N,index_number*%
X102777777Y-25020765D03*
%TD*%
D16*
%TO.P,S18,1*%
%TO.N,P15*%
X116789889Y-74627853D03*
D17*
%TO.P,S18,2*%
%TO.N,inner_bottom*%
X128208223Y-75639856D03*
%TD*%
D16*
%TO.P,S19,1*%
%TO.N,P15*%
X115012906Y-57720981D03*
D17*
%TO.P,S19,2*%
%TO.N,inner_home*%
X126431240Y-58732984D03*
%TD*%
D16*
%TO.P,S20,1*%
%TO.N,P15*%
X113235922Y-40814109D03*
D17*
%TO.P,S20,2*%
%TO.N,inner_top*%
X124654256Y-41826112D03*
%TD*%
D16*
%TO.P,S21,1*%
%TO.N,P15*%
X111458938Y-23907237D03*
D17*
%TO.P,S21,2*%
%TO.N,inner_number*%
X122877272Y-24919240D03*
%TD*%
D16*
%TO.P,S22,1*%
%TO.N,P18*%
X104748095Y-93992646D03*
D17*
%TO.P,S22,2*%
%TO.N,space_top*%
X116166429Y-95004649D03*
%TD*%
D18*
%TO.P,S23,1*%
%TO.N,P1*%
X143389233Y-75009203D03*
D19*
%TO.P,S23,2*%
%TO.N,first_top*%
X152771798Y-81594790D03*
%TD*%
D18*
%TO.P,S24,1*%
%TO.N,P1*%
X134340954Y-92873376D03*
D19*
%TO.P,S24,2*%
%TO.N,first_bottom*%
X143723519Y-99458963D03*
%TD*%
D20*
%TO.P,S25,1*%
%TO.N,P3*%
X163860779Y-85447965D03*
D21*
%TO.P,S25,2*%
%TO.N,second_top*%
X171957227Y-93562768D03*
%TD*%
D20*
%TO.P,S26,1*%
%TO.N,P3*%
X152676921Y-102028717D03*
D21*
%TO.P,S26,2*%
%TO.N,second_bottom*%
X160773369Y-110143520D03*
%TD*%
D22*
%TO.P,MCU1,24*%
%TO.N,MCU1_24*%
X131295221Y-15035179D03*
%TO.P,MCU1,1*%
%TO.N,MCU1_1*%
X146451734Y-13442165D03*
D23*
%TO.P,MCU1,124*%
%TO.N,RAW*%
X135492103Y-14594069D03*
%TO.P,MCU1,101*%
%TO.N,P1*%
X142254852Y-13883275D03*
D24*
%TO.P,MCU1,24*%
%TO.N,MCU1_24*%
X133403607Y-14813578D03*
D25*
%TO.P,MCU1,101*%
%TO.N,P1*%
X134124635Y-14737795D03*
D26*
%TO.P,MCU1,124*%
%TO.N,RAW*%
X143622320Y-13739549D03*
D27*
%TO.P,MCU1,1*%
%TO.N,MCU1_1*%
X144343348Y-13663765D03*
D22*
%TO.P,MCU1,23*%
%TO.N,MCU1_23*%
X131560723Y-17561264D03*
%TO.P,MCU1,2*%
%TO.N,MCU1_2*%
X146717237Y-15968251D03*
D23*
%TO.P,MCU1,123*%
%TO.N,GND*%
X135757605Y-17120154D03*
%TO.P,MCU1,102*%
%TO.N,P0*%
X142520354Y-16409361D03*
D24*
%TO.P,MCU1,23*%
%TO.N,MCU1_23*%
X133669109Y-17339664D03*
D25*
%TO.P,MCU1,102*%
%TO.N,P0*%
X134390138Y-17263881D03*
D26*
%TO.P,MCU1,123*%
%TO.N,GND*%
X143887822Y-16265634D03*
D27*
%TO.P,MCU1,2*%
%TO.N,MCU1_2*%
X144608850Y-16189851D03*
D22*
%TO.P,MCU1,22*%
%TO.N,MCU1_22*%
X131826225Y-20087350D03*
%TO.P,MCU1,3*%
%TO.N,MCU1_3*%
X146982739Y-18494336D03*
D23*
%TO.P,MCU1,122*%
%TO.N,RST*%
X136023108Y-19646240D03*
%TO.P,MCU1,103*%
%TO.N,GND*%
X142785857Y-18935446D03*
D24*
%TO.P,MCU1,22*%
%TO.N,MCU1_22*%
X133934612Y-19865750D03*
D25*
%TO.P,MCU1,103*%
%TO.N,GND*%
X134655640Y-19789967D03*
D26*
%TO.P,MCU1,122*%
%TO.N,RST*%
X144153324Y-18791720D03*
D27*
%TO.P,MCU1,3*%
%TO.N,MCU1_3*%
X144874353Y-18715937D03*
D22*
%TO.P,MCU1,21*%
%TO.N,MCU1_21*%
X132091728Y-22613436D03*
%TO.P,MCU1,4*%
%TO.N,MCU1_4*%
X147248241Y-21020422D03*
D23*
%TO.P,MCU1,121*%
%TO.N,VCC*%
X136288610Y-22172326D03*
%TO.P,MCU1,104*%
%TO.N,GND*%
X143051359Y-21461532D03*
D24*
%TO.P,MCU1,21*%
%TO.N,MCU1_21*%
X134200114Y-22391835D03*
D25*
%TO.P,MCU1,104*%
%TO.N,GND*%
X134921142Y-22316052D03*
D26*
%TO.P,MCU1,121*%
%TO.N,VCC*%
X144418826Y-21317805D03*
D27*
%TO.P,MCU1,4*%
%TO.N,MCU1_4*%
X145139855Y-21242022D03*
D22*
%TO.P,MCU1,20*%
%TO.N,MCU1_20*%
X132357230Y-25139521D03*
%TO.P,MCU1,5*%
%TO.N,MCU1_5*%
X147513744Y-23546507D03*
D23*
%TO.P,MCU1,120*%
%TO.N,P21*%
X136554112Y-24698411D03*
%TO.P,MCU1,105*%
%TO.N,P2*%
X143316861Y-23987618D03*
D24*
%TO.P,MCU1,20*%
%TO.N,MCU1_20*%
X134465616Y-24917921D03*
D25*
%TO.P,MCU1,105*%
%TO.N,P2*%
X135186645Y-24842138D03*
D26*
%TO.P,MCU1,120*%
%TO.N,P21*%
X144684329Y-23843891D03*
D27*
%TO.P,MCU1,5*%
%TO.N,MCU1_5*%
X145405357Y-23768108D03*
D22*
%TO.P,MCU1,19*%
%TO.N,MCU1_19*%
X132622732Y-27665607D03*
%TO.P,MCU1,6*%
%TO.N,MCU1_6*%
X147779246Y-26072593D03*
D23*
%TO.P,MCU1,119*%
%TO.N,P20*%
X136819615Y-27224497D03*
%TO.P,MCU1,106*%
%TO.N,P3*%
X143582363Y-26513703D03*
D24*
%TO.P,MCU1,19*%
%TO.N,MCU1_19*%
X134731119Y-27444007D03*
D25*
%TO.P,MCU1,106*%
%TO.N,P3*%
X135452147Y-27368223D03*
D26*
%TO.P,MCU1,119*%
%TO.N,P20*%
X144949831Y-26369977D03*
D27*
%TO.P,MCU1,6*%
%TO.N,MCU1_6*%
X145670859Y-26294193D03*
D22*
%TO.P,MCU1,18*%
%TO.N,MCU1_18*%
X132888234Y-30191693D03*
%TO.P,MCU1,7*%
%TO.N,MCU1_7*%
X148044748Y-28598679D03*
D23*
%TO.P,MCU1,118*%
%TO.N,P19*%
X137085117Y-29750582D03*
%TO.P,MCU1,107*%
%TO.N,P4*%
X143847866Y-29039789D03*
D24*
%TO.P,MCU1,18*%
%TO.N,MCU1_18*%
X134996621Y-29970092D03*
D25*
%TO.P,MCU1,107*%
%TO.N,P4*%
X135717649Y-29894309D03*
D26*
%TO.P,MCU1,118*%
%TO.N,P19*%
X145215333Y-28896062D03*
D27*
%TO.P,MCU1,7*%
%TO.N,MCU1_7*%
X145936362Y-28820279D03*
D22*
%TO.P,MCU1,17*%
%TO.N,MCU1_17*%
X133153737Y-32717778D03*
%TO.P,MCU1,8*%
%TO.N,MCU1_8*%
X148310250Y-31124764D03*
D23*
%TO.P,MCU1,117*%
%TO.N,P18*%
X137350619Y-32276668D03*
%TO.P,MCU1,108*%
%TO.N,P5*%
X144113368Y-31565874D03*
D24*
%TO.P,MCU1,17*%
%TO.N,MCU1_17*%
X135262123Y-32496178D03*
D25*
%TO.P,MCU1,108*%
%TO.N,P5*%
X135983152Y-32420395D03*
D26*
%TO.P,MCU1,117*%
%TO.N,P18*%
X145480836Y-31422148D03*
D27*
%TO.P,MCU1,8*%
%TO.N,MCU1_8*%
X146201864Y-31346365D03*
D22*
%TO.P,MCU1,16*%
%TO.N,MCU1_16*%
X133419239Y-35243864D03*
%TO.P,MCU1,9*%
%TO.N,MCU1_9*%
X148575753Y-33650850D03*
D23*
%TO.P,MCU1,116*%
%TO.N,P15*%
X137616121Y-34802754D03*
%TO.P,MCU1,109*%
%TO.N,P6*%
X144378870Y-34091960D03*
D24*
%TO.P,MCU1,16*%
%TO.N,MCU1_16*%
X135527625Y-35022263D03*
D25*
%TO.P,MCU1,109*%
%TO.N,P6*%
X136248654Y-34946480D03*
D26*
%TO.P,MCU1,116*%
%TO.N,P15*%
X145746338Y-33948233D03*
D27*
%TO.P,MCU1,9*%
%TO.N,MCU1_9*%
X146467366Y-33872450D03*
D22*
%TO.P,MCU1,15*%
%TO.N,MCU1_15*%
X133684741Y-37769949D03*
%TO.P,MCU1,10*%
%TO.N,MCU1_10*%
X148841255Y-36176936D03*
D23*
%TO.P,MCU1,115*%
%TO.N,P14*%
X137881624Y-37328839D03*
%TO.P,MCU1,110*%
%TO.N,P7*%
X144644373Y-36618046D03*
D24*
%TO.P,MCU1,15*%
%TO.N,MCU1_15*%
X135793128Y-37548349D03*
D25*
%TO.P,MCU1,110*%
%TO.N,P7*%
X136514156Y-37472566D03*
D26*
%TO.P,MCU1,115*%
%TO.N,P14*%
X146011840Y-36474319D03*
D27*
%TO.P,MCU1,10*%
%TO.N,MCU1_10*%
X146732869Y-36398536D03*
D22*
%TO.P,MCU1,14*%
%TO.N,MCU1_14*%
X133950244Y-40296035D03*
%TO.P,MCU1,11*%
%TO.N,MCU1_11*%
X149106757Y-38703021D03*
D23*
%TO.P,MCU1,114*%
%TO.N,P16*%
X138147126Y-39854925D03*
%TO.P,MCU1,111*%
%TO.N,P8*%
X144909875Y-39144131D03*
D24*
%TO.P,MCU1,14*%
%TO.N,MCU1_14*%
X136058630Y-40074435D03*
D25*
%TO.P,MCU1,111*%
%TO.N,P8*%
X136779658Y-39998651D03*
D26*
%TO.P,MCU1,114*%
%TO.N,P16*%
X146277343Y-39000405D03*
D27*
%TO.P,MCU1,11*%
%TO.N,MCU1_11*%
X146998371Y-38924622D03*
D22*
%TO.P,MCU1,13*%
%TO.N,MCU1_13*%
X134215746Y-42822121D03*
%TO.P,MCU1,12*%
%TO.N,MCU1_12*%
X149372260Y-41229107D03*
D23*
%TO.P,MCU1,113*%
%TO.N,P10*%
X138412628Y-42381010D03*
%TO.P,MCU1,112*%
%TO.N,P9*%
X145175377Y-41670217D03*
D24*
%TO.P,MCU1,13*%
%TO.N,MCU1_13*%
X136324132Y-42600520D03*
D25*
%TO.P,MCU1,112*%
%TO.N,P9*%
X137045161Y-42524737D03*
D26*
%TO.P,MCU1,113*%
%TO.N,P10*%
X146542845Y-41526490D03*
D27*
%TO.P,MCU1,12*%
%TO.N,MCU1_12*%
X147263873Y-41450707D03*
%TD*%
D28*
%TO.P,RST1,1*%
%TO.N,RST*%
X120937368Y-12202351D03*
%TO.P,RST1,2*%
%TO.N,GND*%
X121115066Y-13893038D03*
%TO.P,RST1,3*%
%TO.N,RST*%
X126158608Y-11653576D03*
%TO.P,RST1,4*%
%TO.N,GND*%
X126336306Y-13344263D03*
%TD*%
D29*
%TO.P,RE1,A*%
%TO.N,P9*%
X146230557Y-66636179D03*
%TO.P,RE1,B*%
%TO.N,GND*%
X143744252Y-66897500D03*
%TO.P,RE1,C*%
%TO.N,P8*%
X141257948Y-67158821D03*
%TO.P,RE1,S1*%
%TO.N,P1*%
X139742285Y-52738254D03*
%TO.P,RE1,S2*%
%TO.N,P10*%
X144714894Y-52215612D03*
D30*
%TO.P,RE1,*%
%TO.N,*%
X137390966Y-60023945D03*
D31*
X148529612Y-58853227D03*
%TD*%
D32*
%TO.P,JST1,11*%
%TO.N,JST1_1*%
X155062049Y-53461372D03*
%TO.P,JST1,12*%
%TO.N,JST1_2*%
X153073005Y-53670428D03*
D33*
%TO.P,JST1,31*%
%TO.N,JST1_1*%
X154873898Y-51671232D03*
%TO.P,JST1,32*%
%TO.N,JST1_2*%
X152884854Y-51880289D03*
D34*
%TO.P,JST1,1*%
%TO.N,BAT_P*%
X152778653Y-50869855D03*
%TO.P,JST1,2*%
%TO.N,GND*%
X154767697Y-50660798D03*
%TD*%
D35*
%TO.P,PWR1,*%
%TO.N,*%
X110175026Y-15279177D03*
X109944019Y-13081284D03*
X117435036Y-14516119D03*
X117204028Y-12318226D03*
D36*
%TO.P,PWR1,1*%
%TO.N,BAT_P*%
X111635301Y-15779277D03*
%TO.P,PWR1,2*%
%TO.N,RAW*%
X114618866Y-15465691D03*
%TO.P,PWR1,3*%
%TO.N,N/C*%
X116110649Y-15308898D03*
%TD*%
D37*
%TO.P,DISP1,24*%
%TO.N,P6*%
X147087635Y-43791955D03*
%TO.P,DISP1,25*%
%TO.N,GND*%
X144561550Y-44057457D03*
%TO.P,DISP1,26*%
%TO.N,P5*%
X139509378Y-44588462D03*
%TO.P,DISP1,27*%
%TO.N,P4*%
X136983293Y-44853964D03*
%TO.P,DISP1,20*%
%TO.N,DISP1_5*%
X147181711Y-44687025D03*
%TO.P,DISP1,21*%
%TO.N,DISP1_4*%
X144655625Y-44952527D03*
%TO.P,DISP1,22*%
%TO.N,DISP1_2*%
X139603454Y-45483532D03*
%TO.P,DISP1,23*%
%TO.N,DISP1_1*%
X137077368Y-45749034D03*
D38*
%TO.P,DISP1,1*%
X137260293Y-47489447D03*
%TO.P,DISP1,2*%
%TO.N,DISP1_2*%
X139786379Y-47223945D03*
%TO.P,DISP1,3*%
%TO.N,VCC*%
X142312464Y-46958443D03*
%TO.P,DISP1,4*%
%TO.N,DISP1_4*%
X144838550Y-46692940D03*
D22*
%TO.P,DISP1,5*%
%TO.N,DISP1_5*%
X147364636Y-46427438D03*
%TD*%
D39*
%TO.N,VCC*%
X151066667Y-28500000D03*
%TO.N,BAT_P*%
X155500000Y-48500000D03*
%TO.N,GND*%
X154500000Y-48500000D03*
%TO.N,BAT_P*%
X154000000Y-50000000D03*
%TO.N,GND*%
X123500000Y-13642371D03*
%TO.N,RST*%
X123500000Y-11933007D03*
%TO.N,RAW*%
X113500000Y-13500000D03*
%TO.N,BAT_P*%
X110000000Y-16500000D03*
%TO.N,P21*%
X44597152Y-96836298D03*
%TO.N,pinky_bottom*%
X44804208Y-97609039D03*
%TO.N,P21*%
X40197229Y-80415559D03*
%TO.N,pinky_home*%
X40404284Y-81188300D03*
%TO.N,P21*%
X35797305Y-63994820D03*
%TO.N,pinky_top*%
X36004360Y-64767561D03*
%TO.N,P21*%
X31397381Y-47574081D03*
%TO.N,pinky_number*%
X31604436Y-48346822D03*
%TO.N,P20*%
X60947047Y-83661008D03*
%TO.N,ring_bottom*%
X61113377Y-84443526D03*
%TO.N,P20*%
X57412549Y-67032498D03*
%TO.N,ring_home*%
X57578878Y-67815017D03*
%TO.N,P20*%
X53878050Y-50403989D03*
%TO.N,ring_top*%
X54044379Y-51186507D03*
%TO.N,P20*%
X50343551Y-33775480D03*
%TO.N,ring_number*%
X50509881Y-34557998D03*
%TO.N,P19*%
X79625810Y-73937399D03*
%TO.N,middle_bottom*%
X79750958Y-74727550D03*
%TO.N,P19*%
X77163962Y-57115410D03*
%TO.N,middle_home*%
X77289110Y-57905561D03*
%TO.N,P19*%
X74702114Y-40293422D03*
%TO.N,middle_top*%
X74827261Y-41083573D03*
%TO.N,P19*%
X72240265Y-23471433D03*
%TO.N,middle_number*%
X72365413Y-24261584D03*
%TO.N,P19*%
X83479006Y-97626276D03*
%TO.N,middle_additional*%
X83604154Y-98416427D03*
%TO.N,P18*%
X100164351Y-76450682D03*
%TO.N,index_bottom*%
X100247973Y-77246299D03*
%TO.N,P18*%
X98387367Y-59543809D03*
%TO.N,index_home*%
X98470990Y-60339427D03*
%TO.N,P18*%
X96610383Y-42636937D03*
%TO.N,index_top*%
X96694006Y-43432555D03*
%TO.N,P18*%
X94833399Y-25730065D03*
%TO.N,index_number*%
X94917022Y-26525683D03*
%TO.N,P15*%
X120263846Y-76349156D03*
%TO.N,inner_bottom*%
X120347468Y-77144774D03*
%TO.N,P15*%
X118486862Y-59442284D03*
%TO.N,inner_home*%
X118570484Y-60237901D03*
%TO.N,P15*%
X116709878Y-42535412D03*
%TO.N,inner_top*%
X116793501Y-43331029D03*
%TO.N,P15*%
X114932894Y-25628539D03*
%TO.N,inner_number*%
X115016517Y-26424157D03*
%TO.N,P18*%
X108222051Y-95713949D03*
%TO.N,space_top*%
X108305674Y-96509566D03*
%TO.N,P1*%
X145537115Y-78236873D03*
%TO.N,first_top*%
X145211726Y-78967709D03*
%TO.N,P1*%
X136488837Y-96101045D03*
%TO.N,first_bottom*%
X136163448Y-96831882D03*
%TO.N,P3*%
X165415551Y-88999574D03*
%TO.N,second_top*%
X164968197Y-89662805D03*
%TO.N,P3*%
X154231693Y-105580326D03*
%TO.N,second_bottom*%
X153784339Y-106243556D03*
%TD*%
D40*
%TO.N,GND*%
X144500000Y-17500000D02*
X134500000Y-18500000D01*
X134500000Y-18500000D02*
X134655640Y-19789967D01*
D41*
X134921142Y-22316052D02*
X134655640Y-19789967D01*
D40*
%TO.N,P4*%
X150500000Y-29500000D02*
X146000000Y-30000000D01*
X144000000Y-30000000D02*
X143847866Y-29039789D01*
X152500000Y-44500000D02*
X150500000Y-29500000D01*
X146000000Y-43000000D02*
X146000000Y-49000000D01*
X146000000Y-49000000D02*
X152500000Y-44500000D01*
X138502928Y-43527854D02*
X146000000Y-43000000D01*
X146000000Y-30000000D02*
X144000000Y-30000000D01*
X136983293Y-44853964D02*
X138502928Y-43527854D01*
%TO.N,P5*%
X138500000Y-45000000D02*
X138500000Y-49000000D01*
X139509378Y-44588462D02*
X138500000Y-45000000D01*
X138500000Y-49000000D02*
X133313953Y-49500000D01*
%TO.N,VCC*%
X144500000Y-22500000D02*
X144418826Y-21317805D01*
X146500000Y-22500000D02*
X144500000Y-22500000D01*
X150500000Y-22000000D02*
X146500000Y-22500000D01*
X151066667Y-28500000D02*
X150500000Y-22000000D01*
%TO.N,P1*%
X132500000Y-70000000D02*
X128500000Y-16500000D01*
X128500000Y-16500000D02*
X134500000Y-16000000D01*
X142000000Y-69000000D02*
X132500000Y-70000000D01*
X143389233Y-75009203D02*
X142000000Y-69000000D01*
X134500000Y-16000000D02*
X134124635Y-14737795D01*
%TO.N,P5*%
X136000000Y-33500000D02*
X135983152Y-32420395D01*
X134500000Y-33500000D02*
X136000000Y-33500000D01*
X131500000Y-34500000D02*
X134500000Y-33500000D01*
X131000000Y-42000000D02*
X131500000Y-34500000D01*
%TO.N,P6*%
X144497597Y-35477138D02*
X144378870Y-34091960D01*
X147500000Y-35000000D02*
X144497597Y-35477138D01*
X151500000Y-43500000D02*
X150500000Y-34500000D01*
X147087635Y-43791955D02*
X151500000Y-43500000D01*
X150500000Y-34500000D02*
X147500000Y-35000000D01*
%TO.N,P5*%
X133000000Y-69000000D02*
X131000000Y-42000000D01*
X147000000Y-64500000D02*
X148000000Y-67500000D01*
X134500000Y-66500000D02*
X147000000Y-64500000D01*
X133313953Y-49500000D02*
X134500000Y-66500000D01*
X148000000Y-67500000D02*
X133000000Y-69000000D01*
%TO.N,P9*%
X137000000Y-43500000D02*
X137045161Y-42524737D01*
X132500000Y-44500000D02*
X137000000Y-43500000D01*
X134000000Y-67000000D02*
X132500000Y-44500000D01*
X146000000Y-65500000D02*
X134000000Y-67000000D01*
X146230557Y-66636179D02*
X146000000Y-65500000D01*
%TO.N,P8*%
X137000000Y-41000000D02*
X136779658Y-39998651D01*
X131500000Y-42000000D02*
X137000000Y-41000000D01*
X133500000Y-68000000D02*
X131500000Y-42000000D01*
X141257948Y-67158821D02*
X133500000Y-68000000D01*
%TO.N,GND*%
X153500000Y-16500000D02*
X144500000Y-17500000D01*
X157000000Y-46000000D02*
X153500000Y-16500000D01*
X144500000Y-17500000D02*
X143887822Y-16265634D01*
X154500000Y-48500000D02*
X157000000Y-46000000D01*
%TO.N,BAT_P*%
X112000000Y-17000000D02*
X111635301Y-15779277D01*
X127500000Y-16000000D02*
X112000000Y-17000000D01*
X128000000Y-12500000D02*
X127500000Y-16000000D01*
X153447632Y-9551591D02*
X128000000Y-12500000D01*
X157907782Y-48009692D02*
X153447632Y-9551591D01*
X155500000Y-48500000D02*
X157907782Y-48009692D01*
%TO.N,GND*%
X154500000Y-48500000D02*
X144500000Y-50500000D01*
%TO.N,BAT_P*%
X152778653Y-50869855D02*
X154000000Y-50000000D01*
%TO.N,GND*%
X154767697Y-50660798D02*
X154500000Y-48500000D01*
X143000000Y-44500000D02*
X144500000Y-50500000D01*
X144561550Y-44057457D02*
X143000000Y-44500000D01*
%TO.N,RST*%
X120937368Y-12202351D02*
X123500000Y-11933007D01*
%TO.N,GND*%
X123500000Y-13642371D02*
X126336306Y-13344263D01*
%TO.N,RST*%
X123500000Y-11933007D02*
X126158608Y-11653576D01*
%TO.N,GND*%
X121115066Y-13893038D02*
X123500000Y-13642371D01*
%TO.N,RAW*%
X114618866Y-14618866D02*
X113500000Y-13500000D01*
X114618866Y-15465691D02*
X114618866Y-14618866D01*
%TO.N,BAT_P*%
X110000000Y-16500000D02*
X110914578Y-16500000D01*
X110914578Y-16500000D02*
X111635301Y-15779277D01*
%TO.N,P3*%
X163500426Y-88999574D02*
X165415551Y-88999574D01*
X152676921Y-102028717D02*
X152676921Y-99823079D01*
X152676921Y-99823079D02*
X163500426Y-88999574D01*
%TO.N,P1*%
X144600447Y-78236873D02*
X145537115Y-78236873D01*
X134340954Y-92873376D02*
X134340954Y-88496366D01*
X134340954Y-88496366D02*
X144600447Y-78236873D01*
%TO.N,P15*%
X113235922Y-40814109D02*
X113235922Y-27325511D01*
X113235922Y-27325511D02*
X114932894Y-25628539D01*
X115012906Y-44232384D02*
X116709878Y-42535412D01*
X115012906Y-57720981D02*
X115012906Y-44232384D01*
X116789889Y-61139257D02*
X118486862Y-59442284D01*
X116789889Y-74627853D02*
X116789889Y-61139257D01*
%TO.N,P18*%
X93136427Y-27427037D02*
X94833399Y-25730065D01*
X93136427Y-40915635D02*
X93136427Y-27427037D01*
X94913411Y-44333909D02*
X96610383Y-42636937D01*
X94913411Y-57822507D02*
X94913411Y-44333909D01*
X96690394Y-61240782D02*
X98387367Y-59543809D01*
X96690394Y-74729379D02*
X96690394Y-61240782D01*
X98518398Y-78096635D02*
X100164351Y-76450682D01*
X98518398Y-87762949D02*
X98518398Y-78096635D01*
X104748095Y-93992646D02*
X98518398Y-87762949D01*
%TO.N,P19*%
X70795449Y-24916249D02*
X72240265Y-23471433D01*
X71142833Y-38756291D02*
X70795449Y-38408907D01*
X70795449Y-38408907D02*
X70795449Y-24916249D01*
X73257297Y-41738239D02*
X74702114Y-40293422D01*
X73257297Y-55230895D02*
X73257297Y-41738239D01*
X73604682Y-55578280D02*
X73257297Y-55230895D01*
X75719146Y-58560226D02*
X77163962Y-57115410D01*
X75719146Y-72052885D02*
X75719146Y-58560226D01*
X76066530Y-72400269D02*
X75719146Y-72052885D01*
X78180994Y-94350413D02*
X78180994Y-75382215D01*
X78180994Y-75382215D02*
X79625810Y-73937399D01*
X79919726Y-96089145D02*
X78180994Y-94350413D01*
%TO.N,P20*%
X49098209Y-35020822D02*
X50343551Y-33775480D01*
X50243200Y-49055244D02*
X49098209Y-47910253D01*
X49098209Y-47910253D02*
X49098209Y-35020822D01*
X52632708Y-51649331D02*
X53878050Y-50403989D01*
X52632708Y-64538763D02*
X52632708Y-51649331D01*
X53777698Y-65683753D02*
X52632708Y-64538763D01*
X56167206Y-81167272D02*
X56167206Y-68277841D01*
X56167206Y-68277841D02*
X57412549Y-67032498D01*
X57312197Y-82312263D02*
X56167206Y-81167272D01*
%TO.N,P21*%
X39149152Y-93932091D02*
X39149152Y-81463636D01*
X39149152Y-81463636D02*
X40197229Y-80415559D01*
X40896696Y-95679635D02*
X39149152Y-93932091D01*
X34749229Y-77511353D02*
X34749229Y-65042896D01*
X34749229Y-65042896D02*
X35797305Y-63994820D01*
X36496772Y-79258896D02*
X34749229Y-77511353D01*
X30349305Y-48622157D02*
X31397381Y-47574081D01*
X30349305Y-61090613D02*
X30349305Y-48622157D01*
X32096849Y-62838157D02*
X30349305Y-61090613D01*
X43438041Y-97146881D02*
X44597152Y-96836298D01*
X40896696Y-95679635D02*
X43438041Y-97146881D01*
%TO.N,pinky_bottom*%
X47176597Y-98193950D02*
X45732623Y-97360271D01*
X51311565Y-97085989D02*
X47176597Y-98193950D01*
X45732623Y-97360271D02*
X44804208Y-97609039D01*
X52622541Y-94815312D02*
X51311565Y-97085989D01*
%TO.N,P21*%
X39038118Y-80726142D02*
X40197229Y-80415559D01*
X36496772Y-79258896D02*
X39038118Y-80726142D01*
%TO.N,pinky_home*%
X42776673Y-81773211D02*
X41332699Y-80939532D01*
X46911641Y-80665250D02*
X42776673Y-81773211D01*
X41332699Y-80939532D02*
X40404284Y-81188300D01*
X48222617Y-78394573D02*
X46911641Y-80665250D01*
%TO.N,P21*%
X34638194Y-64305403D02*
X35797305Y-63994820D01*
X32096848Y-62838157D02*
X34638194Y-64305403D01*
%TO.N,pinky_top*%
X38376749Y-65352472D02*
X36932775Y-64518793D01*
X42511717Y-64244511D02*
X38376749Y-65352472D01*
X36932775Y-64518793D02*
X36004360Y-64767561D01*
X43822693Y-61973834D02*
X42511717Y-64244511D01*
%TO.N,P21*%
X30238270Y-47884664D02*
X31397381Y-47574081D01*
X27696924Y-46417418D02*
X30238270Y-47884664D01*
%TO.N,pinky_number*%
X33976826Y-48931733D02*
X32532851Y-48098054D01*
X38111794Y-47823772D02*
X33976826Y-48931733D01*
X32532851Y-48098054D02*
X31604436Y-48346822D01*
X39422770Y-45553095D02*
X38111794Y-47823772D01*
%TO.N,P20*%
X59773270Y-83910502D02*
X60947047Y-83661008D01*
X57312197Y-82312262D02*
X59773270Y-83910502D01*
%TO.N,ring_bottom*%
X63451903Y-85151796D02*
X62053539Y-84243688D01*
X67639190Y-84261761D02*
X63451903Y-85151796D01*
X62053539Y-84243688D02*
X61113377Y-84443526D01*
X69067208Y-82062807D02*
X67639190Y-84261761D01*
%TO.N,P20*%
X56238771Y-67281993D02*
X57412549Y-67032498D01*
X53777698Y-65683753D02*
X56238771Y-67281993D01*
%TO.N,ring_home*%
X59917404Y-68523287D02*
X58519040Y-67615179D01*
X64104692Y-67633252D02*
X59917404Y-68523287D01*
X58519040Y-67615179D02*
X57578878Y-67815017D01*
X65532709Y-65434298D02*
X64104692Y-67633252D01*
%TO.N,P20*%
X52704273Y-50653483D02*
X53878050Y-50403989D01*
X50243200Y-49055244D02*
X52704273Y-50653483D01*
%TO.N,ring_top*%
X56382905Y-51894778D02*
X54984541Y-50986670D01*
X60570193Y-51004742D02*
X56382905Y-51894778D01*
X54984541Y-50986670D02*
X54044379Y-51186507D01*
X61998210Y-48805789D02*
X60570193Y-51004742D01*
%TO.N,P20*%
X49169774Y-34024974D02*
X50343551Y-33775480D01*
X46708701Y-32426735D02*
X49169774Y-34024974D01*
%TO.N,ring_number*%
X52848407Y-35266269D02*
X51450043Y-34358161D01*
X57035694Y-34376233D02*
X52848407Y-35266269D01*
X51450043Y-34358161D02*
X50509881Y-34557998D01*
X58463711Y-32177279D02*
X57035694Y-34376233D01*
%TO.N,P19*%
X78440584Y-74125121D02*
X79625810Y-73937399D01*
X76066529Y-72400269D02*
X78440584Y-74125121D01*
%TO.N,middle_bottom*%
X82049211Y-75557239D02*
X80700290Y-74577190D01*
X86277341Y-74887569D02*
X82049211Y-75557239D01*
X80700290Y-74577190D02*
X79750958Y-74727550D01*
X87818486Y-72766365D02*
X86277341Y-74887569D01*
%TO.N,P19*%
X75978736Y-57303132D02*
X77163962Y-57115410D01*
X73604681Y-55578280D02*
X75978736Y-57303132D01*
%TO.N,middle_home*%
X79587363Y-58735250D02*
X78238442Y-57755202D01*
X83815493Y-58065580D02*
X79587363Y-58735250D01*
X78238442Y-57755202D02*
X77289110Y-57905561D01*
X85356637Y-55944376D02*
X83815493Y-58065580D01*
%TO.N,P19*%
X73516888Y-40481143D02*
X74702114Y-40293422D01*
X71142833Y-38756291D02*
X73516888Y-40481143D01*
%TO.N,middle_top*%
X77125515Y-41913261D02*
X75776594Y-40933213D01*
X81353644Y-41243591D02*
X77125515Y-41913261D01*
X75776594Y-40933213D02*
X74827261Y-41083573D01*
X82894789Y-39122388D02*
X81353644Y-41243591D01*
%TO.N,P19*%
X71055039Y-23659154D02*
X72240265Y-23471433D01*
X68680985Y-21934303D02*
X71055039Y-23659154D01*
%TO.N,middle_number*%
X74663666Y-25091273D02*
X73314746Y-24111224D01*
X78891796Y-24421603D02*
X74663666Y-25091273D01*
X73314746Y-24111224D02*
X72365413Y-24261584D01*
X80432941Y-22300399D02*
X78891796Y-24421603D01*
%TO.N,P19*%
X82293780Y-97813997D02*
X83479006Y-97626276D01*
X79919725Y-96089145D02*
X82293780Y-97813997D01*
%TO.N,middle_additional*%
X85902407Y-99246115D02*
X84553486Y-98266067D01*
X90130537Y-98576445D02*
X85902407Y-99246115D01*
X84553486Y-98266067D02*
X83604154Y-98416427D01*
X91671682Y-96455242D02*
X90130537Y-98576445D01*
%TO.N,P18*%
X98970924Y-76576116D02*
X100164351Y-76450682D01*
X96690395Y-74729379D02*
X98970924Y-76576116D01*
%TO.N,index_bottom*%
X102499654Y-78195132D02*
X101203874Y-77145830D01*
X106757038Y-77747663D02*
X102499654Y-78195132D01*
X101203874Y-77145830D02*
X100247973Y-77246299D01*
X108407085Y-75710024D02*
X106757038Y-77747663D01*
%TO.N,P18*%
X97193940Y-59669244D02*
X98387367Y-59543809D01*
X94913411Y-57822507D02*
X97193940Y-59669244D01*
%TO.N,index_home*%
X100722671Y-61288260D02*
X99426890Y-60238958D01*
X104980054Y-60840791D02*
X100722671Y-61288260D01*
X99426890Y-60238958D02*
X98470990Y-60339427D01*
X106630101Y-58803152D02*
X104980054Y-60840791D01*
%TO.N,P18*%
X95416957Y-42762371D02*
X96610383Y-42636937D01*
X93136427Y-40915635D02*
X95416957Y-42762371D01*
%TO.N,index_top*%
X98945687Y-44381388D02*
X97649906Y-43332086D01*
X103203070Y-43933919D02*
X98945687Y-44381388D01*
X97649906Y-43332086D02*
X96694006Y-43432555D01*
X104853118Y-41896279D02*
X103203070Y-43933919D01*
%TO.N,P18*%
X93639973Y-25855499D02*
X94833399Y-25730065D01*
X91359443Y-24008763D02*
X93639973Y-25855499D01*
%TO.N,index_number*%
X97168703Y-27474516D02*
X95872922Y-26425213D01*
X101426086Y-27027047D02*
X97168703Y-27474516D01*
X95872922Y-26425213D02*
X94917022Y-26525683D01*
X103076134Y-24989407D02*
X101426086Y-27027047D01*
%TO.N,P15*%
X119070419Y-76474590D02*
X120263846Y-76349156D01*
X116789890Y-74627854D02*
X119070419Y-76474590D01*
%TO.N,inner_bottom*%
X122599149Y-78093607D02*
X121303369Y-77044304D01*
X126856533Y-77646138D02*
X122599149Y-78093607D01*
X121303369Y-77044304D02*
X120347468Y-77144774D01*
X128506580Y-75608498D02*
X126856533Y-77646138D01*
%TO.N,P15*%
X117293435Y-59567718D02*
X118486862Y-59442284D01*
X115012906Y-57720982D02*
X117293435Y-59567718D01*
%TO.N,inner_home*%
X120822166Y-61186734D02*
X119526385Y-60137432D01*
X125079549Y-60739265D02*
X120822166Y-61186734D01*
X119526385Y-60137432D02*
X118570484Y-60237901D01*
X126729596Y-58701626D02*
X125079549Y-60739265D01*
%TO.N,P15*%
X115516451Y-42660846D02*
X116709878Y-42535412D01*
X113235922Y-40814109D02*
X115516451Y-42660846D01*
%TO.N,inner_top*%
X119045182Y-44279862D02*
X117749401Y-43230560D01*
X123302565Y-43832393D02*
X119045182Y-44279862D01*
X117749401Y-43230560D02*
X116793501Y-43331029D01*
X124952612Y-41794754D02*
X123302565Y-43832393D01*
%TO.N,P15*%
X113739468Y-25753974D02*
X114932894Y-25628539D01*
X111458938Y-23907237D02*
X113739468Y-25753974D01*
%TO.N,inner_number*%
X117268198Y-27372990D02*
X115972417Y-26323688D01*
X121525581Y-26925521D02*
X117268198Y-27372990D01*
X115972417Y-26323688D02*
X115016517Y-26424157D01*
X123175629Y-24887882D02*
X121525581Y-26925521D01*
%TO.N,P18*%
X107028625Y-95839383D02*
X108222051Y-95713949D01*
X104748096Y-93992646D02*
X107028625Y-95839383D01*
%TO.N,space_top*%
X110557355Y-97458399D02*
X109261575Y-96409097D01*
X114814738Y-97010930D02*
X110557355Y-97458399D01*
X109261575Y-96409097D02*
X108305674Y-96509566D01*
X116464786Y-94973291D02*
X114814738Y-97010930D01*
%TO.N,P1*%
X144440861Y-77748789D02*
X145537115Y-78236873D01*
X143389233Y-75009203D02*
X144440861Y-77748789D01*
%TO.N,first_top*%
X146687322Y-80915263D02*
X146089795Y-79358650D01*
X150598059Y-82656435D02*
X146687322Y-80915263D01*
X146089795Y-79358650D02*
X145211726Y-78967709D01*
X153045862Y-81716812D02*
X150598059Y-82656435D01*
%TO.N,P1*%
X135392582Y-95612961D02*
X136488837Y-96101045D01*
X134340954Y-92873376D02*
X135392582Y-95612961D01*
%TO.N,first_bottom*%
X137639044Y-98779435D02*
X137041516Y-97222823D01*
X141549781Y-100520608D02*
X137639044Y-98779435D01*
X137041516Y-97222823D02*
X136163448Y-96831882D01*
X143997584Y-99580984D02*
X141549781Y-100520608D01*
%TO.N,P3*%
X164420706Y-88328543D02*
X165415551Y-88999574D01*
X163860778Y-85447965D02*
X164420706Y-88328543D01*
%TO.N,second_top*%
X166083186Y-91837005D02*
X165765040Y-90200282D01*
X169632159Y-94230817D02*
X166083186Y-91837005D01*
X165765040Y-90200282D02*
X164968197Y-89662805D01*
X172205938Y-93730525D02*
X169632159Y-94230817D01*
%TO.N,P3*%
X153236848Y-104909294D02*
X154231693Y-105580326D01*
X152676920Y-102028716D02*
X153236848Y-104909294D01*
%TO.N,second_bottom*%
X154899328Y-108417757D02*
X154581181Y-106781033D01*
X158448301Y-110811569D02*
X154899328Y-108417757D01*
X154581181Y-106781033D02*
X153784339Y-106243556D01*
X161022080Y-110311277D02*
X158448301Y-110811569D01*
D41*
%TO.N,MCU1_24*%
X131295221Y-15035179D02*
X133403607Y-14813579D01*
%TO.N,MCU1_1*%
X146451735Y-13442165D02*
X144343348Y-13663766D01*
%TO.N,P1*%
X136307093Y-14739677D02*
X142050154Y-14136057D01*
X134124636Y-14737795D02*
X134472415Y-14701242D01*
X135269226Y-15346488D02*
X135866546Y-15283707D01*
X134472415Y-14701242D02*
X135269226Y-15346488D01*
X135866546Y-15283707D02*
X136307093Y-14739677D01*
%TO.N,RAW*%
X143622320Y-13739549D02*
X143274540Y-13776102D01*
X141430962Y-13748658D02*
X135687902Y-14352278D01*
X143274540Y-13776102D02*
X142477729Y-13130857D01*
X142477729Y-13130857D02*
X141880409Y-13193637D01*
X141880409Y-13193637D02*
X141430962Y-13748658D01*
%TO.N,MCU1_23*%
X131560723Y-17561265D02*
X133669109Y-17339664D01*
%TO.N,MCU1_2*%
X146717237Y-15968251D02*
X144608850Y-16189851D01*
%TO.N,P0*%
X136572595Y-17265762D02*
X142315656Y-16662143D01*
X134390138Y-17263881D02*
X134737917Y-17227328D01*
X135534729Y-17872573D02*
X136132049Y-17809792D01*
X134737917Y-17227328D02*
X135534729Y-17872573D01*
X136132049Y-17809792D02*
X136572595Y-17265762D01*
%TO.N,GND*%
X143887822Y-16265634D02*
X143540043Y-16302187D01*
X141696465Y-16274743D02*
X135953404Y-16878363D01*
X143540043Y-16302187D02*
X142743231Y-15656942D01*
X142743231Y-15656942D02*
X142145911Y-15719723D01*
X142145911Y-15719723D02*
X141696465Y-16274743D01*
%TO.N,MCU1_22*%
X131826225Y-20087350D02*
X133934612Y-19865750D01*
%TO.N,MCU1_3*%
X146982739Y-18494336D02*
X144874353Y-18715937D01*
%TO.N,GND*%
X136838097Y-19791848D02*
X142581158Y-19188228D01*
X134655640Y-19789967D02*
X135003419Y-19753414D01*
X135800231Y-20398659D02*
X136397551Y-20335878D01*
X135003419Y-19753414D02*
X135800231Y-20398659D01*
X136397551Y-20335878D02*
X136838097Y-19791848D01*
%TO.N,RST*%
X144153324Y-18791720D02*
X143805545Y-18828273D01*
X141961967Y-18800829D02*
X136218906Y-19404449D01*
X143805545Y-18828273D02*
X143008733Y-18183028D01*
X143008733Y-18183028D02*
X142411414Y-18245809D01*
X142411414Y-18245809D02*
X141961967Y-18800829D01*
%TO.N,MCU1_21*%
X132091728Y-22613436D02*
X134200114Y-22391835D01*
%TO.N,MCU1_4*%
X147248241Y-21020422D02*
X145139855Y-21242022D01*
%TO.N,GND*%
X137103600Y-22317934D02*
X142846660Y-21714314D01*
X134921142Y-22316052D02*
X135268922Y-22279499D01*
X136065733Y-22924744D02*
X136663053Y-22861964D01*
X135268922Y-22279499D02*
X136065733Y-22924744D01*
X136663053Y-22861964D02*
X137103600Y-22317934D01*
%TO.N,VCC*%
X144418827Y-21317806D02*
X144071047Y-21354359D01*
X142227469Y-21326915D02*
X136484409Y-21930535D01*
X144071047Y-21354359D02*
X143274236Y-20709113D01*
X143274236Y-20709113D02*
X142676916Y-20771894D01*
X142676916Y-20771894D02*
X142227469Y-21326915D01*
%TO.N,MCU1_20*%
X132357230Y-25139521D02*
X134465616Y-24917921D01*
%TO.N,MCU1_5*%
X147513744Y-23546508D02*
X145405357Y-23768108D01*
%TO.N,P2*%
X137369102Y-24844019D02*
X143112163Y-24240399D01*
X135186645Y-24842138D02*
X135534424Y-24805585D01*
X136331236Y-25450830D02*
X136928555Y-25388049D01*
X135534424Y-24805585D02*
X136331236Y-25450830D01*
X136928555Y-25388049D02*
X137369102Y-24844019D01*
%TO.N,P21*%
X144684329Y-23843891D02*
X144336550Y-23880444D01*
X142492971Y-23853000D02*
X136749911Y-24456620D01*
X144336550Y-23880444D02*
X143539738Y-23235199D01*
X143539738Y-23235199D02*
X142942418Y-23297980D01*
X142942418Y-23297980D02*
X142492971Y-23853000D01*
%TO.N,MCU1_19*%
X132622732Y-27665607D02*
X134731119Y-27444007D01*
%TO.N,MCU1_6*%
X147779246Y-26072593D02*
X145670859Y-26294194D01*
%TO.N,P3*%
X137634604Y-27370105D02*
X143377665Y-26766485D01*
X135452147Y-27368224D02*
X135799926Y-27331670D01*
X136596738Y-27976916D02*
X137194058Y-27914135D01*
X135799926Y-27331670D02*
X136596738Y-27976916D01*
X137194058Y-27914135D02*
X137634604Y-27370105D01*
%TO.N,P20*%
X144949831Y-26369977D02*
X144602052Y-26406530D01*
X142758474Y-26379086D02*
X137015413Y-26982706D01*
X144602052Y-26406530D02*
X143805240Y-25761285D01*
X143805240Y-25761285D02*
X143207921Y-25824065D01*
X143207921Y-25824065D02*
X142758474Y-26379086D01*
%TO.N,MCU1_18*%
X132888235Y-30191693D02*
X134996621Y-29970092D01*
%TO.N,MCU1_7*%
X148044748Y-28598679D02*
X145936362Y-28820279D01*
%TO.N,P4*%
X137900107Y-29896191D02*
X143643167Y-29292571D01*
X135717649Y-29894309D02*
X136065429Y-29857756D01*
X136862240Y-30503001D02*
X137459560Y-30440220D01*
X136065429Y-29857756D02*
X136862240Y-30503001D01*
X137459560Y-30440220D02*
X137900107Y-29896191D01*
%TO.N,P19*%
X145215333Y-28896062D02*
X144867554Y-28932615D01*
X143023976Y-28905171D02*
X137280916Y-29508791D01*
X144867554Y-28932615D02*
X144070743Y-28287370D01*
X144070743Y-28287370D02*
X143473423Y-28350151D01*
X143473423Y-28350151D02*
X143023976Y-28905171D01*
%TO.N,MCU1_17*%
X133153737Y-32717778D02*
X135262123Y-32496178D01*
%TO.N,MCU1_8*%
X148310251Y-31124764D02*
X146201864Y-31346365D01*
%TO.N,P5*%
X138165609Y-32422276D02*
X143908670Y-31818656D01*
X135983152Y-32420395D02*
X136330931Y-32383842D01*
X137127742Y-33029087D02*
X137725062Y-32966306D01*
X136330931Y-32383842D02*
X137127742Y-33029087D01*
X137725062Y-32966306D02*
X138165609Y-32422276D01*
%TO.N,P18*%
X145480836Y-31422148D02*
X145133056Y-31458701D01*
X143289478Y-31431257D02*
X137546418Y-32034877D01*
X145133056Y-31458701D02*
X144336245Y-30813456D01*
X144336245Y-30813456D02*
X143738925Y-30876237D01*
X143738925Y-30876237D02*
X143289478Y-31431257D01*
%TO.N,MCU1_16*%
X133419239Y-35243864D02*
X135527626Y-35022264D01*
%TO.N,MCU1_9*%
X148575753Y-33650850D02*
X146467366Y-33872450D01*
%TO.N,P6*%
X138431111Y-34948362D02*
X144174172Y-34344742D01*
X136248654Y-34946480D02*
X136596433Y-34909927D01*
X137393245Y-35555173D02*
X137990565Y-35492392D01*
X136596433Y-34909927D02*
X137393245Y-35555173D01*
X137990565Y-35492392D02*
X138431111Y-34948362D01*
%TO.N,P15*%
X145746338Y-33948234D02*
X145398559Y-33984787D01*
X143554981Y-33957343D02*
X137811920Y-34560963D01*
X145398559Y-33984787D02*
X144601747Y-33339541D01*
X144601747Y-33339541D02*
X144004427Y-33402322D01*
X144004427Y-33402322D02*
X143554981Y-33957343D01*
%TO.N,MCU1_15*%
X133684741Y-37769949D02*
X135793128Y-37548349D01*
%TO.N,MCU1_10*%
X148841255Y-36176936D02*
X146732869Y-36398536D01*
%TO.N,P7*%
X138696614Y-37474447D02*
X144439674Y-36870827D01*
X136514156Y-37472566D02*
X136861936Y-37436013D01*
X137658747Y-38081258D02*
X138256067Y-38018477D01*
X136861936Y-37436013D02*
X137658747Y-38081258D01*
X138256067Y-38018477D02*
X138696614Y-37474447D01*
%TO.N,P14*%
X146011840Y-36474319D02*
X145664061Y-36510872D01*
X143820483Y-36483428D02*
X138077422Y-37087048D01*
X145664061Y-36510872D02*
X144867250Y-35865627D01*
X144867250Y-35865627D02*
X144269930Y-35928408D01*
X144269930Y-35928408D02*
X143820483Y-36483428D01*
%TO.N,MCU1_14*%
X133950244Y-40296035D02*
X136058630Y-40074435D01*
%TO.N,MCU1_11*%
X149106757Y-38703021D02*
X146998371Y-38924622D01*
%TO.N,P8*%
X138962116Y-40000533D02*
X144705177Y-39396913D01*
X136779658Y-39998652D02*
X137127438Y-39962099D01*
X137924249Y-40607344D02*
X138521569Y-40544563D01*
X137127438Y-39962099D02*
X137924249Y-40607344D01*
X138521569Y-40544563D02*
X138962116Y-40000533D01*
%TO.N,P16*%
X146277343Y-39000405D02*
X145929563Y-39036958D01*
X144085985Y-39009514D02*
X138342925Y-39613134D01*
X145929563Y-39036958D02*
X145132752Y-38391713D01*
X145132752Y-38391713D02*
X144535432Y-38454493D01*
X144535432Y-38454493D02*
X144085985Y-39009514D01*
%TO.N,MCU1_13*%
X134215746Y-42822121D02*
X136324133Y-42600520D01*
%TO.N,MCU1_12*%
X149372260Y-41229107D02*
X147263873Y-41450707D01*
%TO.N,P9*%
X139227618Y-42526619D02*
X144970679Y-41922999D01*
X137045161Y-42524737D02*
X137392940Y-42488184D01*
X138189752Y-43133429D02*
X138787072Y-43070649D01*
X137392940Y-42488184D02*
X138189752Y-43133429D01*
X138787072Y-43070649D02*
X139227618Y-42526619D01*
%TO.N,P10*%
X146542845Y-41526490D02*
X146195066Y-41563044D01*
X144351488Y-41535600D02*
X138608427Y-42139220D01*
X146195066Y-41563044D02*
X145398254Y-40917798D01*
X145398254Y-40917798D02*
X144800934Y-40980579D01*
X144800934Y-40980579D02*
X144351488Y-41535600D01*
%TO.N,JST1_1*%
X154873898Y-51671232D02*
X155062049Y-53461372D01*
%TO.N,JST1_2*%
X152884854Y-51880289D02*
X153073005Y-53670429D01*
%TO.N,DISP1_1*%
X137260293Y-47489447D02*
X137077368Y-45749034D01*
%TO.N,DISP1_2*%
X139786378Y-47223945D02*
X139603454Y-45483531D01*
%TO.N,DISP1_4*%
X144838550Y-46692940D02*
X144655625Y-44952527D01*
%TO.N,DISP1_5*%
X147364635Y-46427438D02*
X147181711Y-44687024D01*
%TD*%
M02*
