%TF.GenerationSoftware,KiCad,Pcbnew,9.0.2*%
%TF.CreationDate,2025-05-27T05:35:02-06:00*%
%TF.ProjectId,keeb,6b656562-2e6b-4696-9361-645f70636258,v1.0.0*%
%TF.SameCoordinates,Original*%
%TF.FileFunction,Legend,Bot*%
%TF.FilePolarity,Positive*%
%FSLAX46Y46*%
G04 Gerber Fmt 4.6, Leading zero omitted, Abs format (unit mm)*
G04 Created by KiCad (PCBNEW 9.0.2) date 2025-05-27 05:35:02*
%MOMM*%
%LPD*%
G01*
G04 APERTURE LIST*
%ADD10C,0.150000*%
%ADD11C,0.120000*%
%ADD12C,0.100000*%
G04 APERTURE END LIST*
D10*
X105369878Y-18921222D02*
X105300193Y-18258207D01*
X105310148Y-18352923D02*
X105257812Y-18310543D01*
X105257812Y-18310543D02*
X105158118Y-18273140D01*
X105158118Y-18273140D02*
X105016043Y-18288072D01*
X105016043Y-18288072D02*
X104926305Y-18345386D01*
X104926305Y-18345386D02*
X104888902Y-18445079D01*
X104888902Y-18445079D02*
X104943655Y-18966019D01*
X104888902Y-18445079D02*
X104831588Y-18355341D01*
X104831588Y-18355341D02*
X104731894Y-18317938D01*
X104731894Y-18317938D02*
X104589820Y-18332870D01*
X104589820Y-18332870D02*
X104500081Y-18390183D01*
X104500081Y-18390183D02*
X104462678Y-18489877D01*
X104462678Y-18489877D02*
X104517431Y-19010817D01*
X103617626Y-19105391D02*
X103562873Y-18584451D01*
X103562873Y-18584451D02*
X103600276Y-18484757D01*
X103600276Y-18484757D02*
X103690015Y-18427443D01*
X103690015Y-18427443D02*
X103879447Y-18407533D01*
X103879447Y-18407533D02*
X103979141Y-18444936D01*
X103612648Y-19058033D02*
X103712342Y-19095436D01*
X103712342Y-19095436D02*
X103949133Y-19070548D01*
X103949133Y-19070548D02*
X104038872Y-19013235D01*
X104038872Y-19013235D02*
X104076275Y-18913541D01*
X104076275Y-18913541D02*
X104066320Y-18818824D01*
X104066320Y-18818824D02*
X104009007Y-18729086D01*
X104009007Y-18729086D02*
X103909313Y-18691682D01*
X103909313Y-18691682D02*
X103672522Y-18716570D01*
X103672522Y-18716570D02*
X103572828Y-18679167D01*
X102717820Y-19199964D02*
X102613292Y-18205442D01*
X102712842Y-19152606D02*
X102812536Y-19190009D01*
X102812536Y-19190009D02*
X103001969Y-19170099D01*
X103001969Y-19170099D02*
X103091708Y-19112786D01*
X103091708Y-19112786D02*
X103134089Y-19060450D01*
X103134089Y-19060450D02*
X103171492Y-18960756D01*
X103171492Y-18960756D02*
X103141626Y-18676607D01*
X103141626Y-18676607D02*
X103084313Y-18586868D01*
X103084313Y-18586868D02*
X103031977Y-18544487D01*
X103031977Y-18544487D02*
X102932284Y-18507084D01*
X102932284Y-18507084D02*
X102742851Y-18526994D01*
X102742851Y-18526994D02*
X102653112Y-18584308D01*
X101860395Y-19242202D02*
X101960089Y-19279605D01*
X101960089Y-19279605D02*
X102149522Y-19259695D01*
X102149522Y-19259695D02*
X102239261Y-19202381D01*
X102239261Y-19202381D02*
X102276664Y-19102687D01*
X102276664Y-19102687D02*
X102236843Y-18723822D01*
X102236843Y-18723822D02*
X102179530Y-18634083D01*
X102179530Y-18634083D02*
X102079836Y-18596680D01*
X102079836Y-18596680D02*
X101890403Y-18616590D01*
X101890403Y-18616590D02*
X101800665Y-18673904D01*
X101800665Y-18673904D02*
X101763261Y-18773597D01*
X101763261Y-18773597D02*
X101773217Y-18868314D01*
X101773217Y-18868314D02*
X102256753Y-18913255D01*
X100659090Y-18746006D02*
X100539343Y-19428931D01*
X100539343Y-19428931D02*
X100300135Y-18975260D01*
X100300135Y-18975260D02*
X100160478Y-19468752D01*
X100160478Y-19468752D02*
X99901359Y-18825647D01*
X99592179Y-19528482D02*
X99522494Y-18865468D01*
X99487651Y-18533960D02*
X99539987Y-18576341D01*
X99539987Y-18576341D02*
X99497606Y-18628677D01*
X99497606Y-18628677D02*
X99445270Y-18586296D01*
X99445270Y-18586296D02*
X99487651Y-18533960D01*
X99487651Y-18533960D02*
X99497606Y-18628677D01*
X99190987Y-18900310D02*
X98812121Y-18940131D01*
X99014070Y-18583736D02*
X99103665Y-19436183D01*
X99103665Y-19436183D02*
X99066262Y-19535877D01*
X99066262Y-19535877D02*
X98976523Y-19593190D01*
X98976523Y-19593190D02*
X98881807Y-19603145D01*
X98550299Y-19637988D02*
X98445771Y-18643466D01*
X98124076Y-19682786D02*
X98069323Y-19161846D01*
X98069323Y-19161846D02*
X98106726Y-19062152D01*
X98106726Y-19062152D02*
X98196465Y-19004839D01*
X98196465Y-19004839D02*
X98338539Y-18989906D01*
X98338539Y-18989906D02*
X98438233Y-19027309D01*
X98438233Y-19027309D02*
X98490569Y-19069690D01*
X96065346Y-19228828D02*
X96852942Y-19433337D01*
X96852942Y-19433337D02*
X96125076Y-19797127D01*
X95651638Y-18937141D02*
X95035981Y-19001850D01*
X95035981Y-19001850D02*
X95407309Y-19345872D01*
X95407309Y-19345872D02*
X95265235Y-19360805D01*
X95265235Y-19360805D02*
X95175496Y-19418118D01*
X95175496Y-19418118D02*
X95133115Y-19470454D01*
X95133115Y-19470454D02*
X95095712Y-19570148D01*
X95095712Y-19570148D02*
X95120600Y-19806939D01*
X95120600Y-19806939D02*
X95177913Y-19896678D01*
X95177913Y-19896678D02*
X95230249Y-19939058D01*
X95230249Y-19939058D02*
X95329943Y-19976461D01*
X95329943Y-19976461D02*
X95614092Y-19946596D01*
X95614092Y-19946596D02*
X95703831Y-19889283D01*
X95703831Y-19889283D02*
X95746211Y-19836947D01*
X93956555Y-20120810D02*
X93852027Y-19126288D01*
X93891847Y-19505154D02*
X93792153Y-19467751D01*
X93792153Y-19467751D02*
X93602720Y-19487661D01*
X93602720Y-19487661D02*
X93512981Y-19544974D01*
X93512981Y-19544974D02*
X93470601Y-19597310D01*
X93470601Y-19597310D02*
X93433198Y-19697004D01*
X93433198Y-19697004D02*
X93463063Y-19981153D01*
X93463063Y-19981153D02*
X93520376Y-20070892D01*
X93520376Y-20070892D02*
X93572712Y-20113272D01*
X93572712Y-20113272D02*
X93672406Y-20150675D01*
X93672406Y-20150675D02*
X93861839Y-20130765D01*
X93861839Y-20130765D02*
X93951577Y-20073452D01*
X93081780Y-19542414D02*
X92914675Y-20230316D01*
X92608198Y-19592189D02*
X92914675Y-20230316D01*
X92914675Y-20230316D02*
X93034279Y-20457152D01*
X93034279Y-20457152D02*
X93086615Y-20499533D01*
X93086615Y-20499533D02*
X93186309Y-20536936D01*
X91399212Y-20389598D02*
X91488951Y-20332284D01*
X91488951Y-20332284D02*
X91526354Y-20232591D01*
X91526354Y-20232591D02*
X91436758Y-19380143D01*
X90878272Y-20444351D02*
X90968011Y-20387037D01*
X90968011Y-20387037D02*
X91010391Y-20334702D01*
X91010391Y-20334702D02*
X91047794Y-20235008D01*
X91047794Y-20235008D02*
X91017929Y-19950859D01*
X91017929Y-19950859D02*
X90960616Y-19861120D01*
X90960616Y-19861120D02*
X90908280Y-19818739D01*
X90908280Y-19818739D02*
X90808586Y-19781336D01*
X90808586Y-19781336D02*
X90666512Y-19796269D01*
X90666512Y-19796269D02*
X90576773Y-19853582D01*
X90576773Y-19853582D02*
X90534392Y-19905918D01*
X90534392Y-19905918D02*
X90496989Y-20005612D01*
X90496989Y-20005612D02*
X90526854Y-20289761D01*
X90526854Y-20289761D02*
X90584168Y-20379500D01*
X90584168Y-20379500D02*
X90636503Y-20421880D01*
X90636503Y-20421880D02*
X90736197Y-20459283D01*
X90736197Y-20459283D02*
X90878272Y-20444351D01*
X90120541Y-20523992D02*
X90050855Y-19860977D01*
X90070765Y-20050410D02*
X90013452Y-19960671D01*
X90013452Y-19960671D02*
X89961116Y-19918290D01*
X89961116Y-19918290D02*
X89861422Y-19880887D01*
X89861422Y-19880887D02*
X89766706Y-19890842D01*
X89078660Y-20633498D02*
X88974132Y-19638976D01*
X89073683Y-20586139D02*
X89173377Y-20623542D01*
X89173377Y-20623542D02*
X89362809Y-20603632D01*
X89362809Y-20603632D02*
X89452548Y-20546319D01*
X89452548Y-20546319D02*
X89494929Y-20493983D01*
X89494929Y-20493983D02*
X89532332Y-20394289D01*
X89532332Y-20394289D02*
X89502467Y-20110140D01*
X89502467Y-20110140D02*
X89445153Y-20020401D01*
X89445153Y-20020401D02*
X89392818Y-19978021D01*
X89392818Y-19978021D02*
X89293124Y-19940618D01*
X89293124Y-19940618D02*
X89103691Y-19960528D01*
X89103691Y-19960528D02*
X89013952Y-20017841D01*
X88605078Y-20683273D02*
X88500550Y-19688751D01*
X88540370Y-20067617D02*
X88440676Y-20030214D01*
X88440676Y-20030214D02*
X88251244Y-20050124D01*
X88251244Y-20050124D02*
X88161505Y-20107437D01*
X88161505Y-20107437D02*
X88119124Y-20159773D01*
X88119124Y-20159773D02*
X88081721Y-20259467D01*
X88081721Y-20259467D02*
X88111586Y-20543616D01*
X88111586Y-20543616D02*
X88168900Y-20633355D01*
X88168900Y-20633355D02*
X88221235Y-20675735D01*
X88221235Y-20675735D02*
X88320929Y-20713138D01*
X88320929Y-20713138D02*
X88510362Y-20693228D01*
X88510362Y-20693228D02*
X88600101Y-20635915D01*
X87279049Y-20822644D02*
X87224296Y-20301704D01*
X87224296Y-20301704D02*
X87261699Y-20202010D01*
X87261699Y-20202010D02*
X87351438Y-20144697D01*
X87351438Y-20144697D02*
X87540871Y-20124787D01*
X87540871Y-20124787D02*
X87640565Y-20162190D01*
X87274072Y-20775286D02*
X87373765Y-20812689D01*
X87373765Y-20812689D02*
X87610556Y-20787801D01*
X87610556Y-20787801D02*
X87700295Y-20730488D01*
X87700295Y-20730488D02*
X87737698Y-20630794D01*
X87737698Y-20630794D02*
X87727743Y-20536078D01*
X87727743Y-20536078D02*
X87670430Y-20446339D01*
X87670430Y-20446339D02*
X87570736Y-20408936D01*
X87570736Y-20408936D02*
X87333945Y-20433824D01*
X87333945Y-20433824D02*
X87234251Y-20396421D01*
X86309558Y-20254203D02*
X86394176Y-21059292D01*
X86394176Y-21059292D02*
X86451489Y-21149031D01*
X86451489Y-21149031D02*
X86503825Y-21191412D01*
X86503825Y-21191412D02*
X86603519Y-21228815D01*
X86603519Y-21228815D02*
X86745594Y-21213882D01*
X86745594Y-21213882D02*
X86835332Y-21156569D01*
X86374266Y-20869860D02*
X86473960Y-20907263D01*
X86473960Y-20907263D02*
X86663393Y-20887352D01*
X86663393Y-20887352D02*
X86753131Y-20830039D01*
X86753131Y-20830039D02*
X86795512Y-20777703D01*
X86795512Y-20777703D02*
X86832915Y-20678009D01*
X86832915Y-20678009D02*
X86803050Y-20393860D01*
X86803050Y-20393860D02*
X86745737Y-20304122D01*
X86745737Y-20304122D02*
X86693401Y-20261741D01*
X86693401Y-20261741D02*
X86593707Y-20224338D01*
X86593707Y-20224338D02*
X86404274Y-20244248D01*
X86404274Y-20244248D02*
X86314535Y-20301561D01*
X85521819Y-20959455D02*
X85621512Y-20996858D01*
X85621512Y-20996858D02*
X85810945Y-20976948D01*
X85810945Y-20976948D02*
X85900684Y-20919635D01*
X85900684Y-20919635D02*
X85938087Y-20819941D01*
X85938087Y-20819941D02*
X85898267Y-20441076D01*
X85898267Y-20441076D02*
X85840953Y-20351337D01*
X85840953Y-20351337D02*
X85741260Y-20313934D01*
X85741260Y-20313934D02*
X85551827Y-20333844D01*
X85551827Y-20333844D02*
X85462088Y-20391157D01*
X85462088Y-20391157D02*
X85424685Y-20490851D01*
X85424685Y-20490851D02*
X85434640Y-20585567D01*
X85434640Y-20585567D02*
X85918177Y-20630508D01*
X84911139Y-21071522D02*
X85000878Y-21014208D01*
X85000878Y-21014208D02*
X85038281Y-20914514D01*
X85038281Y-20914514D02*
X84948686Y-20062067D01*
X84036364Y-20493125D02*
X84106050Y-21156140D01*
X84233335Y-20089372D02*
X84544789Y-20774857D01*
X84544789Y-20774857D02*
X83929132Y-20839565D01*
X83537895Y-20306110D02*
X83485559Y-20263729D01*
X83485559Y-20263729D02*
X83385865Y-20226326D01*
X83385865Y-20226326D02*
X83149074Y-20251214D01*
X83149074Y-20251214D02*
X83059335Y-20308527D01*
X83059335Y-20308527D02*
X83016955Y-20360863D01*
X83016955Y-20360863D02*
X82979551Y-20460557D01*
X82979551Y-20460557D02*
X82989507Y-20555273D01*
X82989507Y-20555273D02*
X83051797Y-20692370D01*
X83051797Y-20692370D02*
X83679826Y-21200938D01*
X83679826Y-21200938D02*
X83064170Y-21265646D01*
X100240122Y-15670932D02*
X99387675Y-15760528D01*
X99970691Y-17207513D02*
X99813899Y-15715730D01*
X98303343Y-16377250D02*
X98407871Y-17371772D01*
X98942678Y-16310053D02*
X99024808Y-17091463D01*
X99024808Y-17091463D02*
X98968703Y-17241004D01*
X98968703Y-17241004D02*
X98834095Y-17326974D01*
X98834095Y-17326974D02*
X98620983Y-17349373D01*
X98620983Y-17349373D02*
X98471442Y-17293268D01*
X98471442Y-17293268D02*
X98392939Y-17229697D01*
X97697498Y-17446435D02*
X97592970Y-16451913D01*
X97622835Y-16736062D02*
X97536865Y-16601454D01*
X97536865Y-16601454D02*
X97458362Y-16537883D01*
X97458362Y-16537883D02*
X97308821Y-16481778D01*
X97308821Y-16481778D02*
X97166746Y-16496711D01*
X96774014Y-17543497D02*
X96669486Y-16548975D01*
X96617221Y-16051714D02*
X96695725Y-16115285D01*
X96695725Y-16115285D02*
X96632154Y-16193789D01*
X96632154Y-16193789D02*
X96553651Y-16130218D01*
X96553651Y-16130218D02*
X96617221Y-16051714D01*
X96617221Y-16051714D02*
X96632154Y-16193789D01*
X95959113Y-16623638D02*
X96063641Y-17618160D01*
X95974045Y-16765713D02*
X95895542Y-16702142D01*
X95895542Y-16702142D02*
X95746001Y-16646037D01*
X95746001Y-16646037D02*
X95532889Y-16668436D01*
X95532889Y-16668436D02*
X95398281Y-16754406D01*
X95398281Y-16754406D02*
X95342176Y-16903947D01*
X95342176Y-16903947D02*
X95424306Y-17685357D01*
X93970069Y-16832695D02*
X94096996Y-18040329D01*
X94096996Y-18040329D02*
X94182966Y-18174937D01*
X94182966Y-18174937D02*
X94261470Y-18238508D01*
X94261470Y-18238508D02*
X94411011Y-18294613D01*
X94411011Y-18294613D02*
X94624122Y-18272214D01*
X94624122Y-18272214D02*
X94758731Y-18186244D01*
X94067131Y-17756180D02*
X94216672Y-17812284D01*
X94216672Y-17812284D02*
X94500821Y-17782419D01*
X94500821Y-17782419D02*
X94635429Y-17696449D01*
X94635429Y-17696449D02*
X94699000Y-17617946D01*
X94699000Y-17617946D02*
X94755105Y-17468405D01*
X94755105Y-17468405D02*
X94710307Y-17042181D01*
X94710307Y-17042181D02*
X94624337Y-16907573D01*
X94624337Y-16907573D02*
X94545833Y-16844002D01*
X94545833Y-16844002D02*
X94396292Y-16787897D01*
X94396292Y-16787897D02*
X94112143Y-16817763D01*
X94112143Y-16817763D02*
X93977535Y-16903733D01*
X92291199Y-17942838D02*
X92085553Y-18036274D01*
X92085553Y-18036274D02*
X91730367Y-18073606D01*
X91730367Y-18073606D02*
X91580826Y-18017501D01*
X91580826Y-18017501D02*
X91502323Y-17953930D01*
X91502323Y-17953930D02*
X91416353Y-17819322D01*
X91416353Y-17819322D02*
X91401420Y-17677247D01*
X91401420Y-17677247D02*
X91457525Y-17527706D01*
X91457525Y-17527706D02*
X91521096Y-17449203D01*
X91521096Y-17449203D02*
X91655704Y-17363233D01*
X91655704Y-17363233D02*
X91932387Y-17262330D01*
X91932387Y-17262330D02*
X92066995Y-17176360D01*
X92066995Y-17176360D02*
X92130566Y-17097857D01*
X92130566Y-17097857D02*
X92186670Y-16948316D01*
X92186670Y-16948316D02*
X92171738Y-16806241D01*
X92171738Y-16806241D02*
X92085768Y-16671633D01*
X92085768Y-16671633D02*
X92007264Y-16608062D01*
X92007264Y-16608062D02*
X91857723Y-16551958D01*
X91857723Y-16551958D02*
X91502537Y-16589289D01*
X91502537Y-16589289D02*
X91296892Y-16682725D01*
X90702354Y-17176146D02*
X90859147Y-18667929D01*
X90709821Y-17247183D02*
X90560280Y-17191078D01*
X90560280Y-17191078D02*
X90276131Y-17220944D01*
X90276131Y-17220944D02*
X90141522Y-17306914D01*
X90141522Y-17306914D02*
X90077951Y-17385417D01*
X90077951Y-17385417D02*
X90021847Y-17534958D01*
X90021847Y-17534958D02*
X90066645Y-17961182D01*
X90066645Y-17961182D02*
X90152615Y-18095790D01*
X90152615Y-18095790D02*
X90231118Y-18159361D01*
X90231118Y-18159361D02*
X90380659Y-18215466D01*
X90380659Y-18215466D02*
X90664808Y-18185600D01*
X90664808Y-18185600D02*
X90799416Y-18099630D01*
X89244063Y-18334927D02*
X89378671Y-18248957D01*
X89378671Y-18248957D02*
X89434775Y-18099416D01*
X89434775Y-18099416D02*
X89300382Y-16820745D01*
X88675765Y-18394657D02*
X88571236Y-17400135D01*
X88518972Y-16902874D02*
X88597475Y-16966445D01*
X88597475Y-16966445D02*
X88533905Y-17044949D01*
X88533905Y-17044949D02*
X88455401Y-16981378D01*
X88455401Y-16981378D02*
X88518972Y-16902874D01*
X88518972Y-16902874D02*
X88533905Y-17044949D01*
X88073975Y-17452400D02*
X87505677Y-17512130D01*
X87808599Y-16977538D02*
X87942993Y-18256209D01*
X87942993Y-18256209D02*
X87886888Y-18405750D01*
X87886888Y-18405750D02*
X87752280Y-18491719D01*
X87752280Y-18491719D02*
X87610205Y-18506652D01*
X137626245Y-14827085D02*
X137521717Y-13832563D01*
X137521717Y-13832563D02*
X137142851Y-13872384D01*
X137142851Y-13872384D02*
X137053113Y-13929697D01*
X137053113Y-13929697D02*
X137010732Y-13982033D01*
X137010732Y-13982033D02*
X136973329Y-14081726D01*
X136973329Y-14081726D02*
X136988262Y-14223801D01*
X136988262Y-14223801D02*
X137045575Y-14313540D01*
X137045575Y-14313540D02*
X137097911Y-14355921D01*
X137097911Y-14355921D02*
X137197604Y-14393324D01*
X137197604Y-14393324D02*
X137576470Y-14353503D01*
X136110784Y-14986367D02*
X136679082Y-14926636D01*
X136394933Y-14956501D02*
X136290404Y-13961979D01*
X136290404Y-13961979D02*
X136400053Y-14094099D01*
X136400053Y-14094099D02*
X136504725Y-14178860D01*
X136504725Y-14178860D02*
X136604419Y-14216263D01*
X141049769Y-14467259D02*
X141331501Y-13958834D01*
X141618067Y-14407528D02*
X141513538Y-13413006D01*
X141513538Y-13413006D02*
X141134673Y-13452827D01*
X141134673Y-13452827D02*
X141044934Y-13510140D01*
X141044934Y-13510140D02*
X141002554Y-13562476D01*
X141002554Y-13562476D02*
X140965150Y-13662169D01*
X140965150Y-13662169D02*
X140980083Y-13804244D01*
X140980083Y-13804244D02*
X141037396Y-13893983D01*
X141037396Y-13893983D02*
X141089732Y-13936363D01*
X141089732Y-13936363D02*
X141189426Y-13973767D01*
X141189426Y-13973767D02*
X141568291Y-13933946D01*
X140641038Y-14222930D02*
X140167456Y-14272705D01*
X140765620Y-14497124D02*
X140329584Y-13537445D01*
X140329584Y-13537445D02*
X140102605Y-14566810D01*
X139761285Y-13597175D02*
X139629023Y-14616585D01*
X139629023Y-14616585D02*
X139364927Y-13926122D01*
X139364927Y-13926122D02*
X139250158Y-14656405D01*
X139250158Y-14656405D02*
X138908838Y-13686771D01*
X137891747Y-17353171D02*
X137787219Y-16358649D01*
X137787219Y-16358649D02*
X137408353Y-16398470D01*
X137408353Y-16398470D02*
X137318615Y-16455783D01*
X137318615Y-16455783D02*
X137276234Y-16508119D01*
X137276234Y-16508119D02*
X137238831Y-16607812D01*
X137238831Y-16607812D02*
X137253764Y-16749887D01*
X137253764Y-16749887D02*
X137311077Y-16839626D01*
X137311077Y-16839626D02*
X137363413Y-16882007D01*
X137363413Y-16882007D02*
X137463106Y-16919410D01*
X137463106Y-16919410D02*
X137841972Y-16879589D01*
X136603264Y-16483088D02*
X136508548Y-16493043D01*
X136508548Y-16493043D02*
X136418809Y-16550356D01*
X136418809Y-16550356D02*
X136376429Y-16602692D01*
X136376429Y-16602692D02*
X136339025Y-16702386D01*
X136339025Y-16702386D02*
X136311577Y-16896796D01*
X136311577Y-16896796D02*
X136336465Y-17133587D01*
X136336465Y-17133587D02*
X136403734Y-17318042D01*
X136403734Y-17318042D02*
X136461047Y-17407781D01*
X136461047Y-17407781D02*
X136513383Y-17450162D01*
X136513383Y-17450162D02*
X136613076Y-17487565D01*
X136613076Y-17487565D02*
X136707793Y-17477610D01*
X136707793Y-17477610D02*
X136797532Y-17420296D01*
X136797532Y-17420296D02*
X136839912Y-17367961D01*
X136839912Y-17367961D02*
X136877315Y-17268267D01*
X136877315Y-17268267D02*
X136904763Y-17073857D01*
X136904763Y-17073857D02*
X136879876Y-16837066D01*
X136879876Y-16837066D02*
X136812607Y-16652610D01*
X136812607Y-16652610D02*
X136755294Y-16562872D01*
X136755294Y-16562872D02*
X136702958Y-16520491D01*
X136702958Y-16520491D02*
X136603264Y-16483088D01*
X141286758Y-16038714D02*
X141376496Y-15981400D01*
X141376496Y-15981400D02*
X141518571Y-15966468D01*
X141518571Y-15966468D02*
X141665623Y-15998893D01*
X141665623Y-15998893D02*
X141770295Y-16083655D01*
X141770295Y-16083655D02*
X141827608Y-16173393D01*
X141827608Y-16173393D02*
X141894876Y-16357849D01*
X141894876Y-16357849D02*
X141909809Y-16499923D01*
X141909809Y-16499923D02*
X141882361Y-16694333D01*
X141882361Y-16694333D02*
X141844958Y-16794027D01*
X141844958Y-16794027D02*
X141760196Y-16898699D01*
X141760196Y-16898699D02*
X141623099Y-16960990D01*
X141623099Y-16960990D02*
X141528383Y-16970945D01*
X141528383Y-16970945D02*
X141381331Y-16938519D01*
X141381331Y-16938519D02*
X141328995Y-16896138D01*
X141328995Y-16896138D02*
X141294152Y-16564631D01*
X141294152Y-16564631D02*
X141483585Y-16544721D01*
X140912727Y-17035653D02*
X140808198Y-16041131D01*
X140808198Y-16041131D02*
X140344428Y-17095383D01*
X140344428Y-17095383D02*
X140239900Y-16100861D01*
X139870847Y-17145159D02*
X139766318Y-16150637D01*
X139766318Y-16150637D02*
X139529527Y-16175525D01*
X139529527Y-16175525D02*
X139392430Y-16237815D01*
X139392430Y-16237815D02*
X139307669Y-16342487D01*
X139307669Y-16342487D02*
X139270266Y-16442181D01*
X139270266Y-16442181D02*
X139242818Y-16636591D01*
X139242818Y-16636591D02*
X139257750Y-16778666D01*
X139257750Y-16778666D02*
X139325019Y-16963121D01*
X139325019Y-16963121D02*
X139382332Y-17052860D01*
X139382332Y-17052860D02*
X139487004Y-17137621D01*
X139487004Y-17137621D02*
X139634056Y-17170047D01*
X139634056Y-17170047D02*
X139870847Y-17145159D01*
X138668146Y-18867932D02*
X138757884Y-18810618D01*
X138757884Y-18810618D02*
X138899959Y-18795686D01*
X138899959Y-18795686D02*
X139047011Y-18828111D01*
X139047011Y-18828111D02*
X139151683Y-18912873D01*
X139151683Y-18912873D02*
X139208996Y-19002611D01*
X139208996Y-19002611D02*
X139276264Y-19187067D01*
X139276264Y-19187067D02*
X139291197Y-19329141D01*
X139291197Y-19329141D02*
X139263749Y-19523551D01*
X139263749Y-19523551D02*
X139226346Y-19623245D01*
X139226346Y-19623245D02*
X139141584Y-19727917D01*
X139141584Y-19727917D02*
X139004487Y-19790208D01*
X139004487Y-19790208D02*
X138909771Y-19800163D01*
X138909771Y-19800163D02*
X138762719Y-19767737D01*
X138762719Y-19767737D02*
X138710383Y-19725356D01*
X138710383Y-19725356D02*
X138675540Y-19393849D01*
X138675540Y-19393849D02*
X138864973Y-19373939D01*
X138294115Y-19864871D02*
X138189586Y-18870349D01*
X138189586Y-18870349D02*
X137725816Y-19924601D01*
X137725816Y-19924601D02*
X137621288Y-18930079D01*
X137252235Y-19974377D02*
X137147706Y-18979855D01*
X137147706Y-18979855D02*
X136910915Y-19004743D01*
X136910915Y-19004743D02*
X136773818Y-19067033D01*
X136773818Y-19067033D02*
X136689057Y-19171705D01*
X136689057Y-19171705D02*
X136651654Y-19271399D01*
X136651654Y-19271399D02*
X136624206Y-19465809D01*
X136624206Y-19465809D02*
X136639138Y-19607884D01*
X136639138Y-19607884D02*
X136706407Y-19792339D01*
X136706407Y-19792339D02*
X136763720Y-19882078D01*
X136763720Y-19882078D02*
X136868392Y-19966839D01*
X136868392Y-19966839D02*
X137015444Y-19999265D01*
X137015444Y-19999265D02*
X137252235Y-19974377D01*
X141438699Y-19534362D02*
X141720431Y-19025938D01*
X142006998Y-19474632D02*
X141902469Y-18480110D01*
X141902469Y-18480110D02*
X141523604Y-18519930D01*
X141523604Y-18519930D02*
X141433865Y-18577243D01*
X141433865Y-18577243D02*
X141391484Y-18629579D01*
X141391484Y-18629579D02*
X141354081Y-18729273D01*
X141354081Y-18729273D02*
X141369014Y-18871348D01*
X141369014Y-18871348D02*
X141426327Y-18961086D01*
X141426327Y-18961086D02*
X141478663Y-19003467D01*
X141478663Y-19003467D02*
X141578357Y-19040870D01*
X141578357Y-19040870D02*
X141957222Y-19001050D01*
X141054856Y-19526824D02*
X140917759Y-19589115D01*
X140917759Y-19589115D02*
X140680968Y-19614003D01*
X140680968Y-19614003D02*
X140581274Y-19576600D01*
X140581274Y-19576600D02*
X140528939Y-19534219D01*
X140528939Y-19534219D02*
X140471625Y-19444480D01*
X140471625Y-19444480D02*
X140461670Y-19349764D01*
X140461670Y-19349764D02*
X140499073Y-19250070D01*
X140499073Y-19250070D02*
X140541454Y-19197734D01*
X140541454Y-19197734D02*
X140631193Y-19140421D01*
X140631193Y-19140421D02*
X140815648Y-19073153D01*
X140815648Y-19073153D02*
X140905387Y-19015839D01*
X140905387Y-19015839D02*
X140947768Y-18963504D01*
X140947768Y-18963504D02*
X140985171Y-18863810D01*
X140985171Y-18863810D02*
X140975216Y-18769093D01*
X140975216Y-18769093D02*
X140917902Y-18679355D01*
X140917902Y-18679355D02*
X140865567Y-18636974D01*
X140865567Y-18636974D02*
X140765873Y-18599571D01*
X140765873Y-18599571D02*
X140529082Y-18624459D01*
X140529082Y-18624459D02*
X140391985Y-18686749D01*
X140102858Y-18669257D02*
X139534560Y-18728987D01*
X139923237Y-19693644D02*
X139818709Y-18699122D01*
X138933649Y-21394018D02*
X139023387Y-21336704D01*
X139023387Y-21336704D02*
X139165462Y-21321772D01*
X139165462Y-21321772D02*
X139312514Y-21354197D01*
X139312514Y-21354197D02*
X139417186Y-21438959D01*
X139417186Y-21438959D02*
X139474499Y-21528697D01*
X139474499Y-21528697D02*
X139541767Y-21713153D01*
X139541767Y-21713153D02*
X139556700Y-21855227D01*
X139556700Y-21855227D02*
X139529252Y-22049637D01*
X139529252Y-22049637D02*
X139491849Y-22149331D01*
X139491849Y-22149331D02*
X139407087Y-22254003D01*
X139407087Y-22254003D02*
X139269990Y-22316294D01*
X139269990Y-22316294D02*
X139175274Y-22326249D01*
X139175274Y-22326249D02*
X139028222Y-22293823D01*
X139028222Y-22293823D02*
X138975886Y-22251442D01*
X138975886Y-22251442D02*
X138941043Y-21919935D01*
X138941043Y-21919935D02*
X139130476Y-21900025D01*
X138559618Y-22390957D02*
X138455089Y-21396435D01*
X138455089Y-21396435D02*
X137991319Y-22450687D01*
X137991319Y-22450687D02*
X137886791Y-21456165D01*
X137517738Y-22500463D02*
X137413209Y-21505941D01*
X137413209Y-21505941D02*
X137176418Y-21530829D01*
X137176418Y-21530829D02*
X137039321Y-21593119D01*
X137039321Y-21593119D02*
X136954560Y-21697791D01*
X136954560Y-21697791D02*
X136917157Y-21797485D01*
X136917157Y-21797485D02*
X136889709Y-21991895D01*
X136889709Y-21991895D02*
X136904641Y-22133970D01*
X136904641Y-22133970D02*
X136971910Y-22318425D01*
X136971910Y-22318425D02*
X137029223Y-22408164D01*
X137029223Y-22408164D02*
X137133895Y-22492925D01*
X137133895Y-22492925D02*
X137280947Y-22525351D01*
X137280947Y-22525351D02*
X137517738Y-22500463D01*
X142381082Y-20983796D02*
X142154104Y-22013161D01*
X142154104Y-22013161D02*
X141718068Y-21053482D01*
X140912835Y-22047860D02*
X140965171Y-22090241D01*
X140965171Y-22090241D02*
X141112223Y-22122667D01*
X141112223Y-22122667D02*
X141206940Y-22112712D01*
X141206940Y-22112712D02*
X141344037Y-22050421D01*
X141344037Y-22050421D02*
X141428798Y-21945749D01*
X141428798Y-21945749D02*
X141466201Y-21846055D01*
X141466201Y-21846055D02*
X141493649Y-21651645D01*
X141493649Y-21651645D02*
X141478716Y-21509570D01*
X141478716Y-21509570D02*
X141411448Y-21325115D01*
X141411448Y-21325115D02*
X141354135Y-21235376D01*
X141354135Y-21235376D02*
X141249463Y-21150615D01*
X141249463Y-21150615D02*
X141102411Y-21118190D01*
X141102411Y-21118190D02*
X141007695Y-21128145D01*
X141007695Y-21128145D02*
X140870598Y-21190436D01*
X140870598Y-21190436D02*
X140828217Y-21242771D01*
X139918314Y-22152389D02*
X139970649Y-22194770D01*
X139970649Y-22194770D02*
X140117701Y-22227195D01*
X140117701Y-22227195D02*
X140212418Y-22217240D01*
X140212418Y-22217240D02*
X140349515Y-22154949D01*
X140349515Y-22154949D02*
X140434276Y-22050278D01*
X140434276Y-22050278D02*
X140471679Y-21950584D01*
X140471679Y-21950584D02*
X140499127Y-21756173D01*
X140499127Y-21756173D02*
X140484195Y-21614099D01*
X140484195Y-21614099D02*
X140416926Y-21429644D01*
X140416926Y-21429644D02*
X140359613Y-21339905D01*
X140359613Y-21339905D02*
X140254941Y-21255144D01*
X140254941Y-21255144D02*
X140107889Y-21222718D01*
X140107889Y-21222718D02*
X140013173Y-21232673D01*
X140013173Y-21232673D02*
X139876076Y-21294964D01*
X139876076Y-21294964D02*
X139833695Y-21347300D01*
X138688254Y-24931427D02*
X138583726Y-23936905D01*
X138583726Y-23936905D02*
X138204860Y-23976726D01*
X138204860Y-23976726D02*
X138115122Y-24034039D01*
X138115122Y-24034039D02*
X138072741Y-24086375D01*
X138072741Y-24086375D02*
X138035338Y-24186068D01*
X138035338Y-24186068D02*
X138050271Y-24328143D01*
X138050271Y-24328143D02*
X138107584Y-24417882D01*
X138107584Y-24417882D02*
X138159920Y-24460263D01*
X138159920Y-24460263D02*
X138259613Y-24497666D01*
X138259613Y-24497666D02*
X138638479Y-24457845D01*
X137646517Y-24131172D02*
X137594182Y-24088792D01*
X137594182Y-24088792D02*
X137494488Y-24051389D01*
X137494488Y-24051389D02*
X137257697Y-24076276D01*
X137257697Y-24076276D02*
X137167958Y-24133590D01*
X137167958Y-24133590D02*
X137125577Y-24185925D01*
X137125577Y-24185925D02*
X137088174Y-24285619D01*
X137088174Y-24285619D02*
X137098129Y-24380336D01*
X137098129Y-24380336D02*
X137160420Y-24517433D01*
X137160420Y-24517433D02*
X137788449Y-25026000D01*
X137788449Y-25026000D02*
X137172793Y-25090709D01*
X142632718Y-24516848D02*
X142528189Y-23522326D01*
X142528189Y-23522326D02*
X142149324Y-23562146D01*
X142149324Y-23562146D02*
X142059585Y-23619459D01*
X142059585Y-23619459D02*
X142017204Y-23671795D01*
X142017204Y-23671795D02*
X141979801Y-23771489D01*
X141979801Y-23771489D02*
X141994734Y-23913564D01*
X141994734Y-23913564D02*
X142052047Y-24003302D01*
X142052047Y-24003302D02*
X142104383Y-24045683D01*
X142104383Y-24045683D02*
X142204077Y-24083086D01*
X142204077Y-24083086D02*
X142582942Y-24043266D01*
X141590981Y-23716593D02*
X141538645Y-23674212D01*
X141538645Y-23674212D02*
X141438951Y-23636809D01*
X141438951Y-23636809D02*
X141202160Y-23661697D01*
X141202160Y-23661697D02*
X141112421Y-23719010D01*
X141112421Y-23719010D02*
X141070041Y-23771346D01*
X141070041Y-23771346D02*
X141032638Y-23871040D01*
X141032638Y-23871040D02*
X141042593Y-23965756D01*
X141042593Y-23965756D02*
X141104884Y-24102853D01*
X141104884Y-24102853D02*
X141732912Y-24611421D01*
X141732912Y-24611421D02*
X141117256Y-24676129D01*
X140170092Y-24775680D02*
X140738390Y-24715949D01*
X140454241Y-24745815D02*
X140349713Y-23751293D01*
X140349713Y-23751293D02*
X140459362Y-23883412D01*
X140459362Y-23883412D02*
X140564033Y-23968174D01*
X140564033Y-23968174D02*
X140663727Y-24005577D01*
X138953756Y-27457513D02*
X138849228Y-26462991D01*
X138849228Y-26462991D02*
X138470362Y-26502812D01*
X138470362Y-26502812D02*
X138380624Y-26560125D01*
X138380624Y-26560125D02*
X138338243Y-26612461D01*
X138338243Y-26612461D02*
X138300840Y-26712154D01*
X138300840Y-26712154D02*
X138315773Y-26854229D01*
X138315773Y-26854229D02*
X138373086Y-26943968D01*
X138373086Y-26943968D02*
X138425422Y-26986349D01*
X138425422Y-26986349D02*
X138525115Y-27023752D01*
X138525115Y-27023752D02*
X138903981Y-26983931D01*
X137949422Y-26557565D02*
X137333766Y-26622273D01*
X137333766Y-26622273D02*
X137705094Y-26966295D01*
X137705094Y-26966295D02*
X137563019Y-26981228D01*
X137563019Y-26981228D02*
X137473280Y-27038541D01*
X137473280Y-27038541D02*
X137430900Y-27090877D01*
X137430900Y-27090877D02*
X137393497Y-27190571D01*
X137393497Y-27190571D02*
X137418384Y-27427362D01*
X137418384Y-27427362D02*
X137475698Y-27517101D01*
X137475698Y-27517101D02*
X137528033Y-27559481D01*
X137528033Y-27559481D02*
X137627727Y-27596884D01*
X137627727Y-27596884D02*
X137911876Y-27567019D01*
X137911876Y-27567019D02*
X138001615Y-27509706D01*
X138001615Y-27509706D02*
X138043996Y-27457370D01*
X142898221Y-27042934D02*
X142793692Y-26048412D01*
X142793692Y-26048412D02*
X142414827Y-26088232D01*
X142414827Y-26088232D02*
X142325088Y-26145545D01*
X142325088Y-26145545D02*
X142282707Y-26197881D01*
X142282707Y-26197881D02*
X142245304Y-26297575D01*
X142245304Y-26297575D02*
X142260237Y-26439650D01*
X142260237Y-26439650D02*
X142317550Y-26529388D01*
X142317550Y-26529388D02*
X142369886Y-26571769D01*
X142369886Y-26571769D02*
X142469580Y-26609172D01*
X142469580Y-26609172D02*
X142848445Y-26569352D01*
X141856484Y-26242679D02*
X141804148Y-26200298D01*
X141804148Y-26200298D02*
X141704454Y-26162895D01*
X141704454Y-26162895D02*
X141467663Y-26187783D01*
X141467663Y-26187783D02*
X141377924Y-26245096D01*
X141377924Y-26245096D02*
X141335544Y-26297432D01*
X141335544Y-26297432D02*
X141298141Y-26397126D01*
X141298141Y-26397126D02*
X141308096Y-26491842D01*
X141308096Y-26491842D02*
X141370387Y-26628939D01*
X141370387Y-26628939D02*
X141998415Y-27137507D01*
X141998415Y-27137507D02*
X141382759Y-27202215D01*
X140662574Y-26272401D02*
X140567858Y-26282356D01*
X140567858Y-26282356D02*
X140478119Y-26339670D01*
X140478119Y-26339670D02*
X140435738Y-26392005D01*
X140435738Y-26392005D02*
X140398335Y-26491699D01*
X140398335Y-26491699D02*
X140370887Y-26686110D01*
X140370887Y-26686110D02*
X140395775Y-26922900D01*
X140395775Y-26922900D02*
X140463043Y-27107356D01*
X140463043Y-27107356D02*
X140520356Y-27197095D01*
X140520356Y-27197095D02*
X140572692Y-27239475D01*
X140572692Y-27239475D02*
X140672386Y-27276878D01*
X140672386Y-27276878D02*
X140767102Y-27266923D01*
X140767102Y-27266923D02*
X140856841Y-27209610D01*
X140856841Y-27209610D02*
X140899222Y-27157274D01*
X140899222Y-27157274D02*
X140936625Y-27057580D01*
X140936625Y-27057580D02*
X140964073Y-26863170D01*
X140964073Y-26863170D02*
X140939185Y-26626379D01*
X140939185Y-26626379D02*
X140871917Y-26441924D01*
X140871917Y-26441924D02*
X140814604Y-26352185D01*
X140814604Y-26352185D02*
X140762268Y-26309804D01*
X140762268Y-26309804D02*
X140662574Y-26272401D01*
X139219259Y-29983599D02*
X139114731Y-28989077D01*
X139114731Y-28989077D02*
X138735865Y-29028898D01*
X138735865Y-29028898D02*
X138646127Y-29086211D01*
X138646127Y-29086211D02*
X138603746Y-29138547D01*
X138603746Y-29138547D02*
X138566343Y-29238240D01*
X138566343Y-29238240D02*
X138581276Y-29380315D01*
X138581276Y-29380315D02*
X138638589Y-29470054D01*
X138638589Y-29470054D02*
X138690925Y-29512435D01*
X138690925Y-29512435D02*
X138790618Y-29549838D01*
X138790618Y-29549838D02*
X139169484Y-29510017D01*
X137728828Y-29469911D02*
X137798514Y-30132925D01*
X137925799Y-29066158D02*
X138237253Y-29751643D01*
X138237253Y-29751643D02*
X137621596Y-29816351D01*
X143163723Y-29569019D02*
X143059194Y-28574497D01*
X143059194Y-28574497D02*
X142680329Y-28614317D01*
X142680329Y-28614317D02*
X142590590Y-28671630D01*
X142590590Y-28671630D02*
X142548209Y-28723966D01*
X142548209Y-28723966D02*
X142510806Y-28823660D01*
X142510806Y-28823660D02*
X142525739Y-28965735D01*
X142525739Y-28965735D02*
X142583052Y-29055473D01*
X142583052Y-29055473D02*
X142635388Y-29097854D01*
X142635388Y-29097854D02*
X142735082Y-29135257D01*
X142735082Y-29135257D02*
X143113947Y-29095437D01*
X141648261Y-29728300D02*
X142216559Y-29668569D01*
X141932410Y-29698435D02*
X141827882Y-28703913D01*
X141827882Y-28703913D02*
X141937531Y-28836032D01*
X141937531Y-28836032D02*
X142042202Y-28920794D01*
X142042202Y-28920794D02*
X142141896Y-28958197D01*
X141174679Y-29778076D02*
X140985246Y-29797986D01*
X140985246Y-29797986D02*
X140885552Y-29760583D01*
X140885552Y-29760583D02*
X140833217Y-29718202D01*
X140833217Y-29718202D02*
X140723568Y-29586082D01*
X140723568Y-29586082D02*
X140656299Y-29401627D01*
X140656299Y-29401627D02*
X140616479Y-29022762D01*
X140616479Y-29022762D02*
X140653882Y-28923068D01*
X140653882Y-28923068D02*
X140696263Y-28870732D01*
X140696263Y-28870732D02*
X140786001Y-28813419D01*
X140786001Y-28813419D02*
X140975434Y-28793509D01*
X140975434Y-28793509D02*
X141075128Y-28830912D01*
X141075128Y-28830912D02*
X141127464Y-28873292D01*
X141127464Y-28873292D02*
X141184777Y-28963031D01*
X141184777Y-28963031D02*
X141209665Y-29199822D01*
X141209665Y-29199822D02*
X141172262Y-29299516D01*
X141172262Y-29299516D02*
X141129881Y-29351852D01*
X141129881Y-29351852D02*
X141040142Y-29409165D01*
X141040142Y-29409165D02*
X140850709Y-29429075D01*
X140850709Y-29429075D02*
X140751016Y-29391672D01*
X140751016Y-29391672D02*
X140698680Y-29349292D01*
X140698680Y-29349292D02*
X140641367Y-29259553D01*
X139484761Y-32509684D02*
X139380233Y-31515162D01*
X139380233Y-31515162D02*
X139001367Y-31554983D01*
X139001367Y-31554983D02*
X138911629Y-31612296D01*
X138911629Y-31612296D02*
X138869248Y-31664632D01*
X138869248Y-31664632D02*
X138831845Y-31764325D01*
X138831845Y-31764325D02*
X138846778Y-31906400D01*
X138846778Y-31906400D02*
X138904091Y-31996139D01*
X138904091Y-31996139D02*
X138956427Y-32038520D01*
X138956427Y-32038520D02*
X139056120Y-32075923D01*
X139056120Y-32075923D02*
X139434986Y-32036102D01*
X137912129Y-31669466D02*
X138385711Y-31619691D01*
X138385711Y-31619691D02*
X138482845Y-32088295D01*
X138482845Y-32088295D02*
X138430509Y-32045914D01*
X138430509Y-32045914D02*
X138330815Y-32008511D01*
X138330815Y-32008511D02*
X138094024Y-32033399D01*
X138094024Y-32033399D02*
X138004285Y-32090712D01*
X138004285Y-32090712D02*
X137961905Y-32143048D01*
X137961905Y-32143048D02*
X137924502Y-32242742D01*
X137924502Y-32242742D02*
X137949389Y-32479533D01*
X137949389Y-32479533D02*
X138006703Y-32569272D01*
X138006703Y-32569272D02*
X138059038Y-32611652D01*
X138059038Y-32611652D02*
X138158732Y-32649055D01*
X138158732Y-32649055D02*
X138395523Y-32624168D01*
X138395523Y-32624168D02*
X138485262Y-32566854D01*
X138485262Y-32566854D02*
X138527643Y-32514519D01*
X143429225Y-32095105D02*
X143324696Y-31100583D01*
X143324696Y-31100583D02*
X142945831Y-31140403D01*
X142945831Y-31140403D02*
X142856092Y-31197716D01*
X142856092Y-31197716D02*
X142813711Y-31250052D01*
X142813711Y-31250052D02*
X142776308Y-31349746D01*
X142776308Y-31349746D02*
X142791241Y-31491821D01*
X142791241Y-31491821D02*
X142848554Y-31581559D01*
X142848554Y-31581559D02*
X142900890Y-31623940D01*
X142900890Y-31623940D02*
X143000584Y-31661343D01*
X143000584Y-31661343D02*
X143379449Y-31621523D01*
X141913763Y-32254386D02*
X142482061Y-32194655D01*
X142197912Y-32224521D02*
X142093384Y-31229999D01*
X142093384Y-31229999D02*
X142203033Y-31362118D01*
X142203033Y-31362118D02*
X142307704Y-31446880D01*
X142307704Y-31446880D02*
X142407398Y-31484283D01*
X141285734Y-31745818D02*
X141375473Y-31688505D01*
X141375473Y-31688505D02*
X141417854Y-31636169D01*
X141417854Y-31636169D02*
X141455257Y-31536475D01*
X141455257Y-31536475D02*
X141450279Y-31489117D01*
X141450279Y-31489117D02*
X141392966Y-31399378D01*
X141392966Y-31399378D02*
X141340630Y-31356998D01*
X141340630Y-31356998D02*
X141240936Y-31319595D01*
X141240936Y-31319595D02*
X141051503Y-31339505D01*
X141051503Y-31339505D02*
X140961765Y-31396818D01*
X140961765Y-31396818D02*
X140919384Y-31449154D01*
X140919384Y-31449154D02*
X140881981Y-31548848D01*
X140881981Y-31548848D02*
X140886958Y-31596206D01*
X140886958Y-31596206D02*
X140944272Y-31685945D01*
X140944272Y-31685945D02*
X140996607Y-31728325D01*
X140996607Y-31728325D02*
X141096301Y-31765729D01*
X141096301Y-31765729D02*
X141285734Y-31745818D01*
X141285734Y-31745818D02*
X141385428Y-31783221D01*
X141385428Y-31783221D02*
X141437764Y-31825602D01*
X141437764Y-31825602D02*
X141495077Y-31915341D01*
X141495077Y-31915341D02*
X141514987Y-32104774D01*
X141514987Y-32104774D02*
X141477584Y-32204468D01*
X141477584Y-32204468D02*
X141435203Y-32256803D01*
X141435203Y-32256803D02*
X141345465Y-32314117D01*
X141345465Y-32314117D02*
X141156032Y-32334027D01*
X141156032Y-32334027D02*
X141056338Y-32296624D01*
X141056338Y-32296624D02*
X141004002Y-32254243D01*
X141004002Y-32254243D02*
X140946689Y-32164504D01*
X140946689Y-32164504D02*
X140926779Y-31975071D01*
X140926779Y-31975071D02*
X140964182Y-31875378D01*
X140964182Y-31875378D02*
X141006562Y-31823042D01*
X141006562Y-31823042D02*
X141096301Y-31765729D01*
X139750263Y-35035770D02*
X139645735Y-34041248D01*
X139645735Y-34041248D02*
X139266869Y-34081069D01*
X139266869Y-34081069D02*
X139177131Y-34138382D01*
X139177131Y-34138382D02*
X139134750Y-34190718D01*
X139134750Y-34190718D02*
X139097347Y-34290411D01*
X139097347Y-34290411D02*
X139112280Y-34432486D01*
X139112280Y-34432486D02*
X139169593Y-34522225D01*
X139169593Y-34522225D02*
X139221929Y-34564606D01*
X139221929Y-34564606D02*
X139321622Y-34602009D01*
X139321622Y-34602009D02*
X139700488Y-34562188D01*
X138224989Y-34190575D02*
X138414422Y-34170664D01*
X138414422Y-34170664D02*
X138514116Y-34208067D01*
X138514116Y-34208067D02*
X138566452Y-34250448D01*
X138566452Y-34250448D02*
X138676101Y-34382568D01*
X138676101Y-34382568D02*
X138743369Y-34567023D01*
X138743369Y-34567023D02*
X138783190Y-34945888D01*
X138783190Y-34945888D02*
X138745786Y-35045582D01*
X138745786Y-35045582D02*
X138703406Y-35097918D01*
X138703406Y-35097918D02*
X138613667Y-35155231D01*
X138613667Y-35155231D02*
X138424234Y-35175141D01*
X138424234Y-35175141D02*
X138324540Y-35137738D01*
X138324540Y-35137738D02*
X138272205Y-35095358D01*
X138272205Y-35095358D02*
X138214891Y-35005619D01*
X138214891Y-35005619D02*
X138190004Y-34768828D01*
X138190004Y-34768828D02*
X138227407Y-34669134D01*
X138227407Y-34669134D02*
X138269787Y-34616798D01*
X138269787Y-34616798D02*
X138359526Y-34559485D01*
X138359526Y-34559485D02*
X138548959Y-34539575D01*
X138548959Y-34539575D02*
X138648653Y-34576978D01*
X138648653Y-34576978D02*
X138700989Y-34619359D01*
X138700989Y-34619359D02*
X138758302Y-34709097D01*
X143694728Y-34621191D02*
X143590199Y-33626669D01*
X143590199Y-33626669D02*
X143211334Y-33666489D01*
X143211334Y-33666489D02*
X143121595Y-33723802D01*
X143121595Y-33723802D02*
X143079214Y-33776138D01*
X143079214Y-33776138D02*
X143041811Y-33875832D01*
X143041811Y-33875832D02*
X143056744Y-34017907D01*
X143056744Y-34017907D02*
X143114057Y-34107645D01*
X143114057Y-34107645D02*
X143166393Y-34150026D01*
X143166393Y-34150026D02*
X143266087Y-34187429D01*
X143266087Y-34187429D02*
X143644952Y-34147609D01*
X142179266Y-34780472D02*
X142747564Y-34720741D01*
X142463415Y-34750607D02*
X142358887Y-33756085D01*
X142358887Y-33756085D02*
X142468536Y-33888204D01*
X142468536Y-33888204D02*
X142573207Y-33972966D01*
X142573207Y-33972966D02*
X142672901Y-34010369D01*
X141174932Y-33880524D02*
X141648514Y-33830748D01*
X141648514Y-33830748D02*
X141745647Y-34299352D01*
X141745647Y-34299352D02*
X141693312Y-34256972D01*
X141693312Y-34256972D02*
X141593618Y-34219569D01*
X141593618Y-34219569D02*
X141356827Y-34244456D01*
X141356827Y-34244456D02*
X141267088Y-34301770D01*
X141267088Y-34301770D02*
X141224707Y-34354105D01*
X141224707Y-34354105D02*
X141187304Y-34453799D01*
X141187304Y-34453799D02*
X141212192Y-34690590D01*
X141212192Y-34690590D02*
X141269505Y-34780329D01*
X141269505Y-34780329D02*
X141321841Y-34822710D01*
X141321841Y-34822710D02*
X141421535Y-34860113D01*
X141421535Y-34860113D02*
X141658326Y-34835225D01*
X141658326Y-34835225D02*
X141748065Y-34777912D01*
X141748065Y-34777912D02*
X141790445Y-34725576D01*
X140015766Y-37561856D02*
X139911238Y-36567334D01*
X139911238Y-36567334D02*
X139532372Y-36607155D01*
X139532372Y-36607155D02*
X139442634Y-36664468D01*
X139442634Y-36664468D02*
X139400253Y-36716804D01*
X139400253Y-36716804D02*
X139362850Y-36816497D01*
X139362850Y-36816497D02*
X139377783Y-36958572D01*
X139377783Y-36958572D02*
X139435096Y-37048311D01*
X139435096Y-37048311D02*
X139487432Y-37090692D01*
X139487432Y-37090692D02*
X139587125Y-37128095D01*
X139587125Y-37128095D02*
X139965991Y-37088274D01*
X139011432Y-36661908D02*
X138348418Y-36731593D01*
X138348418Y-36731593D02*
X138879170Y-37681317D01*
X143960230Y-37147276D02*
X143855701Y-36152754D01*
X143855701Y-36152754D02*
X143476836Y-36192574D01*
X143476836Y-36192574D02*
X143387097Y-36249887D01*
X143387097Y-36249887D02*
X143344716Y-36302223D01*
X143344716Y-36302223D02*
X143307313Y-36401917D01*
X143307313Y-36401917D02*
X143322246Y-36543992D01*
X143322246Y-36543992D02*
X143379559Y-36633730D01*
X143379559Y-36633730D02*
X143431895Y-36676111D01*
X143431895Y-36676111D02*
X143531589Y-36713514D01*
X143531589Y-36713514D02*
X143910454Y-36673694D01*
X142444768Y-37306557D02*
X143013066Y-37246826D01*
X142728917Y-37276692D02*
X142624389Y-36282170D01*
X142624389Y-36282170D02*
X142734038Y-36414289D01*
X142734038Y-36414289D02*
X142838709Y-36499051D01*
X142838709Y-36499051D02*
X142938403Y-36536454D01*
X141522635Y-36733138D02*
X141592320Y-37396153D01*
X141719605Y-36329385D02*
X142031060Y-37014870D01*
X142031060Y-37014870D02*
X141415403Y-37079578D01*
X140281268Y-40087941D02*
X140176740Y-39093419D01*
X140176740Y-39093419D02*
X139797874Y-39133240D01*
X139797874Y-39133240D02*
X139708136Y-39190553D01*
X139708136Y-39190553D02*
X139665755Y-39242889D01*
X139665755Y-39242889D02*
X139628352Y-39342582D01*
X139628352Y-39342582D02*
X139643285Y-39484657D01*
X139643285Y-39484657D02*
X139700598Y-39574396D01*
X139700598Y-39574396D02*
X139752934Y-39616777D01*
X139752934Y-39616777D02*
X139852627Y-39654180D01*
X139852627Y-39654180D02*
X140231493Y-39614359D01*
X139084941Y-39639104D02*
X139174680Y-39581791D01*
X139174680Y-39581791D02*
X139217061Y-39529455D01*
X139217061Y-39529455D02*
X139254464Y-39429761D01*
X139254464Y-39429761D02*
X139249486Y-39382403D01*
X139249486Y-39382403D02*
X139192173Y-39292664D01*
X139192173Y-39292664D02*
X139139837Y-39250283D01*
X139139837Y-39250283D02*
X139040144Y-39212880D01*
X139040144Y-39212880D02*
X138850711Y-39232790D01*
X138850711Y-39232790D02*
X138760972Y-39290104D01*
X138760972Y-39290104D02*
X138718591Y-39342439D01*
X138718591Y-39342439D02*
X138681188Y-39442133D01*
X138681188Y-39442133D02*
X138686166Y-39489492D01*
X138686166Y-39489492D02*
X138743479Y-39579230D01*
X138743479Y-39579230D02*
X138795815Y-39621611D01*
X138795815Y-39621611D02*
X138895509Y-39659014D01*
X138895509Y-39659014D02*
X139084941Y-39639104D01*
X139084941Y-39639104D02*
X139184635Y-39676507D01*
X139184635Y-39676507D02*
X139236971Y-39718888D01*
X139236971Y-39718888D02*
X139294284Y-39808627D01*
X139294284Y-39808627D02*
X139314195Y-39998059D01*
X139314195Y-39998059D02*
X139276791Y-40097753D01*
X139276791Y-40097753D02*
X139234411Y-40150089D01*
X139234411Y-40150089D02*
X139144672Y-40207402D01*
X139144672Y-40207402D02*
X138955239Y-40227312D01*
X138955239Y-40227312D02*
X138855545Y-40189909D01*
X138855545Y-40189909D02*
X138803210Y-40147529D01*
X138803210Y-40147529D02*
X138745896Y-40057790D01*
X138745896Y-40057790D02*
X138725986Y-39868357D01*
X138725986Y-39868357D02*
X138763389Y-39768663D01*
X138763389Y-39768663D02*
X138805770Y-39716327D01*
X138805770Y-39716327D02*
X138895509Y-39659014D01*
X144225732Y-39673362D02*
X144121203Y-38678840D01*
X144121203Y-38678840D02*
X143742338Y-38718660D01*
X143742338Y-38718660D02*
X143652599Y-38775973D01*
X143652599Y-38775973D02*
X143610218Y-38828309D01*
X143610218Y-38828309D02*
X143572815Y-38928003D01*
X143572815Y-38928003D02*
X143587748Y-39070078D01*
X143587748Y-39070078D02*
X143645061Y-39159816D01*
X143645061Y-39159816D02*
X143697397Y-39202197D01*
X143697397Y-39202197D02*
X143797091Y-39239600D01*
X143797091Y-39239600D02*
X144175956Y-39199780D01*
X142710270Y-39832643D02*
X143278568Y-39772912D01*
X142994419Y-39802778D02*
X142889891Y-38808256D01*
X142889891Y-38808256D02*
X142999540Y-38940375D01*
X142999540Y-38940375D02*
X143104211Y-39025137D01*
X143104211Y-39025137D02*
X143203905Y-39062540D01*
X141753294Y-38927717D02*
X141942727Y-38907807D01*
X141942727Y-38907807D02*
X142042421Y-38945210D01*
X142042421Y-38945210D02*
X142094756Y-38987591D01*
X142094756Y-38987591D02*
X142204405Y-39119710D01*
X142204405Y-39119710D02*
X142271674Y-39304165D01*
X142271674Y-39304165D02*
X142311494Y-39683031D01*
X142311494Y-39683031D02*
X142274091Y-39782725D01*
X142274091Y-39782725D02*
X142231710Y-39835060D01*
X142231710Y-39835060D02*
X142141972Y-39892374D01*
X142141972Y-39892374D02*
X141952539Y-39912284D01*
X141952539Y-39912284D02*
X141852845Y-39874881D01*
X141852845Y-39874881D02*
X141800509Y-39832500D01*
X141800509Y-39832500D02*
X141743196Y-39742761D01*
X141743196Y-39742761D02*
X141718308Y-39505970D01*
X141718308Y-39505970D02*
X141755711Y-39406276D01*
X141755711Y-39406276D02*
X141798092Y-39353941D01*
X141798092Y-39353941D02*
X141887831Y-39296627D01*
X141887831Y-39296627D02*
X142077264Y-39276717D01*
X142077264Y-39276717D02*
X142176957Y-39314120D01*
X142176957Y-39314120D02*
X142229293Y-39356501D01*
X142229293Y-39356501D02*
X142286606Y-39446240D01*
X140546770Y-42614027D02*
X140442242Y-41619505D01*
X140442242Y-41619505D02*
X140063376Y-41659326D01*
X140063376Y-41659326D02*
X139973638Y-41716639D01*
X139973638Y-41716639D02*
X139931257Y-41768975D01*
X139931257Y-41768975D02*
X139893854Y-41868668D01*
X139893854Y-41868668D02*
X139908787Y-42010743D01*
X139908787Y-42010743D02*
X139966100Y-42100482D01*
X139966100Y-42100482D02*
X140018436Y-42142863D01*
X140018436Y-42142863D02*
X140118129Y-42180266D01*
X140118129Y-42180266D02*
X140496995Y-42140445D01*
X139504890Y-42723533D02*
X139315458Y-42743443D01*
X139315458Y-42743443D02*
X139215764Y-42706040D01*
X139215764Y-42706040D02*
X139163428Y-42663660D01*
X139163428Y-42663660D02*
X139053779Y-42531540D01*
X139053779Y-42531540D02*
X138986511Y-42347085D01*
X138986511Y-42347085D02*
X138946690Y-41968219D01*
X138946690Y-41968219D02*
X138984093Y-41868525D01*
X138984093Y-41868525D02*
X139026474Y-41816190D01*
X139026474Y-41816190D02*
X139116213Y-41758876D01*
X139116213Y-41758876D02*
X139305646Y-41738966D01*
X139305646Y-41738966D02*
X139405339Y-41776369D01*
X139405339Y-41776369D02*
X139457675Y-41818750D01*
X139457675Y-41818750D02*
X139514988Y-41908489D01*
X139514988Y-41908489D02*
X139539876Y-42145280D01*
X139539876Y-42145280D02*
X139502473Y-42244974D01*
X139502473Y-42244974D02*
X139460092Y-42297309D01*
X139460092Y-42297309D02*
X139370354Y-42354623D01*
X139370354Y-42354623D02*
X139180921Y-42374533D01*
X139180921Y-42374533D02*
X139081227Y-42337130D01*
X139081227Y-42337130D02*
X139028891Y-42294749D01*
X139028891Y-42294749D02*
X138971578Y-42205010D01*
X144491235Y-42199447D02*
X144386706Y-41204925D01*
X144386706Y-41204925D02*
X144007841Y-41244745D01*
X144007841Y-41244745D02*
X143918102Y-41302058D01*
X143918102Y-41302058D02*
X143875721Y-41354394D01*
X143875721Y-41354394D02*
X143838318Y-41454088D01*
X143838318Y-41454088D02*
X143853251Y-41596163D01*
X143853251Y-41596163D02*
X143910564Y-41685901D01*
X143910564Y-41685901D02*
X143962900Y-41728282D01*
X143962900Y-41728282D02*
X144062594Y-41765685D01*
X144062594Y-41765685D02*
X144441459Y-41725865D01*
X142975773Y-42358728D02*
X143544071Y-42298997D01*
X143259922Y-42328863D02*
X143155394Y-41334341D01*
X143155394Y-41334341D02*
X143265043Y-41466460D01*
X143265043Y-41466460D02*
X143369714Y-41551222D01*
X143369714Y-41551222D02*
X143469408Y-41588625D01*
X142255588Y-41428914D02*
X142160872Y-41438869D01*
X142160872Y-41438869D02*
X142071133Y-41496183D01*
X142071133Y-41496183D02*
X142028752Y-41548518D01*
X142028752Y-41548518D02*
X141991349Y-41648212D01*
X141991349Y-41648212D02*
X141963901Y-41842623D01*
X141963901Y-41842623D02*
X141988789Y-42079413D01*
X141988789Y-42079413D02*
X142056057Y-42263869D01*
X142056057Y-42263869D02*
X142113370Y-42353608D01*
X142113370Y-42353608D02*
X142165706Y-42395988D01*
X142165706Y-42395988D02*
X142265400Y-42433391D01*
X142265400Y-42433391D02*
X142360116Y-42423436D01*
X142360116Y-42423436D02*
X142449855Y-42366123D01*
X142449855Y-42366123D02*
X142492236Y-42313787D01*
X142492236Y-42313787D02*
X142529639Y-42214093D01*
X142529639Y-42214093D02*
X142557087Y-42019683D01*
X142557087Y-42019683D02*
X142532199Y-41782892D01*
X142532199Y-41782892D02*
X142464931Y-41598437D01*
X142464931Y-41598437D02*
X142407618Y-41508698D01*
X142407618Y-41508698D02*
X142355282Y-41466317D01*
X142355282Y-41466317D02*
X142255588Y-41428914D01*
X146753245Y-11308781D02*
X147226827Y-11259005D01*
X147226827Y-11259005D02*
X147122298Y-10264483D01*
X145664006Y-11423264D02*
X145559478Y-10428742D01*
X145237783Y-11468062D02*
X145183030Y-10947122D01*
X145183030Y-10947122D02*
X145220433Y-10847428D01*
X145220433Y-10847428D02*
X145310171Y-10790115D01*
X145310171Y-10790115D02*
X145452246Y-10775182D01*
X145452246Y-10775182D02*
X145551940Y-10812585D01*
X145551940Y-10812585D02*
X145604276Y-10854966D01*
X144337977Y-11562635D02*
X144283224Y-11041695D01*
X144283224Y-11041695D02*
X144320627Y-10942001D01*
X144320627Y-10942001D02*
X144410366Y-10884688D01*
X144410366Y-10884688D02*
X144599799Y-10864778D01*
X144599799Y-10864778D02*
X144699492Y-10902181D01*
X144332999Y-11515277D02*
X144432693Y-11552680D01*
X144432693Y-11552680D02*
X144669484Y-11527793D01*
X144669484Y-11527793D02*
X144759223Y-11470479D01*
X144759223Y-11470479D02*
X144796626Y-11370785D01*
X144796626Y-11370785D02*
X144786671Y-11276069D01*
X144786671Y-11276069D02*
X144729358Y-11186330D01*
X144729358Y-11186330D02*
X144629664Y-11148927D01*
X144629664Y-11148927D02*
X144392873Y-11173815D01*
X144392873Y-11173815D02*
X144293179Y-11136412D01*
X143794709Y-10949396D02*
X143864395Y-11612411D01*
X143804664Y-11044113D02*
X143752329Y-11001732D01*
X143752329Y-11001732D02*
X143652635Y-10964329D01*
X143652635Y-10964329D02*
X143510560Y-10979262D01*
X143510560Y-10979262D02*
X143420821Y-11036575D01*
X143420821Y-11036575D02*
X143383418Y-11136269D01*
X143383418Y-11136269D02*
X143438171Y-11657209D01*
X142538366Y-11751782D02*
X142433837Y-10757260D01*
X142533388Y-11704424D02*
X142633082Y-11741827D01*
X142633082Y-11741827D02*
X142822515Y-11721917D01*
X142822515Y-11721917D02*
X142912254Y-11664604D01*
X142912254Y-11664604D02*
X142954634Y-11612268D01*
X142954634Y-11612268D02*
X142992037Y-11512574D01*
X142992037Y-11512574D02*
X142962172Y-11228425D01*
X142962172Y-11228425D02*
X142904859Y-11138686D01*
X142904859Y-11138686D02*
X142852523Y-11096305D01*
X142852523Y-11096305D02*
X142752829Y-11058902D01*
X142752829Y-11058902D02*
X142563396Y-11078813D01*
X142563396Y-11078813D02*
X142473658Y-11136126D01*
X141307053Y-11881198D02*
X141202524Y-10886677D01*
X141242344Y-11265542D02*
X141142651Y-11228139D01*
X141142651Y-11228139D02*
X140953218Y-11248049D01*
X140953218Y-11248049D02*
X140863479Y-11305362D01*
X140863479Y-11305362D02*
X140821098Y-11357698D01*
X140821098Y-11357698D02*
X140783695Y-11457392D01*
X140783695Y-11457392D02*
X140813560Y-11741541D01*
X140813560Y-11741541D02*
X140870874Y-11831280D01*
X140870874Y-11831280D02*
X140923209Y-11873661D01*
X140923209Y-11873661D02*
X141022903Y-11911064D01*
X141022903Y-11911064D02*
X141212336Y-11891154D01*
X141212336Y-11891154D02*
X141302075Y-11833840D01*
X139981023Y-12020570D02*
X139926270Y-11499630D01*
X139926270Y-11499630D02*
X139963673Y-11399936D01*
X139963673Y-11399936D02*
X140053412Y-11342622D01*
X140053412Y-11342622D02*
X140242845Y-11322712D01*
X140242845Y-11322712D02*
X140342539Y-11360115D01*
X139976046Y-11973212D02*
X140075740Y-12010615D01*
X140075740Y-12010615D02*
X140312531Y-11985727D01*
X140312531Y-11985727D02*
X140402269Y-11928414D01*
X140402269Y-11928414D02*
X140439672Y-11828720D01*
X140439672Y-11828720D02*
X140429717Y-11734003D01*
X140429717Y-11734003D02*
X140372404Y-11644265D01*
X140372404Y-11644265D02*
X140272710Y-11606861D01*
X140272710Y-11606861D02*
X140035919Y-11631749D01*
X140035919Y-11631749D02*
X139936225Y-11594346D01*
X139076240Y-12067785D02*
X139175934Y-12105188D01*
X139175934Y-12105188D02*
X139365367Y-12085278D01*
X139365367Y-12085278D02*
X139455106Y-12027965D01*
X139455106Y-12027965D02*
X139497486Y-11975629D01*
X139497486Y-11975629D02*
X139534889Y-11875935D01*
X139534889Y-11875935D02*
X139505024Y-11591786D01*
X139505024Y-11591786D02*
X139447711Y-11502047D01*
X139447711Y-11502047D02*
X139395375Y-11459666D01*
X139395375Y-11459666D02*
X139295681Y-11422263D01*
X139295681Y-11422263D02*
X139106248Y-11442173D01*
X139106248Y-11442173D02*
X139016510Y-11499487D01*
X138654994Y-12159941D02*
X138550465Y-11165419D01*
X138520457Y-11791031D02*
X138276128Y-12199761D01*
X138206443Y-11536747D02*
X138625129Y-11875792D01*
X137134554Y-12271864D02*
X137044815Y-12329178D01*
X137044815Y-12329178D02*
X136855382Y-12349088D01*
X136855382Y-12349088D02*
X136755688Y-12311685D01*
X136755688Y-12311685D02*
X136698375Y-12221946D01*
X136698375Y-12221946D02*
X136693398Y-12174588D01*
X136693398Y-12174588D02*
X136730801Y-12074894D01*
X136730801Y-12074894D02*
X136820540Y-12017581D01*
X136820540Y-12017581D02*
X136962614Y-12002648D01*
X136962614Y-12002648D02*
X137052353Y-11945335D01*
X137052353Y-11945335D02*
X137089756Y-11845641D01*
X137089756Y-11845641D02*
X137084778Y-11798282D01*
X137084778Y-11798282D02*
X137027465Y-11708544D01*
X137027465Y-11708544D02*
X136927771Y-11671141D01*
X136927771Y-11671141D02*
X136785697Y-11686073D01*
X136785697Y-11686073D02*
X136695958Y-11743386D01*
X136287084Y-12408818D02*
X136217398Y-11745804D01*
X136182555Y-11414296D02*
X136234891Y-11456677D01*
X136234891Y-11456677D02*
X136192511Y-11509013D01*
X136192511Y-11509013D02*
X136140175Y-11466632D01*
X136140175Y-11466632D02*
X136182555Y-11414296D01*
X136182555Y-11414296D02*
X136192511Y-11509013D01*
X135387279Y-12503392D02*
X135282750Y-11508870D01*
X135382301Y-12456034D02*
X135481995Y-12493437D01*
X135481995Y-12493437D02*
X135671428Y-12473526D01*
X135671428Y-12473526D02*
X135761167Y-12416213D01*
X135761167Y-12416213D02*
X135803547Y-12363877D01*
X135803547Y-12363877D02*
X135840951Y-12264184D01*
X135840951Y-12264184D02*
X135811085Y-11980034D01*
X135811085Y-11980034D02*
X135753772Y-11890296D01*
X135753772Y-11890296D02*
X135701436Y-11847915D01*
X135701436Y-11847915D02*
X135601742Y-11810512D01*
X135601742Y-11810512D02*
X135412310Y-11830422D01*
X135412310Y-11830422D02*
X135322571Y-11887735D01*
X134529854Y-12545629D02*
X134629548Y-12583032D01*
X134629548Y-12583032D02*
X134818981Y-12563122D01*
X134818981Y-12563122D02*
X134908719Y-12505809D01*
X134908719Y-12505809D02*
X134946122Y-12406115D01*
X134946122Y-12406115D02*
X134906302Y-12027250D01*
X134906302Y-12027250D02*
X134848989Y-11937511D01*
X134848989Y-11937511D02*
X134749295Y-11900108D01*
X134749295Y-11900108D02*
X134559862Y-11920018D01*
X134559862Y-11920018D02*
X134470123Y-11977331D01*
X134470123Y-11977331D02*
X134432720Y-12077025D01*
X134432720Y-12077025D02*
X134442675Y-12171741D01*
X134442675Y-12171741D02*
X134926212Y-12216682D01*
X133059189Y-13131135D02*
X133101570Y-13078799D01*
X133101570Y-13078799D02*
X133181354Y-12926769D01*
X133181354Y-12926769D02*
X133218757Y-12827075D01*
X133218757Y-12827075D02*
X133251182Y-12680023D01*
X133251182Y-12680023D02*
X133273653Y-12438255D01*
X133273653Y-12438255D02*
X133253743Y-12248822D01*
X133253743Y-12248822D02*
X133181497Y-12017009D01*
X133181497Y-12017009D02*
X133119206Y-11879912D01*
X133119206Y-11879912D02*
X133061893Y-11790173D01*
X133061893Y-11790173D02*
X132952244Y-11658053D01*
X132952244Y-11658053D02*
X132899908Y-11615673D01*
X132640503Y-12792089D02*
X132535975Y-11797568D01*
X132535975Y-11797568D02*
X132279131Y-12542783D01*
X132279131Y-12542783D02*
X131872960Y-11867253D01*
X131872960Y-11867253D02*
X131977489Y-12861775D01*
X131125042Y-12951371D02*
X131045401Y-12193640D01*
X131254744Y-12363162D02*
X131045401Y-12193640D01*
X131045401Y-12193640D02*
X130875878Y-12402983D01*
X130407131Y-13409877D02*
X130354795Y-13367496D01*
X130354795Y-13367496D02*
X130245146Y-13235377D01*
X130245146Y-13235377D02*
X130187833Y-13145638D01*
X130187833Y-13145638D02*
X130125542Y-13008541D01*
X130125542Y-13008541D02*
X130053296Y-12776728D01*
X130053296Y-12776728D02*
X130033386Y-12587295D01*
X130033386Y-12587295D02*
X130055857Y-12345527D01*
X130055857Y-12345527D02*
X130088282Y-12198474D01*
X130088282Y-12198474D02*
X130125685Y-12098781D01*
X130125685Y-12098781D02*
X130205469Y-11946751D01*
X130205469Y-11946751D02*
X130247850Y-11894415D01*
X109325911Y-14899903D02*
X109306001Y-14710470D01*
X109306001Y-14710470D02*
X109248688Y-14620731D01*
X109248688Y-14620731D02*
X109144016Y-14535970D01*
X109144016Y-14535970D02*
X108949606Y-14508522D01*
X108949606Y-14508522D02*
X108618098Y-14543365D01*
X108618098Y-14543365D02*
X108433643Y-14610633D01*
X108433643Y-14610633D02*
X108348882Y-14715305D01*
X108348882Y-14715305D02*
X108311479Y-14814999D01*
X108311479Y-14814999D02*
X108331389Y-15004431D01*
X108331389Y-15004431D02*
X108388702Y-15094170D01*
X108388702Y-15094170D02*
X108493374Y-15178932D01*
X108493374Y-15178932D02*
X108687784Y-15206380D01*
X108687784Y-15206380D02*
X109019291Y-15171537D01*
X109019291Y-15171537D02*
X109203747Y-15104268D01*
X109203747Y-15104268D02*
X109288508Y-14999597D01*
X109288508Y-14999597D02*
X109325911Y-14899903D01*
X108241793Y-14151984D02*
X109236315Y-14047456D01*
X109236315Y-14047456D02*
X108182063Y-13583686D01*
X108182063Y-13583686D02*
X109176585Y-13479157D01*
X119305972Y-14186126D02*
X119286062Y-13996693D01*
X119286062Y-13996693D02*
X119228748Y-13906954D01*
X119228748Y-13906954D02*
X119124077Y-13822193D01*
X119124077Y-13822193D02*
X118929667Y-13794745D01*
X118929667Y-13794745D02*
X118598159Y-13829588D01*
X118598159Y-13829588D02*
X118413704Y-13896856D01*
X118413704Y-13896856D02*
X118328943Y-14001528D01*
X118328943Y-14001528D02*
X118291540Y-14101222D01*
X118291540Y-14101222D02*
X118311450Y-14290654D01*
X118311450Y-14290654D02*
X118368763Y-14380393D01*
X118368763Y-14380393D02*
X118473435Y-14465154D01*
X118473435Y-14465154D02*
X118667845Y-14492602D01*
X118667845Y-14492602D02*
X118999352Y-14457760D01*
X118999352Y-14457760D02*
X119183807Y-14390491D01*
X119183807Y-14390491D02*
X119268569Y-14285820D01*
X119268569Y-14285820D02*
X119305972Y-14186126D01*
X118707951Y-13051947D02*
X118742794Y-13383454D01*
X118221854Y-13438207D02*
X119216376Y-13333679D01*
X119216376Y-13333679D02*
X119166600Y-12860097D01*
X118618355Y-12199499D02*
X118653198Y-12531007D01*
X118132258Y-12585760D02*
X119126780Y-12481231D01*
X119126780Y-12481231D02*
X119077005Y-12007649D01*
X148179550Y-48490335D02*
X147185028Y-48594864D01*
X147185028Y-48594864D02*
X147224848Y-48973729D01*
X147224848Y-48973729D02*
X147282162Y-49063468D01*
X147282162Y-49063468D02*
X147334497Y-49105849D01*
X147334497Y-49105849D02*
X147434191Y-49143252D01*
X147434191Y-49143252D02*
X147576266Y-49128319D01*
X147576266Y-49128319D02*
X147666005Y-49071006D01*
X147666005Y-49071006D02*
X147708385Y-49018670D01*
X147708385Y-49018670D02*
X147745789Y-48918976D01*
X147745789Y-48918976D02*
X147705968Y-48540111D01*
X147334354Y-50015609D02*
X147314444Y-49826177D01*
X147314444Y-49826177D02*
X147351847Y-49726483D01*
X147351847Y-49726483D02*
X147394228Y-49674147D01*
X147394228Y-49674147D02*
X147526348Y-49564498D01*
X147526348Y-49564498D02*
X147710803Y-49497230D01*
X147710803Y-49497230D02*
X148089668Y-49457409D01*
X148089668Y-49457409D02*
X148189362Y-49494812D01*
X148189362Y-49494812D02*
X148241698Y-49537193D01*
X148241698Y-49537193D02*
X148299011Y-49626932D01*
X148299011Y-49626932D02*
X148318921Y-49816364D01*
X148318921Y-49816364D02*
X148281518Y-49916058D01*
X148281518Y-49916058D02*
X148239138Y-49968394D01*
X148239138Y-49968394D02*
X148149399Y-50025707D01*
X148149399Y-50025707D02*
X147912608Y-50050595D01*
X147912608Y-50050595D02*
X147812914Y-50013192D01*
X147812914Y-50013192D02*
X147760578Y-49970811D01*
X147760578Y-49970811D02*
X147703265Y-49881073D01*
X147703265Y-49881073D02*
X147683355Y-49691640D01*
X147683355Y-49691640D02*
X147720758Y-49591946D01*
X147720758Y-49591946D02*
X147763138Y-49539610D01*
X147763138Y-49539610D02*
X147852877Y-49482297D01*
X144800834Y-49372148D02*
X144743521Y-49282409D01*
X144743521Y-49282409D02*
X144728588Y-49140335D01*
X144728588Y-49140335D02*
X144761014Y-48993283D01*
X144761014Y-48993283D02*
X144845775Y-48888611D01*
X144845775Y-48888611D02*
X144935514Y-48831298D01*
X144935514Y-48831298D02*
X145119969Y-48764030D01*
X145119969Y-48764030D02*
X145262044Y-48749097D01*
X145262044Y-48749097D02*
X145456454Y-48776545D01*
X145456454Y-48776545D02*
X145556148Y-48813948D01*
X145556148Y-48813948D02*
X145660819Y-48898709D01*
X145660819Y-48898709D02*
X145723110Y-49035806D01*
X145723110Y-49035806D02*
X145733065Y-49130523D01*
X145733065Y-49130523D02*
X145700640Y-49277575D01*
X145700640Y-49277575D02*
X145658259Y-49329911D01*
X145658259Y-49329911D02*
X145326752Y-49364753D01*
X145326752Y-49364753D02*
X145306842Y-49175321D01*
X145797773Y-49746179D02*
X144803252Y-49850708D01*
X144803252Y-49850708D02*
X145857504Y-50314477D01*
X145857504Y-50314477D02*
X144862982Y-50419006D01*
X145907279Y-50788059D02*
X144912758Y-50892588D01*
X144912758Y-50892588D02*
X144937645Y-51129379D01*
X144937645Y-51129379D02*
X144999936Y-51266476D01*
X144999936Y-51266476D02*
X145104608Y-51351237D01*
X145104608Y-51351237D02*
X145204302Y-51388640D01*
X145204302Y-51388640D02*
X145398712Y-51416088D01*
X145398712Y-51416088D02*
X145540786Y-51401155D01*
X145540786Y-51401155D02*
X145725242Y-51333887D01*
X145725242Y-51333887D02*
X145814980Y-51276574D01*
X145814980Y-51276574D02*
X145899742Y-51171902D01*
X145899742Y-51171902D02*
X145932167Y-51024850D01*
X145932167Y-51024850D02*
X145907279Y-50788059D01*
X142127869Y-48982749D02*
X143157234Y-49209728D01*
X143157234Y-49209728D02*
X142197555Y-49645764D01*
X143191934Y-50450996D02*
X143234315Y-50398660D01*
X143234315Y-50398660D02*
X143266740Y-50251608D01*
X143266740Y-50251608D02*
X143256785Y-50156892D01*
X143256785Y-50156892D02*
X143194494Y-50019795D01*
X143194494Y-50019795D02*
X143089823Y-49935034D01*
X143089823Y-49935034D02*
X142990129Y-49897631D01*
X142990129Y-49897631D02*
X142795719Y-49870182D01*
X142795719Y-49870182D02*
X142653644Y-49885115D01*
X142653644Y-49885115D02*
X142469189Y-49952384D01*
X142469189Y-49952384D02*
X142379450Y-50009697D01*
X142379450Y-50009697D02*
X142294689Y-50114368D01*
X142294689Y-50114368D02*
X142262263Y-50261420D01*
X142262263Y-50261420D02*
X142272218Y-50356137D01*
X142272218Y-50356137D02*
X142334509Y-50493234D01*
X142334509Y-50493234D02*
X142386845Y-50535614D01*
X143296463Y-51445518D02*
X143338843Y-51393182D01*
X143338843Y-51393182D02*
X143371269Y-51246130D01*
X143371269Y-51246130D02*
X143361314Y-51151414D01*
X143361314Y-51151414D02*
X143299023Y-51014317D01*
X143299023Y-51014317D02*
X143194351Y-50929555D01*
X143194351Y-50929555D02*
X143094657Y-50892152D01*
X143094657Y-50892152D02*
X142900247Y-50864704D01*
X142900247Y-50864704D02*
X142758173Y-50879637D01*
X142758173Y-50879637D02*
X142573717Y-50946905D01*
X142573717Y-50946905D02*
X142483979Y-51004219D01*
X142483979Y-51004219D02*
X142399217Y-51108890D01*
X142399217Y-51108890D02*
X142366792Y-51255942D01*
X142366792Y-51255942D02*
X142376747Y-51350659D01*
X142376747Y-51350659D02*
X142439038Y-51487756D01*
X142439038Y-51487756D02*
X142491373Y-51530136D01*
X140621183Y-49284752D02*
X139626661Y-49389281D01*
X139626661Y-49389281D02*
X139666481Y-49768146D01*
X139666481Y-49768146D02*
X139723795Y-49857885D01*
X139723795Y-49857885D02*
X139776130Y-49900266D01*
X139776130Y-49900266D02*
X139875824Y-49937669D01*
X139875824Y-49937669D02*
X140017899Y-49922736D01*
X140017899Y-49922736D02*
X140107638Y-49865423D01*
X140107638Y-49865423D02*
X140150018Y-49813087D01*
X140150018Y-49813087D02*
X140187422Y-49713393D01*
X140187422Y-49713393D02*
X140147601Y-49334528D01*
X139780965Y-50857385D02*
X139731190Y-50383803D01*
X139731190Y-50383803D02*
X140199794Y-50286669D01*
X140199794Y-50286669D02*
X140157413Y-50339005D01*
X140157413Y-50339005D02*
X140120010Y-50438699D01*
X140120010Y-50438699D02*
X140144898Y-50675490D01*
X140144898Y-50675490D02*
X140202211Y-50765228D01*
X140202211Y-50765228D02*
X140254547Y-50807609D01*
X140254547Y-50807609D02*
X140354241Y-50845012D01*
X140354241Y-50845012D02*
X140591032Y-50820124D01*
X140591032Y-50820124D02*
X140680771Y-50762811D01*
X140680771Y-50762811D02*
X140723151Y-50710475D01*
X140723151Y-50710475D02*
X140760554Y-50610781D01*
X140760554Y-50610781D02*
X140735667Y-50373991D01*
X140735667Y-50373991D02*
X140678353Y-50284252D01*
X140678353Y-50284252D02*
X140626018Y-50241871D01*
X138035427Y-49556526D02*
X137040905Y-49661055D01*
X137040905Y-49661055D02*
X137080725Y-50039920D01*
X137080725Y-50039920D02*
X137138039Y-50129659D01*
X137138039Y-50129659D02*
X137190374Y-50172040D01*
X137190374Y-50172040D02*
X137290068Y-50209443D01*
X137290068Y-50209443D02*
X137432143Y-50194510D01*
X137432143Y-50194510D02*
X137521882Y-50137197D01*
X137521882Y-50137197D02*
X137564262Y-50084861D01*
X137564262Y-50084861D02*
X137601666Y-49985167D01*
X137601666Y-49985167D02*
X137561845Y-49606302D01*
X137521739Y-51046957D02*
X138184753Y-50977272D01*
X137117986Y-50849987D02*
X137803471Y-50538533D01*
X137803471Y-50538533D02*
X137868179Y-51154189D01*
%TO.C,S1*%
X42028871Y-93046898D02*
X41675318Y-93659270D01*
X44926649Y-92270441D02*
X42028871Y-93046898D01*
X45539021Y-92623994D02*
X44926649Y-92270441D01*
X45539021Y-92623994D02*
X45777135Y-93512646D01*
X46429531Y-93938297D02*
X50756879Y-92778788D01*
X50756879Y-92778788D02*
X50912170Y-93358343D01*
X46429531Y-93938297D02*
G75*
G02*
X45777134Y-93512646I-113373J539024D01*
G01*
X43193557Y-97393564D02*
X42581184Y-97040011D01*
X45415186Y-96798280D02*
X43193557Y-97393564D01*
X47626662Y-98483325D02*
X47445489Y-97807177D01*
X51973328Y-97318639D02*
X47626662Y-98483325D01*
X51843919Y-96835676D02*
X51973328Y-97318639D01*
X45415186Y-96798280D02*
G75*
G02*
X47440312Y-97787858I517774J-1507352D01*
G01*
%TO.C,S2*%
X37628947Y-76626159D02*
X37275394Y-77238531D01*
X40526725Y-75849702D02*
X37628947Y-76626159D01*
X41139097Y-76203255D02*
X40526725Y-75849702D01*
X41139097Y-76203255D02*
X41377211Y-77091907D01*
X42029607Y-77517558D02*
X46356955Y-76358049D01*
X46356955Y-76358049D02*
X46512246Y-76937604D01*
X42029607Y-77517558D02*
G75*
G02*
X41377210Y-77091907I-113373J539024D01*
G01*
X38793633Y-80972825D02*
X38181260Y-80619272D01*
X41015262Y-80377541D02*
X38793633Y-80972825D01*
X43226738Y-82062586D02*
X43045565Y-81386438D01*
X47573404Y-80897900D02*
X43226738Y-82062586D01*
X47443995Y-80414937D02*
X47573404Y-80897900D01*
X41015262Y-80377541D02*
G75*
G02*
X43040388Y-81367119I517774J-1507352D01*
G01*
%TO.C,S3*%
X33229024Y-60205420D02*
X32875471Y-60817792D01*
X36126802Y-59428963D02*
X33229024Y-60205420D01*
X36739174Y-59782516D02*
X36126802Y-59428963D01*
X36739174Y-59782516D02*
X36977288Y-60671168D01*
X37629684Y-61096819D02*
X41957032Y-59937310D01*
X41957032Y-59937310D02*
X42112323Y-60516865D01*
X37629684Y-61096819D02*
G75*
G02*
X36977287Y-60671168I-113373J539024D01*
G01*
X34393710Y-64552086D02*
X33781337Y-64198533D01*
X36615339Y-63956802D02*
X34393710Y-64552086D01*
X38826815Y-65641847D02*
X38645642Y-64965699D01*
X43173481Y-64477161D02*
X38826815Y-65641847D01*
X43044072Y-63994198D02*
X43173481Y-64477161D01*
X36615339Y-63956802D02*
G75*
G02*
X38640465Y-64946380I517774J-1507352D01*
G01*
%TO.C,S4*%
X28829100Y-43784681D02*
X28475547Y-44397053D01*
X31726878Y-43008224D02*
X28829100Y-43784681D01*
X32339250Y-43361777D02*
X31726878Y-43008224D01*
X32339250Y-43361777D02*
X32577364Y-44250429D01*
X33229760Y-44676080D02*
X37557108Y-43516571D01*
X37557108Y-43516571D02*
X37712399Y-44096126D01*
X33229760Y-44676080D02*
G75*
G02*
X32577363Y-44250429I-113373J539024D01*
G01*
X29993786Y-48131347D02*
X29381413Y-47777794D01*
X32215415Y-47536063D02*
X29993786Y-48131347D01*
X34426891Y-49221108D02*
X34245718Y-48544960D01*
X38773557Y-48056422D02*
X34426891Y-49221108D01*
X38644148Y-47573459D02*
X38773557Y-48056422D01*
X32215415Y-47536063D02*
G75*
G02*
X34240541Y-48525641I517774J-1507352D01*
G01*
%TO.C,S5*%
X58580608Y-79742387D02*
X58195490Y-80335417D01*
X61515051Y-79118652D02*
X58580608Y-79742387D01*
X62108080Y-79503770D02*
X61515051Y-79118652D01*
X62108080Y-79503770D02*
X62299359Y-80403666D01*
X62928584Y-80862877D02*
X67310686Y-79931433D01*
X67310686Y-79931433D02*
X67435433Y-80518322D01*
X62928584Y-80862877D02*
G75*
G02*
X62299359Y-80403666I-85007J544218D01*
G01*
X59516210Y-84144051D02*
X58923181Y-83758933D01*
X61765950Y-83665855D02*
X59516210Y-84144051D01*
X63886206Y-85464329D02*
X63740668Y-84779626D01*
X68287871Y-84528727D02*
X63886206Y-85464329D01*
X68183915Y-84039653D02*
X68287871Y-84528727D01*
X61765950Y-83665855D02*
G75*
G02*
X63736510Y-84760063I438176J-1532384D01*
G01*
%TO.C,S6*%
X55046109Y-63113877D02*
X54660991Y-63706907D01*
X57980552Y-62490142D02*
X55046109Y-63113877D01*
X58573581Y-62875260D02*
X57980552Y-62490142D01*
X58573581Y-62875260D02*
X58764860Y-63775156D01*
X59394085Y-64234367D02*
X63776187Y-63302923D01*
X63776187Y-63302923D02*
X63900934Y-63889812D01*
X59394085Y-64234367D02*
G75*
G02*
X58764860Y-63775156I-85007J544218D01*
G01*
X55981711Y-67515541D02*
X55388682Y-67130423D01*
X58231451Y-67037345D02*
X55981711Y-67515541D01*
X60351707Y-68835819D02*
X60206169Y-68151116D01*
X64753372Y-67900217D02*
X60351707Y-68835819D01*
X64649416Y-67411143D02*
X64753372Y-67900217D01*
X58231451Y-67037345D02*
G75*
G02*
X60202011Y-68131553I438176J-1532384D01*
G01*
%TO.C,S7*%
X51511611Y-46485368D02*
X51126493Y-47078398D01*
X54446054Y-45861633D02*
X51511611Y-46485368D01*
X55039083Y-46246751D02*
X54446054Y-45861633D01*
X55039083Y-46246751D02*
X55230362Y-47146647D01*
X55859587Y-47605858D02*
X60241689Y-46674414D01*
X60241689Y-46674414D02*
X60366436Y-47261303D01*
X55859587Y-47605858D02*
G75*
G02*
X55230362Y-47146647I-85007J544218D01*
G01*
X52447213Y-50887032D02*
X51854184Y-50501914D01*
X54696953Y-50408836D02*
X52447213Y-50887032D01*
X56817209Y-52207310D02*
X56671671Y-51522607D01*
X61218874Y-51271708D02*
X56817209Y-52207310D01*
X61114918Y-50782634D02*
X61218874Y-51271708D01*
X54696953Y-50408836D02*
G75*
G02*
X56667513Y-51503044I438176J-1532384D01*
G01*
%TO.C,S8*%
X47977112Y-29856859D02*
X47591994Y-30449889D01*
X50911555Y-29233124D02*
X47977112Y-29856859D01*
X51504584Y-29618242D02*
X50911555Y-29233124D01*
X51504584Y-29618242D02*
X51695863Y-30518138D01*
X52325088Y-30977349D02*
X56707190Y-30045905D01*
X56707190Y-30045905D02*
X56831937Y-30632794D01*
X52325088Y-30977349D02*
G75*
G02*
X51695863Y-30518138I-85007J544218D01*
G01*
X48912714Y-34258523D02*
X48319685Y-33873405D01*
X51162454Y-33780327D02*
X48912714Y-34258523D01*
X53282710Y-35578801D02*
X53137172Y-34894098D01*
X57684375Y-34643199D02*
X53282710Y-35578801D01*
X57580419Y-34154125D02*
X57684375Y-34643199D01*
X51162454Y-33780327D02*
G75*
G02*
X53133014Y-34874535I438176J-1532384D01*
G01*
%TO.C,S9*%
X77467699Y-69900299D02*
X77052072Y-70472361D01*
X80430764Y-69430996D02*
X77467699Y-69900299D01*
X81002825Y-69846623D02*
X80430764Y-69430996D01*
X81002825Y-69846623D02*
X81146745Y-70755296D01*
X81751075Y-71246809D02*
X86175919Y-70545983D01*
X86175919Y-70545983D02*
X86269779Y-71138596D01*
X81751075Y-71246809D02*
G75*
G02*
X81146746Y-70755296I-56408J547921D01*
G01*
X78171654Y-74344897D02*
X77599593Y-73929270D01*
X80443337Y-73985098D02*
X78171654Y-74344897D01*
X82466563Y-75892073D02*
X82357059Y-75200691D01*
X86911161Y-75188118D02*
X82466563Y-75892073D01*
X86832943Y-74694274D02*
X86911161Y-75188118D01*
X80443337Y-73985098D02*
G75*
G02*
X82353930Y-75180938I357377J-1553216D01*
G01*
%TO.C,S10*%
X75005851Y-53078310D02*
X74590224Y-53650372D01*
X77968916Y-52609007D02*
X75005851Y-53078310D01*
X78540977Y-53024634D02*
X77968916Y-52609007D01*
X78540977Y-53024634D02*
X78684897Y-53933307D01*
X79289227Y-54424820D02*
X83714071Y-53723994D01*
X83714071Y-53723994D02*
X83807931Y-54316607D01*
X79289227Y-54424820D02*
G75*
G02*
X78684898Y-53933307I-56408J547921D01*
G01*
X75709806Y-57522908D02*
X75137745Y-57107281D01*
X77981489Y-57163109D02*
X75709806Y-57522908D01*
X80004715Y-59070084D02*
X79895211Y-58378702D01*
X84449313Y-58366129D02*
X80004715Y-59070084D01*
X84371095Y-57872285D02*
X84449313Y-58366129D01*
X77981489Y-57163109D02*
G75*
G02*
X79892082Y-58358949I357377J-1553216D01*
G01*
%TO.C,S11*%
X72544002Y-36256321D02*
X72128375Y-36828383D01*
X75507067Y-35787018D02*
X72544002Y-36256321D01*
X76079128Y-36202645D02*
X75507067Y-35787018D01*
X76079128Y-36202645D02*
X76223048Y-37111318D01*
X76827378Y-37602831D02*
X81252222Y-36902005D01*
X81252222Y-36902005D02*
X81346082Y-37494618D01*
X76827378Y-37602831D02*
G75*
G02*
X76223049Y-37111318I-56408J547921D01*
G01*
X73247957Y-40700919D02*
X72675896Y-40285292D01*
X75519640Y-40341120D02*
X73247957Y-40700919D01*
X77542866Y-42248095D02*
X77433362Y-41556713D01*
X81987464Y-41544140D02*
X77542866Y-42248095D01*
X81909246Y-41050296D02*
X81987464Y-41544140D01*
X75519640Y-40341120D02*
G75*
G02*
X77430233Y-41536960I357377J-1553216D01*
G01*
%TO.C,S12*%
X70082154Y-19434332D02*
X69666527Y-20006394D01*
X73045219Y-18965029D02*
X70082154Y-19434332D01*
X73617280Y-19380656D02*
X73045219Y-18965029D01*
X73617280Y-19380656D02*
X73761200Y-20289329D01*
X74365530Y-20780842D02*
X78790374Y-20080016D01*
X78790374Y-20080016D02*
X78884234Y-20672629D01*
X74365530Y-20780842D02*
G75*
G02*
X73761201Y-20289329I-56408J547921D01*
G01*
X70786109Y-23878930D02*
X70214048Y-23463303D01*
X73057792Y-23519131D02*
X70786109Y-23878930D01*
X75081018Y-25426106D02*
X74971514Y-24734724D01*
X79525616Y-24722151D02*
X75081018Y-25426106D01*
X79447398Y-24228307D02*
X79525616Y-24722151D01*
X73057792Y-23519131D02*
G75*
G02*
X74968385Y-24714971I357377J-1553216D01*
G01*
%TO.C,S13*%
X81320895Y-93589175D02*
X80905268Y-94161237D01*
X84283960Y-93119872D02*
X81320895Y-93589175D01*
X84856021Y-93535499D02*
X84283960Y-93119872D01*
X84856021Y-93535499D02*
X84999941Y-94444172D01*
X85604271Y-94935685D02*
X90029115Y-94234859D01*
X90029115Y-94234859D02*
X90122975Y-94827472D01*
X85604271Y-94935685D02*
G75*
G02*
X84999942Y-94444172I-56408J547921D01*
G01*
X82024850Y-98033773D02*
X81452789Y-97618146D01*
X84296533Y-97673974D02*
X82024850Y-98033773D01*
X86319759Y-99580949D02*
X86210255Y-98889567D01*
X90764357Y-98876994D02*
X86319759Y-99580949D01*
X90686139Y-98383150D02*
X90764357Y-98876994D01*
X84296533Y-97673974D02*
G75*
G02*
X86207126Y-98869814I357377J-1553216D01*
G01*
%TO.C,S14*%
X98220482Y-72306167D02*
X97775485Y-72855692D01*
X101204047Y-71992582D02*
X98220482Y-72306167D01*
X101753573Y-72437578D02*
X101204047Y-71992582D01*
X101753573Y-72437578D02*
X101849739Y-73352539D01*
X102427517Y-73875007D02*
X106882975Y-73406719D01*
X106882975Y-73406719D02*
X106945692Y-74003432D01*
X102427517Y-73875007D02*
G75*
G02*
X101849739Y-73352539I-27655J550123D01*
G01*
X98690860Y-76781516D02*
X98141335Y-76336519D01*
X100978260Y-76541100D02*
X98690860Y-76781516D01*
X102898910Y-78551350D02*
X102825740Y-77855185D01*
X107374259Y-78080972D02*
X102898910Y-78551350D01*
X107321994Y-77583711D02*
X107374259Y-78080972D01*
X100978260Y-76541100D02*
G75*
G02*
X102823650Y-77835294I275598J-1569792D01*
G01*
%TO.C,S15*%
X96443499Y-55399295D02*
X95998502Y-55948820D01*
X99427064Y-55085710D02*
X96443499Y-55399295D01*
X99976590Y-55530706D02*
X99427064Y-55085710D01*
X99976590Y-55530706D02*
X100072756Y-56445667D01*
X100650534Y-56968135D02*
X105105992Y-56499847D01*
X105105992Y-56499847D02*
X105168709Y-57096560D01*
X100650534Y-56968135D02*
G75*
G02*
X100072756Y-56445667I-27655J550123D01*
G01*
X96913877Y-59874644D02*
X96364352Y-59429647D01*
X99201277Y-59634228D02*
X96913877Y-59874644D01*
X101121927Y-61644478D02*
X101048757Y-60948313D01*
X105597276Y-61174100D02*
X101121927Y-61644478D01*
X105545011Y-60676839D02*
X105597276Y-61174100D01*
X99201277Y-59634228D02*
G75*
G02*
X101046667Y-60928422I275598J-1569792D01*
G01*
%TO.C,S16*%
X94666515Y-38492423D02*
X94221518Y-39041948D01*
X97650080Y-38178838D02*
X94666515Y-38492423D01*
X98199606Y-38623834D02*
X97650080Y-38178838D01*
X98199606Y-38623834D02*
X98295772Y-39538795D01*
X98873550Y-40061263D02*
X103329008Y-39592975D01*
X103329008Y-39592975D02*
X103391725Y-40189688D01*
X98873550Y-40061263D02*
G75*
G02*
X98295772Y-39538795I-27655J550123D01*
G01*
X95136893Y-42967772D02*
X94587368Y-42522775D01*
X97424293Y-42727356D02*
X95136893Y-42967772D01*
X99344943Y-44737606D02*
X99271773Y-44041441D01*
X103820292Y-44267228D02*
X99344943Y-44737606D01*
X103768027Y-43769967D02*
X103820292Y-44267228D01*
X97424293Y-42727356D02*
G75*
G02*
X99269683Y-44021550I275598J-1569792D01*
G01*
%TO.C,S17*%
X92889531Y-21585550D02*
X92444534Y-22135075D01*
X95873096Y-21271965D02*
X92889531Y-21585550D01*
X96422622Y-21716961D02*
X95873096Y-21271965D01*
X96422622Y-21716961D02*
X96518788Y-22631922D01*
X97096566Y-23154390D02*
X101552024Y-22686102D01*
X101552024Y-22686102D02*
X101614741Y-23282815D01*
X97096566Y-23154390D02*
G75*
G02*
X96518788Y-22631922I-27655J550123D01*
G01*
X93359909Y-26060899D02*
X92810384Y-25615902D01*
X95647309Y-25820483D02*
X93359909Y-26060899D01*
X97567959Y-27830733D02*
X97494789Y-27134568D01*
X102043308Y-27360355D02*
X97567959Y-27830733D01*
X101991043Y-26863094D02*
X102043308Y-27360355D01*
X95647309Y-25820483D02*
G75*
G02*
X97492699Y-27114677I275598J-1569792D01*
G01*
%TO.C,S18*%
X118319977Y-72204641D02*
X117874980Y-72754166D01*
X121303542Y-71891056D02*
X118319977Y-72204641D01*
X121853068Y-72336052D02*
X121303542Y-71891056D01*
X121853068Y-72336052D02*
X121949234Y-73251013D01*
X122527012Y-73773481D02*
X126982470Y-73305193D01*
X126982470Y-73305193D02*
X127045187Y-73901906D01*
X122527012Y-73773481D02*
G75*
G02*
X121949234Y-73251013I-27655J550123D01*
G01*
X118790355Y-76679990D02*
X118240830Y-76234993D01*
X121077755Y-76439574D02*
X118790355Y-76679990D01*
X122998405Y-78449824D02*
X122925235Y-77753659D01*
X127473754Y-77979446D02*
X122998405Y-78449824D01*
X127421489Y-77482185D02*
X127473754Y-77979446D01*
X121077755Y-76439574D02*
G75*
G02*
X122923145Y-77733768I275598J-1569792D01*
G01*
%TO.C,S19*%
X116542994Y-55297769D02*
X116097997Y-55847294D01*
X119526559Y-54984184D02*
X116542994Y-55297769D01*
X120076085Y-55429180D02*
X119526559Y-54984184D01*
X120076085Y-55429180D02*
X120172251Y-56344141D01*
X120750029Y-56866609D02*
X125205487Y-56398321D01*
X125205487Y-56398321D02*
X125268204Y-56995034D01*
X120750029Y-56866609D02*
G75*
G02*
X120172251Y-56344141I-27655J550123D01*
G01*
X117013372Y-59773118D02*
X116463847Y-59328121D01*
X119300772Y-59532702D02*
X117013372Y-59773118D01*
X121221422Y-61542952D02*
X121148252Y-60846787D01*
X125696771Y-61072574D02*
X121221422Y-61542952D01*
X125644506Y-60575313D02*
X125696771Y-61072574D01*
X119300772Y-59532702D02*
G75*
G02*
X121146162Y-60826896I275598J-1569792D01*
G01*
%TO.C,S20*%
X114766010Y-38390897D02*
X114321013Y-38940422D01*
X117749575Y-38077312D02*
X114766010Y-38390897D01*
X118299101Y-38522308D02*
X117749575Y-38077312D01*
X118299101Y-38522308D02*
X118395267Y-39437269D01*
X118973045Y-39959737D02*
X123428503Y-39491449D01*
X123428503Y-39491449D02*
X123491220Y-40088162D01*
X118973045Y-39959737D02*
G75*
G02*
X118395267Y-39437269I-27655J550123D01*
G01*
X115236388Y-42866246D02*
X114686863Y-42421249D01*
X117523788Y-42625830D02*
X115236388Y-42866246D01*
X119444438Y-44636080D02*
X119371268Y-43939915D01*
X123919787Y-44165702D02*
X119444438Y-44636080D01*
X123867522Y-43668441D02*
X123919787Y-44165702D01*
X117523788Y-42625830D02*
G75*
G02*
X119369178Y-43920024I275598J-1569792D01*
G01*
%TO.C,S21*%
X112989026Y-21484025D02*
X112544029Y-22033550D01*
X115972591Y-21170440D02*
X112989026Y-21484025D01*
X116522117Y-21615436D02*
X115972591Y-21170440D01*
X116522117Y-21615436D02*
X116618283Y-22530397D01*
X117196061Y-23052865D02*
X121651519Y-22584577D01*
X121651519Y-22584577D02*
X121714236Y-23181290D01*
X117196061Y-23052865D02*
G75*
G02*
X116618283Y-22530397I-27655J550123D01*
G01*
X113459404Y-25959374D02*
X112909879Y-25514377D01*
X115746804Y-25718958D02*
X113459404Y-25959374D01*
X117667454Y-27729208D02*
X117594284Y-27033043D01*
X122142803Y-27258830D02*
X117667454Y-27729208D01*
X122090538Y-26761569D02*
X122142803Y-27258830D01*
X115746804Y-25718958D02*
G75*
G02*
X117592194Y-27013152I275598J-1569792D01*
G01*
%TO.C,S22*%
X106278183Y-91569434D02*
X105833186Y-92118959D01*
X109261748Y-91255849D02*
X106278183Y-91569434D01*
X109811274Y-91700845D02*
X109261748Y-91255849D01*
X109811274Y-91700845D02*
X109907440Y-92615806D01*
X110485218Y-93138274D02*
X114940676Y-92669986D01*
X114940676Y-92669986D02*
X115003393Y-93266699D01*
X110485218Y-93138274D02*
G75*
G02*
X109907440Y-92615806I-27655J550123D01*
G01*
X106748561Y-96044783D02*
X106199036Y-95599786D01*
X109035961Y-95804367D02*
X106748561Y-96044783D01*
X110956611Y-97814617D02*
X110883441Y-97118452D01*
X115431960Y-97344239D02*
X110956611Y-97814617D01*
X115379695Y-96846978D02*
X115431960Y-97344239D01*
X109035961Y-95804367D02*
G75*
G02*
X110881351Y-97098561I275598J-1569792D01*
G01*
%TO.C,S23*%
X145925933Y-73675683D02*
X145265792Y-73929088D01*
X148666570Y-74895893D02*
X145925933Y-73675683D01*
X148919974Y-75556034D02*
X148666570Y-74895893D01*
X148919974Y-75556034D02*
X148545776Y-76396496D01*
X148784913Y-77137856D02*
X152877596Y-78960036D01*
X152877596Y-78960036D02*
X152633554Y-79508163D01*
X148784913Y-77137856D02*
G75*
G02*
X148545776Y-76396496I251111J490248D01*
G01*
X144095618Y-77786638D02*
X143842214Y-77126497D01*
X146196773Y-78722132D02*
X144095618Y-77786638D01*
X146854980Y-81423384D02*
X147139695Y-80783903D01*
X150965934Y-83253699D02*
X146854980Y-81423384D01*
X151169302Y-82796927D02*
X150965934Y-83253699D01*
X146196773Y-78722132D02*
G75*
G02*
X147147830Y-80765632I-546221J-1497278D01*
G01*
%TO.C,S24*%
X136877654Y-91539856D02*
X136217513Y-91793261D01*
X139618291Y-92760066D02*
X136877654Y-91539856D01*
X139871695Y-93420207D02*
X139618291Y-92760066D01*
X139871695Y-93420207D02*
X139497497Y-94260669D01*
X139736634Y-95002029D02*
X143829317Y-96824209D01*
X143829317Y-96824209D02*
X143585275Y-97372336D01*
X139736634Y-95002029D02*
G75*
G02*
X139497497Y-94260669I251111J490248D01*
G01*
X135047339Y-95650811D02*
X134793935Y-94990670D01*
X137148494Y-96586305D02*
X135047339Y-95650811D01*
X137806701Y-99287557D02*
X138091416Y-98648076D01*
X141917655Y-101117872D02*
X137806701Y-99287557D01*
X142121023Y-100661100D02*
X141917655Y-101117872D01*
X137148494Y-96586305D02*
G75*
G02*
X138099551Y-98629805I-546221J-1497278D01*
G01*
%TO.C,S25*%
X166590504Y-84575198D02*
X165896389Y-84710120D01*
X169077617Y-86252776D02*
X166590504Y-84575198D01*
X169212540Y-86946891D02*
X169077617Y-86252776D01*
X169212540Y-86946891D02*
X168698082Y-87709606D01*
X168804850Y-88481228D02*
X172518938Y-90986412D01*
X172518938Y-90986412D02*
X172183422Y-91483835D01*
X168804850Y-88481228D02*
G75*
G02*
X168698082Y-87709606I332427J439195D01*
G01*
X164074136Y-88305867D02*
X163939214Y-87611751D01*
X165980923Y-89592010D02*
X164074136Y-88305867D01*
X166160062Y-92366521D02*
X166551497Y-91786195D01*
X169890731Y-94882889D02*
X166160062Y-92366521D01*
X170170328Y-94468370D02*
X169890731Y-94882889D01*
X165980923Y-89592010D02*
G75*
G02*
X166562681Y-91769614I-797923J-1379681D01*
G01*
%TO.C,S26*%
X155406646Y-101155950D02*
X154712531Y-101290872D01*
X157893759Y-102833528D02*
X155406646Y-101155950D01*
X158028682Y-103527643D02*
X157893759Y-102833528D01*
X158028682Y-103527643D02*
X157514224Y-104290358D01*
X157620992Y-105061980D02*
X161335080Y-107567164D01*
X161335080Y-107567164D02*
X160999564Y-108064587D01*
X157620992Y-105061980D02*
G75*
G02*
X157514224Y-104290358I332427J439195D01*
G01*
X152890278Y-104886619D02*
X152755356Y-104192503D01*
X154797065Y-106172762D02*
X152890278Y-104886619D01*
X154976204Y-108947273D02*
X155367639Y-108366947D01*
X158706873Y-111463641D02*
X154976204Y-108947273D01*
X158986470Y-111049122D02*
X158706873Y-111463641D01*
X154797065Y-106172762D02*
G75*
G02*
X155378823Y-108350366I-797923J-1379681D01*
G01*
D11*
%TO.C,MCU1*%
X132478912Y-13573442D02*
X129833484Y-13851488D01*
X132478912Y-13573442D02*
X135677483Y-44005812D01*
X135677483Y-44005812D02*
X133032055Y-44283858D01*
X129833484Y-13851488D02*
X133032055Y-44283858D01*
X147635426Y-11980428D02*
X144989997Y-12258474D01*
X147635426Y-11980428D02*
X150833997Y-42412798D01*
X150833997Y-42412798D02*
X148188568Y-42690844D01*
X144989997Y-12258474D02*
X148188568Y-42690844D01*
X130105258Y-16437244D02*
X132750686Y-16159199D01*
D12*
%TO.C,RST1*%
X121142918Y-11527166D02*
X121116786Y-11278536D01*
X121456503Y-14510732D02*
X121482635Y-14759362D01*
X121365416Y-11252403D02*
X121116786Y-11278536D01*
X121731266Y-14733230D02*
X121482635Y-14759362D01*
X125542408Y-10813384D02*
X125791039Y-10787252D01*
X125908258Y-14294211D02*
X126156888Y-14268078D01*
X125817171Y-11035882D02*
X125791039Y-10787252D01*
X126130756Y-14019448D02*
X126156888Y-14268078D01*
%TO.C,JST1*%
X151802234Y-46363231D02*
X152796755Y-46258702D01*
X154785799Y-46049645D02*
X153791277Y-46154174D01*
X154340802Y-46599170D02*
X154236274Y-45604649D01*
D11*
X156268854Y-54802573D02*
X157263376Y-54698045D01*
X157263376Y-54698045D02*
X157158847Y-53703523D01*
X152091862Y-55241593D02*
X151176902Y-55337759D01*
X151176902Y-55337759D02*
X151072373Y-54343237D01*
X155531003Y-47017050D02*
X156445963Y-46920884D01*
X156445963Y-46920884D02*
X156550491Y-47915406D01*
X151274449Y-47464432D02*
X150359489Y-47560598D01*
X150359489Y-47560598D02*
X150464017Y-48555120D01*
%TO.C,PWR1*%
X115232902Y-15089446D02*
X115431806Y-15068540D01*
X117079339Y-13045242D02*
X117161917Y-13830915D01*
X110299716Y-14552161D02*
X110217138Y-13766489D01*
X112249336Y-15403031D02*
X113940023Y-15225333D01*
X110708278Y-12699304D02*
X116377052Y-12103492D01*
%TO.C,DISP1*%
X148548327Y-44965701D02*
X148826373Y-47611129D01*
X148548327Y-44965701D02*
X135798556Y-46305756D01*
X148826373Y-47611129D02*
X136076602Y-48951184D01*
X135798556Y-46305756D02*
X136076602Y-48951184D01*
%TD*%
M02*
