%TF.GenerationSoftware,KiCad,Pcbnew,9.0.2*%
%TF.CreationDate,2025-05-27T05:35:02-06:00*%
%TF.ProjectId,keeb,6b656562-2e6b-4696-9361-645f70636258,v1.0.0*%
%TF.SameCoordinates,Original*%
%TF.FileFunction,Copper,L1,Top*%
%TF.FilePolarity,Positive*%
%FSLAX46Y46*%
G04 Gerber Fmt 4.6, Leading zero omitted, Abs format (unit mm)*
G04 Created by KiCad (PCBNEW 9.0.2) date 2025-05-27 05:35:02*
%MOMM*%
%LPD*%
G01*
G04 APERTURE LIST*
G04 Aperture macros list*
%AMHorizOval*
0 Thick line with rounded ends*
0 $1 width*
0 $2 $3 position (X,Y) of the first rounded end (center of the circle)*
0 $4 $5 position (X,Y) of the second rounded end (center of the circle)*
0 Add line between two ends*
20,1,$1,$2,$3,$4,$5,0*
0 Add two circle primitives to create the rounded ends*
1,1,$1,$2,$3*
1,1,$1,$4,$5*%
%AMRotRect*
0 Rectangle, with rotation*
0 The origin of the aperture is its center*
0 $1 length*
0 $2 width*
0 $3 Rotation angle, in degrees counterclockwise*
0 Add horizontal line*
21,1,$1,$2,0,0,$3*%
%AMOutline5P*
0 Free polygon, 5 corners , with rotation*
0 The origin of the aperture is its center*
0 number of corners: always 5*
0 $1 to $10 corner X, Y*
0 $11 Rotation angle, in degrees counterclockwise*
0 create outline with 5 corners*
4,1,5,$1,$2,$3,$4,$5,$6,$7,$8,$9,$10,$1,$2,$11*%
%AMOutline6P*
0 Free polygon, 6 corners , with rotation*
0 The origin of the aperture is its center*
0 number of corners: always 6*
0 $1 to $12 corner X, Y*
0 $13 Rotation angle, in degrees counterclockwise*
0 create outline with 6 corners*
4,1,6,$1,$2,$3,$4,$5,$6,$7,$8,$9,$10,$11,$12,$1,$2,$13*%
%AMOutline7P*
0 Free polygon, 7 corners , with rotation*
0 The origin of the aperture is its center*
0 number of corners: always 7*
0 $1 to $14 corner X, Y*
0 $15 Rotation angle, in degrees counterclockwise*
0 create outline with 7 corners*
4,1,7,$1,$2,$3,$4,$5,$6,$7,$8,$9,$10,$11,$12,$13,$14,$1,$2,$15*%
%AMOutline8P*
0 Free polygon, 8 corners , with rotation*
0 The origin of the aperture is its center*
0 number of corners: always 8*
0 $1 to $16 corner X, Y*
0 $17 Rotation angle, in degrees counterclockwise*
0 create outline with 8 corners*
4,1,8,$1,$2,$3,$4,$5,$6,$7,$8,$9,$10,$11,$12,$13,$14,$15,$16,$1,$2,$17*%
%AMFreePoly0*
4,1,6,0.250000,0.000000,-0.250000,-0.625000,-0.500000,-0.625000,-0.500000,0.625000,-0.250000,0.625000,0.250000,0.000000,0.250000,0.000000,$1*%
%AMFreePoly1*
4,1,6,0.500000,-0.625000,-0.650000,-0.625000,-0.150000,0.000000,-0.650000,0.625000,0.500000,0.625000,0.500000,-0.625000,0.500000,-0.625000,$1*%
%AMFreePoly2*
4,1,6,0.600000,-0.200000,0.600000,-0.400000,-0.600000,-0.400000,-0.600000,-0.200000,0.000000,0.400000,0.600000,-0.200000,0.600000,-0.200000,$1*%
%AMFreePoly3*
4,1,6,0.600000,-1.000000,0.000000,-0.400000,-0.600000,-1.000000,-0.600000,0.250000,0.600000,0.250000,0.600000,-1.000000,0.600000,-1.000000,$1*%
G04 Aperture macros list end*
%TA.AperFunction,SMDPad,CuDef*%
%ADD10Outline5P,-1.300000X1.300000X1.300000X1.300000X1.300000X-0.117000X0.117000X-1.300000X-1.300000X-1.300000X15.000000*%
%TD*%
%TA.AperFunction,SMDPad,CuDef*%
%ADD11RotRect,2.000000X2.600000X15.000000*%
%TD*%
%TA.AperFunction,SMDPad,CuDef*%
%ADD12Outline5P,-1.300000X1.300000X1.300000X1.300000X1.300000X-0.117000X0.117000X-1.300000X-1.300000X-1.300000X12.000000*%
%TD*%
%TA.AperFunction,SMDPad,CuDef*%
%ADD13RotRect,2.000000X2.600000X12.000000*%
%TD*%
%TA.AperFunction,SMDPad,CuDef*%
%ADD14Outline5P,-1.300000X1.300000X1.300000X1.300000X1.300000X-0.117000X0.117000X-1.300000X-1.300000X-1.300000X9.000000*%
%TD*%
%TA.AperFunction,SMDPad,CuDef*%
%ADD15RotRect,2.000000X2.600000X9.000000*%
%TD*%
%TA.AperFunction,SMDPad,CuDef*%
%ADD16Outline5P,-1.300000X1.300000X1.300000X1.300000X1.300000X-0.117000X0.117000X-1.300000X-1.300000X-1.300000X6.000000*%
%TD*%
%TA.AperFunction,SMDPad,CuDef*%
%ADD17RotRect,2.000000X2.600000X6.000000*%
%TD*%
%TA.AperFunction,SMDPad,CuDef*%
%ADD18Outline5P,-1.300000X1.300000X1.300000X1.300000X1.300000X-0.117000X0.117000X-1.300000X-1.300000X-1.300000X336.000000*%
%TD*%
%TA.AperFunction,SMDPad,CuDef*%
%ADD19RotRect,2.000000X2.600000X336.000000*%
%TD*%
%TA.AperFunction,SMDPad,CuDef*%
%ADD20Outline5P,-1.300000X1.300000X1.300000X1.300000X1.300000X-0.117000X0.117000X-1.300000X-1.300000X-1.300000X326.000000*%
%TD*%
%TA.AperFunction,SMDPad,CuDef*%
%ADD21RotRect,2.000000X2.600000X326.000000*%
%TD*%
%TA.AperFunction,SMDPad,CuDef*%
%ADD22RotRect,0.900000X1.200000X15.000000*%
%TD*%
%TA.AperFunction,SMDPad,CuDef*%
%ADD23RotRect,0.900000X1.200000X12.000000*%
%TD*%
%TA.AperFunction,SMDPad,CuDef*%
%ADD24RotRect,0.900000X1.200000X9.000000*%
%TD*%
%TA.AperFunction,SMDPad,CuDef*%
%ADD25RotRect,0.900000X1.200000X6.000000*%
%TD*%
%TA.AperFunction,SMDPad,CuDef*%
%ADD26RotRect,0.900000X1.200000X336.000000*%
%TD*%
%TA.AperFunction,SMDPad,CuDef*%
%ADD27RotRect,0.900000X1.200000X326.000000*%
%TD*%
%TA.AperFunction,ComponentPad*%
%ADD28C,1.700000*%
%TD*%
%TA.AperFunction,ComponentPad*%
%ADD29C,0.800000*%
%TD*%
%TA.AperFunction,SMDPad,CuDef*%
%ADD30FreePoly0,6.000000*%
%TD*%
%TA.AperFunction,SMDPad,CuDef*%
%ADD31FreePoly1,6.000000*%
%TD*%
%TA.AperFunction,SMDPad,CuDef*%
%ADD32FreePoly1,186.000000*%
%TD*%
%TA.AperFunction,SMDPad,CuDef*%
%ADD33FreePoly0,186.000000*%
%TD*%
%TA.AperFunction,SMDPad,CuDef*%
%ADD34RotRect,1.550000X1.000000X186.000000*%
%TD*%
%TA.AperFunction,ComponentPad*%
%ADD35HorizOval,1.100000X0.248630X0.026132X-0.248630X-0.026132X0*%
%TD*%
%TA.AperFunction,ComponentPad*%
%ADD36Outline6P,-1.300000X0.540000X-0.940000X0.900000X0.940000X0.900000X1.300000X0.540000X1.300000X-0.900000X-1.300000X-0.900000X276.000000*%
%TD*%
%TA.AperFunction,ComponentPad*%
%ADD37Outline6P,-1.300000X0.900000X1.300000X0.900000X1.300000X-0.540000X0.940000X-0.900000X-0.940000X-0.900000X-1.300000X-0.540000X276.000000*%
%TD*%
%TA.AperFunction,ComponentPad*%
%ADD38HorizOval,1.200000X-0.028745X0.273494X0.028745X-0.273494X0*%
%TD*%
%TA.AperFunction,SMDPad,CuDef*%
%ADD39FreePoly2,6.000000*%
%TD*%
%TA.AperFunction,SMDPad,CuDef*%
%ADD40FreePoly3,6.000000*%
%TD*%
%TA.AperFunction,SMDPad,CuDef*%
%ADD41RotRect,1.000000X0.800000X186.000000*%
%TD*%
%TA.AperFunction,SMDPad,CuDef*%
%ADD42RotRect,0.700000X1.500000X186.000000*%
%TD*%
%TA.AperFunction,SMDPad,CuDef*%
%ADD43RotRect,0.600000X1.200000X96.000000*%
%TD*%
%TA.AperFunction,ComponentPad*%
%ADD44HorizOval,1.700000X0.000000X0.000000X0.000000X0.000000X0*%
%TD*%
%TA.AperFunction,ViaPad*%
%ADD45C,0.600000*%
%TD*%
%TA.AperFunction,Conductor*%
%ADD46C,0.200000*%
%TD*%
%TA.AperFunction,Conductor*%
%ADD47C,0.250000*%
%TD*%
G04 APERTURE END LIST*
D10*
%TO.P,S1,1*%
%TO.N,P21*%
X47223510Y-93984370D03*
D11*
%TO.P,S1,2*%
%TO.N,pinky_bottom*%
X36926246Y-99021121D03*
%TD*%
D10*
%TO.P,S2,1*%
%TO.N,P21*%
X42823586Y-77563631D03*
D11*
%TO.P,S2,2*%
%TO.N,pinky_home*%
X32526322Y-82600382D03*
%TD*%
D10*
%TO.P,S3,1*%
%TO.N,P21*%
X38423663Y-61142892D03*
D11*
%TO.P,S3,2*%
%TO.N,pinky_top*%
X28126399Y-66179643D03*
%TD*%
D10*
%TO.P,S4,1*%
%TO.N,P21*%
X34023739Y-44722153D03*
D11*
%TO.P,S4,2*%
%TO.N,pinky_number*%
X23726475Y-49758904D03*
%TD*%
D12*
%TO.P,S5,1*%
%TO.N,P20*%
X63719064Y-80950441D03*
D13*
%TO.P,S5,2*%
%TO.N,ring_bottom*%
X53172309Y-85441372D03*
%TD*%
D12*
%TO.P,S6,1*%
%TO.N,P20*%
X60184565Y-64321931D03*
D13*
%TO.P,S6,2*%
%TO.N,ring_home*%
X49637810Y-68812862D03*
%TD*%
D12*
%TO.P,S7,1*%
%TO.N,P20*%
X56650067Y-47693422D03*
D13*
%TO.P,S7,2*%
%TO.N,ring_top*%
X46103312Y-52184353D03*
%TD*%
D12*
%TO.P,S8,1*%
%TO.N,P20*%
X53115568Y-31064913D03*
D13*
%TO.P,S8,2*%
%TO.N,ring_number*%
X42568813Y-35555844D03*
%TD*%
D14*
%TO.P,S9,1*%
%TO.N,P19*%
X82535888Y-71375624D03*
D15*
%TO.P,S9,2*%
%TO.N,middle_bottom*%
X71768550Y-75308426D03*
%TD*%
D14*
%TO.P,S10,1*%
%TO.N,P19*%
X80074040Y-54553635D03*
D15*
%TO.P,S10,2*%
%TO.N,middle_home*%
X69306702Y-58486437D03*
%TD*%
D14*
%TO.P,S11,1*%
%TO.N,P19*%
X77612191Y-37731646D03*
D15*
%TO.P,S11,2*%
%TO.N,middle_top*%
X66844853Y-41664448D03*
%TD*%
D14*
%TO.P,S12,1*%
%TO.N,P19*%
X75150343Y-20909657D03*
D15*
%TO.P,S12,2*%
%TO.N,middle_number*%
X64383005Y-24842459D03*
%TD*%
D14*
%TO.P,S13,1*%
%TO.N,P19*%
X86389084Y-95064500D03*
D15*
%TO.P,S13,2*%
%TO.N,middle_additional*%
X75621746Y-98997302D03*
%TD*%
D16*
%TO.P,S14,1*%
%TO.N,P18*%
X103204513Y-74044718D03*
D17*
%TO.P,S14,2*%
%TO.N,index_bottom*%
X92246104Y-77408611D03*
%TD*%
D16*
%TO.P,S15,1*%
%TO.N,P18*%
X101427530Y-57137846D03*
D17*
%TO.P,S15,2*%
%TO.N,index_home*%
X90469121Y-60501739D03*
%TD*%
D16*
%TO.P,S16,1*%
%TO.N,P18*%
X99650546Y-40230974D03*
D17*
%TO.P,S16,2*%
%TO.N,index_top*%
X88692137Y-43594867D03*
%TD*%
D16*
%TO.P,S17,1*%
%TO.N,P18*%
X97873562Y-23324101D03*
D17*
%TO.P,S17,2*%
%TO.N,index_number*%
X86915153Y-26687994D03*
%TD*%
D16*
%TO.P,S18,1*%
%TO.N,P15*%
X123304008Y-73943192D03*
D17*
%TO.P,S18,2*%
%TO.N,inner_bottom*%
X112345599Y-77307085D03*
%TD*%
D16*
%TO.P,S19,1*%
%TO.N,P15*%
X121527025Y-57036320D03*
D17*
%TO.P,S19,2*%
%TO.N,inner_home*%
X110568616Y-60400213D03*
%TD*%
D16*
%TO.P,S20,1*%
%TO.N,P15*%
X119750041Y-40129448D03*
D17*
%TO.P,S20,2*%
%TO.N,inner_top*%
X108791632Y-43493341D03*
%TD*%
D16*
%TO.P,S21,1*%
%TO.N,P15*%
X117973057Y-23222576D03*
D17*
%TO.P,S21,2*%
%TO.N,inner_number*%
X107014648Y-26586469D03*
%TD*%
D16*
%TO.P,S22,1*%
%TO.N,P18*%
X111262214Y-93307985D03*
D17*
%TO.P,S22,2*%
%TO.N,space_top*%
X100303805Y-96671878D03*
%TD*%
D18*
%TO.P,S23,1*%
%TO.N,P1*%
X149372955Y-77673328D03*
D19*
%TO.P,S23,2*%
%TO.N,first_top*%
X138200748Y-75107341D03*
%TD*%
D18*
%TO.P,S24,1*%
%TO.N,P1*%
X140324676Y-95537501D03*
D19*
%TO.P,S24,2*%
%TO.N,first_bottom*%
X129152469Y-92971514D03*
%TD*%
D20*
%TO.P,S25,1*%
%TO.N,P3*%
X169290975Y-89110678D03*
D21*
%TO.P,S25,2*%
%TO.N,second_top*%
X158734078Y-84643641D03*
%TD*%
D20*
%TO.P,S26,1*%
%TO.N,P3*%
X158107117Y-105691430D03*
D21*
%TO.P,S26,2*%
%TO.N,second_bottom*%
X147550220Y-101224393D03*
%TD*%
D22*
%TO.P,D1,1*%
%TO.N,P2*%
X45041574Y-104870015D03*
%TO.P,D1,2*%
%TO.N,pinky_bottom*%
X48229130Y-104015913D03*
%TD*%
%TO.P,D2,1*%
%TO.N,P10*%
X40641651Y-88449276D03*
%TO.P,D2,2*%
%TO.N,pinky_home*%
X43829207Y-87595174D03*
%TD*%
%TO.P,D3,1*%
%TO.N,P16*%
X36241727Y-72028537D03*
%TO.P,D3,2*%
%TO.N,pinky_top*%
X39429283Y-71174435D03*
%TD*%
%TO.P,D4,1*%
%TO.N,P14*%
X31841803Y-55607798D03*
%TO.P,D4,2*%
%TO.N,pinky_number*%
X35029359Y-54753696D03*
%TD*%
D23*
%TO.P,D5,1*%
%TO.N,P2*%
X60970408Y-91706974D03*
%TO.P,D5,2*%
%TO.N,ring_bottom*%
X64198296Y-91020866D03*
%TD*%
%TO.P,D6,1*%
%TO.N,P10*%
X57435909Y-75078465D03*
%TO.P,D6,2*%
%TO.N,ring_home*%
X60663797Y-74392357D03*
%TD*%
%TO.P,D7,1*%
%TO.N,P16*%
X53901410Y-58449956D03*
%TO.P,D7,2*%
%TO.N,ring_top*%
X57129298Y-57763848D03*
%TD*%
%TO.P,D8,1*%
%TO.N,P14*%
X50366912Y-41821446D03*
%TO.P,D8,2*%
%TO.N,ring_number*%
X53594800Y-41135338D03*
%TD*%
D24*
%TO.P,D9,1*%
%TO.N,P2*%
X79228046Y-81973562D03*
%TO.P,D9,2*%
%TO.N,middle_bottom*%
X82487418Y-81457328D03*
%TD*%
%TO.P,D10,1*%
%TO.N,P10*%
X76766197Y-65151573D03*
%TO.P,D10,2*%
%TO.N,middle_home*%
X80025569Y-64635339D03*
%TD*%
%TO.P,D11,1*%
%TO.N,P16*%
X74304349Y-48329585D03*
%TO.P,D11,2*%
%TO.N,middle_top*%
X77563721Y-47813351D03*
%TD*%
%TO.P,D12,1*%
%TO.N,P14*%
X71842501Y-31507596D03*
%TO.P,D12,2*%
%TO.N,middle_number*%
X75101873Y-30991362D03*
%TD*%
%TO.P,D13,1*%
%TO.N,P0*%
X83081242Y-105662439D03*
%TO.P,D13,2*%
%TO.N,middle_additional*%
X86340614Y-105146205D03*
%TD*%
D25*
%TO.P,D14,1*%
%TO.N,P2*%
X99346551Y-84455014D03*
%TO.P,D14,2*%
%TO.N,index_bottom*%
X102628473Y-84110070D03*
%TD*%
%TO.P,D15,1*%
%TO.N,P10*%
X97569567Y-67548141D03*
%TO.P,D15,2*%
%TO.N,index_home*%
X100851489Y-67203197D03*
%TD*%
%TO.P,D16,1*%
%TO.N,P16*%
X95792584Y-50641269D03*
%TO.P,D16,2*%
%TO.N,index_top*%
X99074506Y-50296325D03*
%TD*%
%TO.P,D17,1*%
%TO.N,P14*%
X94015600Y-33734397D03*
%TO.P,D17,2*%
%TO.N,index_number*%
X97297522Y-33389453D03*
%TD*%
%TO.P,D18,1*%
%TO.N,P2*%
X119446046Y-84353488D03*
%TO.P,D18,2*%
%TO.N,inner_bottom*%
X122727968Y-84008544D03*
%TD*%
%TO.P,D19,1*%
%TO.N,P10*%
X117669062Y-67446616D03*
%TO.P,D19,2*%
%TO.N,inner_home*%
X120950984Y-67101672D03*
%TD*%
%TO.P,D20,1*%
%TO.N,P16*%
X115892078Y-50539744D03*
%TO.P,D20,2*%
%TO.N,inner_top*%
X119174000Y-50194800D03*
%TD*%
%TO.P,D21,1*%
%TO.N,P14*%
X114115095Y-33632871D03*
%TO.P,D21,2*%
%TO.N,inner_number*%
X117397017Y-33287927D03*
%TD*%
%TO.P,D22,1*%
%TO.N,P0*%
X107404252Y-103718281D03*
%TO.P,D22,2*%
%TO.N,space_top*%
X110686174Y-103373337D03*
%TD*%
D26*
%TO.P,D23,1*%
%TO.N,P2*%
X140826714Y-84759928D03*
%TO.P,D23,2*%
%TO.N,first_top*%
X143841414Y-86102158D03*
%TD*%
%TO.P,D24,1*%
%TO.N,P0*%
X131778436Y-102624101D03*
%TO.P,D24,2*%
%TO.N,first_bottom*%
X134793136Y-103966331D03*
%TD*%
D27*
%TO.P,D25,1*%
%TO.N,P2*%
X159643995Y-94605577D03*
%TO.P,D25,2*%
%TO.N,second_top*%
X162379819Y-96450913D03*
%TD*%
%TO.P,D26,1*%
%TO.N,P0*%
X148460137Y-111186329D03*
%TO.P,D26,2*%
%TO.N,second_bottom*%
X151195961Y-113031665D03*
%TD*%
D28*
%TO.P,MCU1,24*%
%TO.N,MCU1_24*%
X131295221Y-15035179D03*
%TO.P,MCU1,1*%
%TO.N,MCU1_1*%
X146451734Y-13442165D03*
D29*
%TO.P,MCU1,124*%
%TO.N,RAW*%
X135492103Y-14594069D03*
%TO.P,MCU1,101*%
%TO.N,P1*%
X142254852Y-13883275D03*
D30*
%TO.P,MCU1,24*%
%TO.N,MCU1_24*%
X133403607Y-14813578D03*
D31*
%TO.P,MCU1,124*%
%TO.N,RAW*%
X134124635Y-14737795D03*
D32*
%TO.P,MCU1,101*%
%TO.N,P1*%
X143622320Y-13739549D03*
D33*
%TO.P,MCU1,1*%
%TO.N,MCU1_1*%
X144343348Y-13663765D03*
D28*
%TO.P,MCU1,23*%
%TO.N,MCU1_23*%
X131560723Y-17561264D03*
%TO.P,MCU1,2*%
%TO.N,MCU1_2*%
X146717237Y-15968251D03*
D29*
%TO.P,MCU1,123*%
%TO.N,GND*%
X135757605Y-17120154D03*
%TO.P,MCU1,102*%
%TO.N,P0*%
X142520354Y-16409361D03*
D30*
%TO.P,MCU1,23*%
%TO.N,MCU1_23*%
X133669109Y-17339664D03*
D31*
%TO.P,MCU1,123*%
%TO.N,GND*%
X134390138Y-17263881D03*
D32*
%TO.P,MCU1,102*%
%TO.N,P0*%
X143887822Y-16265634D03*
D33*
%TO.P,MCU1,2*%
%TO.N,MCU1_2*%
X144608850Y-16189851D03*
D28*
%TO.P,MCU1,22*%
%TO.N,MCU1_22*%
X131826225Y-20087350D03*
%TO.P,MCU1,3*%
%TO.N,MCU1_3*%
X146982739Y-18494336D03*
D29*
%TO.P,MCU1,122*%
%TO.N,RST*%
X136023108Y-19646240D03*
%TO.P,MCU1,103*%
%TO.N,GND*%
X142785857Y-18935446D03*
D30*
%TO.P,MCU1,22*%
%TO.N,MCU1_22*%
X133934612Y-19865750D03*
D31*
%TO.P,MCU1,122*%
%TO.N,RST*%
X134655640Y-19789967D03*
D32*
%TO.P,MCU1,103*%
%TO.N,GND*%
X144153324Y-18791720D03*
D33*
%TO.P,MCU1,3*%
%TO.N,MCU1_3*%
X144874353Y-18715937D03*
D28*
%TO.P,MCU1,21*%
%TO.N,MCU1_21*%
X132091728Y-22613436D03*
%TO.P,MCU1,4*%
%TO.N,MCU1_4*%
X147248241Y-21020422D03*
D29*
%TO.P,MCU1,121*%
%TO.N,VCC*%
X136288610Y-22172326D03*
%TO.P,MCU1,104*%
%TO.N,GND*%
X143051359Y-21461532D03*
D30*
%TO.P,MCU1,21*%
%TO.N,MCU1_21*%
X134200114Y-22391835D03*
D31*
%TO.P,MCU1,121*%
%TO.N,VCC*%
X134921142Y-22316052D03*
D32*
%TO.P,MCU1,104*%
%TO.N,GND*%
X144418826Y-21317805D03*
D33*
%TO.P,MCU1,4*%
%TO.N,MCU1_4*%
X145139855Y-21242022D03*
D28*
%TO.P,MCU1,20*%
%TO.N,MCU1_20*%
X132357230Y-25139521D03*
%TO.P,MCU1,5*%
%TO.N,MCU1_5*%
X147513744Y-23546507D03*
D29*
%TO.P,MCU1,120*%
%TO.N,P21*%
X136554112Y-24698411D03*
%TO.P,MCU1,105*%
%TO.N,P2*%
X143316861Y-23987618D03*
D30*
%TO.P,MCU1,20*%
%TO.N,MCU1_20*%
X134465616Y-24917921D03*
D31*
%TO.P,MCU1,120*%
%TO.N,P21*%
X135186645Y-24842138D03*
D32*
%TO.P,MCU1,105*%
%TO.N,P2*%
X144684329Y-23843891D03*
D33*
%TO.P,MCU1,5*%
%TO.N,MCU1_5*%
X145405357Y-23768108D03*
D28*
%TO.P,MCU1,19*%
%TO.N,MCU1_19*%
X132622732Y-27665607D03*
%TO.P,MCU1,6*%
%TO.N,MCU1_6*%
X147779246Y-26072593D03*
D29*
%TO.P,MCU1,119*%
%TO.N,P20*%
X136819615Y-27224497D03*
%TO.P,MCU1,106*%
%TO.N,P3*%
X143582363Y-26513703D03*
D30*
%TO.P,MCU1,19*%
%TO.N,MCU1_19*%
X134731119Y-27444007D03*
D31*
%TO.P,MCU1,119*%
%TO.N,P20*%
X135452147Y-27368223D03*
D32*
%TO.P,MCU1,106*%
%TO.N,P3*%
X144949831Y-26369977D03*
D33*
%TO.P,MCU1,6*%
%TO.N,MCU1_6*%
X145670859Y-26294193D03*
D28*
%TO.P,MCU1,18*%
%TO.N,MCU1_18*%
X132888234Y-30191693D03*
%TO.P,MCU1,7*%
%TO.N,MCU1_7*%
X148044748Y-28598679D03*
D29*
%TO.P,MCU1,118*%
%TO.N,P19*%
X137085117Y-29750582D03*
%TO.P,MCU1,107*%
%TO.N,P4*%
X143847866Y-29039789D03*
D30*
%TO.P,MCU1,18*%
%TO.N,MCU1_18*%
X134996621Y-29970092D03*
D31*
%TO.P,MCU1,118*%
%TO.N,P19*%
X135717649Y-29894309D03*
D32*
%TO.P,MCU1,107*%
%TO.N,P4*%
X145215333Y-28896062D03*
D33*
%TO.P,MCU1,7*%
%TO.N,MCU1_7*%
X145936362Y-28820279D03*
D28*
%TO.P,MCU1,17*%
%TO.N,MCU1_17*%
X133153737Y-32717778D03*
%TO.P,MCU1,8*%
%TO.N,MCU1_8*%
X148310250Y-31124764D03*
D29*
%TO.P,MCU1,117*%
%TO.N,P18*%
X137350619Y-32276668D03*
%TO.P,MCU1,108*%
%TO.N,P5*%
X144113368Y-31565874D03*
D30*
%TO.P,MCU1,17*%
%TO.N,MCU1_17*%
X135262123Y-32496178D03*
D31*
%TO.P,MCU1,117*%
%TO.N,P18*%
X135983152Y-32420395D03*
D32*
%TO.P,MCU1,108*%
%TO.N,P5*%
X145480836Y-31422148D03*
D33*
%TO.P,MCU1,8*%
%TO.N,MCU1_8*%
X146201864Y-31346365D03*
D28*
%TO.P,MCU1,16*%
%TO.N,MCU1_16*%
X133419239Y-35243864D03*
%TO.P,MCU1,9*%
%TO.N,MCU1_9*%
X148575753Y-33650850D03*
D29*
%TO.P,MCU1,116*%
%TO.N,P15*%
X137616121Y-34802754D03*
%TO.P,MCU1,109*%
%TO.N,P6*%
X144378870Y-34091960D03*
D30*
%TO.P,MCU1,16*%
%TO.N,MCU1_16*%
X135527625Y-35022263D03*
D31*
%TO.P,MCU1,116*%
%TO.N,P15*%
X136248654Y-34946480D03*
D32*
%TO.P,MCU1,109*%
%TO.N,P6*%
X145746338Y-33948233D03*
D33*
%TO.P,MCU1,9*%
%TO.N,MCU1_9*%
X146467366Y-33872450D03*
D28*
%TO.P,MCU1,15*%
%TO.N,MCU1_15*%
X133684741Y-37769949D03*
%TO.P,MCU1,10*%
%TO.N,MCU1_10*%
X148841255Y-36176936D03*
D29*
%TO.P,MCU1,115*%
%TO.N,P14*%
X137881624Y-37328839D03*
%TO.P,MCU1,110*%
%TO.N,P7*%
X144644373Y-36618046D03*
D30*
%TO.P,MCU1,15*%
%TO.N,MCU1_15*%
X135793128Y-37548349D03*
D31*
%TO.P,MCU1,115*%
%TO.N,P14*%
X136514156Y-37472566D03*
D32*
%TO.P,MCU1,110*%
%TO.N,P7*%
X146011840Y-36474319D03*
D33*
%TO.P,MCU1,10*%
%TO.N,MCU1_10*%
X146732869Y-36398536D03*
D28*
%TO.P,MCU1,14*%
%TO.N,MCU1_14*%
X133950244Y-40296035D03*
%TO.P,MCU1,11*%
%TO.N,MCU1_11*%
X149106757Y-38703021D03*
D29*
%TO.P,MCU1,114*%
%TO.N,P16*%
X138147126Y-39854925D03*
%TO.P,MCU1,111*%
%TO.N,P8*%
X144909875Y-39144131D03*
D30*
%TO.P,MCU1,14*%
%TO.N,MCU1_14*%
X136058630Y-40074435D03*
D31*
%TO.P,MCU1,114*%
%TO.N,P16*%
X136779658Y-39998651D03*
D32*
%TO.P,MCU1,111*%
%TO.N,P8*%
X146277343Y-39000405D03*
D33*
%TO.P,MCU1,11*%
%TO.N,MCU1_11*%
X146998371Y-38924622D03*
D28*
%TO.P,MCU1,13*%
%TO.N,MCU1_13*%
X134215746Y-42822121D03*
%TO.P,MCU1,12*%
%TO.N,MCU1_12*%
X149372260Y-41229107D03*
D29*
%TO.P,MCU1,113*%
%TO.N,P10*%
X138412628Y-42381010D03*
%TO.P,MCU1,112*%
%TO.N,P9*%
X145175377Y-41670217D03*
D30*
%TO.P,MCU1,13*%
%TO.N,MCU1_13*%
X136324132Y-42600520D03*
D31*
%TO.P,MCU1,113*%
%TO.N,P10*%
X137045161Y-42524737D03*
D32*
%TO.P,MCU1,112*%
%TO.N,P9*%
X146542845Y-41526490D03*
D33*
%TO.P,MCU1,12*%
%TO.N,MCU1_12*%
X147263873Y-41450707D03*
%TD*%
D34*
%TO.P,RST1,1*%
%TO.N,RST*%
X126158608Y-11653576D03*
%TO.P,RST1,2*%
%TO.N,GND*%
X126336306Y-13344263D03*
%TO.P,RST1,3*%
%TO.N,RST*%
X120937368Y-12202351D03*
%TO.P,RST1,4*%
%TO.N,GND*%
X121115066Y-13893038D03*
%TD*%
D35*
%TO.P,RE1,A*%
%TO.N,P9*%
X146230557Y-66636179D03*
%TO.P,RE1,B*%
%TO.N,GND*%
X143744252Y-66897500D03*
%TO.P,RE1,C*%
%TO.N,P8*%
X141257948Y-67158821D03*
%TO.P,RE1,S1*%
%TO.N,P1*%
X139742285Y-52738254D03*
%TO.P,RE1,S2*%
%TO.N,P10*%
X144714894Y-52215612D03*
D36*
%TO.P,RE1,*%
%TO.N,*%
X137390966Y-60023945D03*
D37*
X148529612Y-58853227D03*
%TD*%
D38*
%TO.P,JST1,11*%
%TO.N,JST1_1*%
X155062049Y-53461372D03*
%TO.P,JST1,12*%
%TO.N,JST1_2*%
X153073005Y-53670428D03*
D39*
%TO.P,JST1,21*%
%TO.N,JST1_1*%
X154873898Y-51671232D03*
%TO.P,JST1,22*%
%TO.N,JST1_2*%
X152884854Y-51880289D03*
D40*
%TO.P,JST1,1*%
%TO.N,BAT_P*%
X154767697Y-50660798D03*
%TO.P,JST1,2*%
%TO.N,GND*%
X152778653Y-50869855D03*
%TD*%
D41*
%TO.P,PWR1,*%
%TO.N,*%
X109944019Y-13081284D03*
X110175026Y-15279177D03*
X117435036Y-14516119D03*
X117204028Y-12318226D03*
D42*
%TO.P,PWR1,1*%
%TO.N,N/C*%
X116110649Y-15308898D03*
%TO.P,PWR1,2*%
%TO.N,RAW*%
X113127083Y-15622484D03*
%TO.P,PWR1,3*%
%TO.N,BAT_P*%
X111635301Y-15779277D03*
%TD*%
D43*
%TO.P,DISP1,14*%
%TO.N,P6*%
X136983293Y-44853964D03*
%TO.P,DISP1,15*%
%TO.N,GND*%
X139509378Y-44588462D03*
%TO.P,DISP1,16*%
%TO.N,P5*%
X144561550Y-44057457D03*
%TO.P,DISP1,17*%
%TO.N,P4*%
X147087635Y-43791955D03*
%TO.P,DISP1,10*%
%TO.N,DISP1_1*%
X137077368Y-45749034D03*
%TO.P,DISP1,11*%
%TO.N,DISP1_2*%
X139603454Y-45483532D03*
%TO.P,DISP1,12*%
%TO.N,DISP1_4*%
X144655625Y-44952527D03*
%TO.P,DISP1,13*%
%TO.N,DISP1_5*%
X147181711Y-44687025D03*
D44*
%TO.P,DISP1,1*%
%TO.N,DISP1_1*%
X137260293Y-47489447D03*
%TO.P,DISP1,2*%
%TO.N,DISP1_2*%
X139786379Y-47223945D03*
%TO.P,DISP1,3*%
%TO.N,VCC*%
X142312464Y-46958443D03*
%TO.P,DISP1,4*%
%TO.N,DISP1_4*%
X144838550Y-46692940D03*
D28*
%TO.P,DISP1,5*%
%TO.N,DISP1_5*%
X147364636Y-46427438D03*
%TD*%
D45*
%TO.N,VCC*%
X151066667Y-28500000D03*
%TO.N,BAT_P*%
X155500000Y-48500000D03*
%TO.N,GND*%
X154500000Y-48500000D03*
%TO.N,BAT_P*%
X154000000Y-50000000D03*
%TO.N,GND*%
X123500000Y-13642371D03*
%TO.N,RST*%
X123500000Y-11933007D03*
%TO.N,RAW*%
X113500000Y-13500000D03*
%TO.N,BAT_P*%
X110000000Y-16500000D03*
%TO.N,P21*%
X44597152Y-96836298D03*
%TO.N,pinky_bottom*%
X44804208Y-97609039D03*
%TO.N,P21*%
X40197229Y-80415559D03*
%TO.N,pinky_home*%
X40404284Y-81188300D03*
%TO.N,P21*%
X35797305Y-63994820D03*
%TO.N,pinky_top*%
X36004360Y-64767561D03*
%TO.N,P21*%
X31397381Y-47574081D03*
%TO.N,pinky_number*%
X31604436Y-48346822D03*
%TO.N,P20*%
X60947047Y-83661008D03*
%TO.N,ring_bottom*%
X61113377Y-84443526D03*
%TO.N,P20*%
X57412549Y-67032498D03*
%TO.N,ring_home*%
X57578878Y-67815017D03*
%TO.N,P20*%
X53878050Y-50403989D03*
%TO.N,ring_top*%
X54044379Y-51186507D03*
%TO.N,P20*%
X50343551Y-33775480D03*
%TO.N,ring_number*%
X50509881Y-34557998D03*
%TO.N,P19*%
X79625810Y-73937399D03*
%TO.N,middle_bottom*%
X79750958Y-74727550D03*
%TO.N,P19*%
X77163962Y-57115410D03*
%TO.N,middle_home*%
X77289110Y-57905561D03*
%TO.N,P19*%
X74702114Y-40293422D03*
%TO.N,middle_top*%
X74827261Y-41083573D03*
%TO.N,P19*%
X72240265Y-23471433D03*
%TO.N,middle_number*%
X72365413Y-24261584D03*
%TO.N,P19*%
X83479006Y-97626276D03*
%TO.N,middle_additional*%
X83604154Y-98416427D03*
%TO.N,P18*%
X100164351Y-76450682D03*
%TO.N,index_bottom*%
X100247973Y-77246299D03*
%TO.N,P18*%
X98387367Y-59543809D03*
%TO.N,index_home*%
X98470990Y-60339427D03*
%TO.N,P18*%
X96610383Y-42636937D03*
%TO.N,index_top*%
X96694006Y-43432555D03*
%TO.N,P18*%
X94833399Y-25730065D03*
%TO.N,index_number*%
X94917022Y-26525683D03*
%TO.N,P15*%
X120263846Y-76349156D03*
%TO.N,inner_bottom*%
X120347468Y-77144774D03*
%TO.N,P15*%
X118486862Y-59442284D03*
%TO.N,inner_home*%
X118570484Y-60237901D03*
%TO.N,P15*%
X116709878Y-42535412D03*
%TO.N,inner_top*%
X116793501Y-43331029D03*
%TO.N,P15*%
X114932894Y-25628539D03*
%TO.N,inner_number*%
X115016517Y-26424157D03*
%TO.N,P18*%
X108222051Y-95713949D03*
%TO.N,space_top*%
X108305674Y-96509566D03*
%TO.N,P1*%
X145537115Y-78236873D03*
%TO.N,first_top*%
X145211726Y-78967709D03*
%TO.N,P1*%
X136488837Y-96101045D03*
%TO.N,first_bottom*%
X136163448Y-96831882D03*
%TO.N,P3*%
X165415551Y-88999574D03*
%TO.N,second_top*%
X164968197Y-89662805D03*
%TO.N,P3*%
X154231693Y-105580326D03*
%TO.N,second_bottom*%
X153784339Y-106243556D03*
%TD*%
D46*
%TO.N,VCC*%
X149500000Y-44000000D02*
X153000000Y-43000000D01*
X148500000Y-48000000D02*
X149500000Y-44000000D01*
X153000000Y-43000000D02*
X151066667Y-28500000D01*
X142500000Y-48500000D02*
X148500000Y-48000000D01*
X142312464Y-46958443D02*
X142500000Y-48500000D01*
%TO.N,P4*%
X146000000Y-30000000D02*
X145215333Y-28896062D01*
X150500000Y-29500000D02*
X146000000Y-30000000D01*
X149500000Y-43500000D02*
X152500000Y-42500000D01*
X152500000Y-42500000D02*
X150500000Y-29500000D01*
X147087635Y-43791955D02*
X149500000Y-43500000D01*
%TO.N,P5*%
X150500000Y-32500000D02*
X146000000Y-32500000D01*
X152000000Y-42000000D02*
X150500000Y-32500000D01*
X149500000Y-43000000D02*
X152000000Y-42000000D01*
X146003189Y-43066968D02*
X149500000Y-43000000D01*
X144561550Y-44057457D02*
X146003189Y-43066968D01*
X146000000Y-32500000D02*
X145480836Y-31422148D01*
%TO.N,P6*%
X148000000Y-35000000D02*
X146000000Y-35000000D01*
X149500000Y-42500000D02*
X151500000Y-41500000D01*
X146000000Y-35000000D02*
X145746338Y-33948233D01*
X151500000Y-41500000D02*
X150000000Y-34500000D01*
X139000000Y-43000000D02*
X149500000Y-42500000D01*
X150000000Y-34500000D02*
X148000000Y-35000000D01*
X136983293Y-44853964D02*
X139000000Y-43000000D01*
%TO.N,GND*%
X143744252Y-66897500D02*
X147500000Y-49018519D01*
X147500000Y-49018519D02*
X154500000Y-48500000D01*
X141000000Y-49500000D02*
X147500000Y-49018519D01*
X141000000Y-44500000D02*
X141000000Y-49500000D01*
%TO.N,P1*%
X138500000Y-57500000D02*
X140000000Y-73000000D01*
X146500000Y-51000000D02*
X146000000Y-53000000D01*
X146000000Y-53000000D02*
X138500000Y-57500000D01*
X144000000Y-51000000D02*
X146500000Y-51000000D01*
X149500000Y-74500000D02*
X149372955Y-77673328D01*
X140000000Y-73000000D02*
X149500000Y-74500000D01*
X139742285Y-52738254D02*
X144000000Y-51000000D01*
%TO.N,P3*%
X146000000Y-27500000D02*
X144949831Y-26369977D01*
X154000000Y-26500000D02*
X146000000Y-27500000D01*
X159500000Y-76000000D02*
X154000000Y-26500000D01*
X172000000Y-84000000D02*
X159500000Y-76000000D01*
X169290975Y-89110678D02*
X172000000Y-84000000D01*
%TO.N,P2*%
X174500000Y-85000000D02*
X160000000Y-75500000D01*
X176000000Y-88000000D02*
X174500000Y-85000000D01*
X154500000Y-24000000D02*
X145000000Y-25000000D01*
X167500000Y-101500000D02*
X176000000Y-88000000D01*
X160000000Y-75500000D02*
X154500000Y-24000000D01*
X159000000Y-96000000D02*
X167500000Y-101500000D01*
X159643995Y-94605577D02*
X159000000Y-96000000D01*
X145000000Y-25000000D02*
X144684329Y-23843891D01*
%TO.N,BAT_P*%
X154000000Y-50000000D02*
X155500000Y-48500000D01*
X154000000Y-50000000D02*
X154767697Y-50660798D01*
%TO.N,GND*%
X152500000Y-49500000D02*
X152778653Y-50869855D01*
X154500000Y-48500000D02*
X152500000Y-49500000D01*
%TO.N,P0*%
X144500000Y-17500000D02*
X143887822Y-16265634D01*
X159500000Y-64000000D02*
X154500000Y-16500000D01*
X175500000Y-85000000D02*
X160500000Y-75000000D01*
X177000000Y-88000000D02*
X175500000Y-85000000D01*
X154500000Y-16500000D02*
X144500000Y-17500000D01*
X147500000Y-113000000D02*
X156000000Y-119500000D01*
X156000000Y-119500000D02*
X177000000Y-88000000D01*
X160500000Y-75000000D02*
X159500000Y-64000000D01*
X148460137Y-111186329D02*
X147500000Y-113000000D01*
%TO.N,GND*%
X139509378Y-44588462D02*
X141000000Y-44500000D01*
%TO.N,P10*%
X132500000Y-41500000D02*
X134636309Y-59136309D01*
X137000000Y-41500000D02*
X132500000Y-41500000D01*
X121000000Y-68500000D02*
X134636309Y-59136309D01*
X137045161Y-42524737D02*
X137000000Y-41500000D01*
X134636309Y-59136309D02*
X144714894Y-52215612D01*
X117669062Y-67446616D02*
X121000000Y-68500000D01*
%TO.N,P16*%
X133000000Y-39000000D02*
X136500000Y-39000000D01*
X126000000Y-44500000D02*
X133000000Y-39000000D01*
X136500000Y-39000000D02*
X136779658Y-39998651D01*
X119500000Y-51500000D02*
X126000000Y-44500000D01*
X115892078Y-50539744D02*
X119500000Y-51500000D01*
%TO.N,P14*%
X132000000Y-36500000D02*
X136000000Y-36500000D01*
X132000000Y-35000000D02*
X132000000Y-36500000D01*
X114500000Y-35000000D02*
X132000000Y-35000000D01*
X114115095Y-33632871D02*
X114500000Y-35000000D01*
X136000000Y-36500000D02*
X136514156Y-37472566D01*
%TO.N,P15*%
X136000000Y-34000000D02*
X136248654Y-34946480D01*
X131000000Y-34000000D02*
X136000000Y-34000000D01*
X118000000Y-19000000D02*
X127500000Y-18500000D01*
X117973057Y-23222576D02*
X118000000Y-19000000D01*
X127500000Y-18500000D02*
X131000000Y-34000000D01*
%TO.N,P18*%
X135500000Y-31500000D02*
X135983152Y-32420395D01*
X131000000Y-31500000D02*
X135500000Y-31500000D01*
X128000000Y-18000000D02*
X131000000Y-31500000D01*
X109500000Y-19000000D02*
X128000000Y-18000000D01*
X107500000Y-18500000D02*
X109500000Y-19000000D01*
X107000000Y-15000000D02*
X107500000Y-18500000D01*
X97003522Y-16032702D02*
X107000000Y-15000000D01*
X97873562Y-23324101D02*
X97003522Y-16032702D01*
%TO.N,P19*%
X135000000Y-29000000D02*
X135717649Y-29894309D01*
X131000000Y-29000000D02*
X135000000Y-29000000D01*
X128500000Y-17500000D02*
X131000000Y-29000000D01*
X109500000Y-18500000D02*
X128500000Y-17500000D01*
X108000000Y-18000000D02*
X109500000Y-18500000D01*
X107500000Y-14500000D02*
X108000000Y-18000000D01*
X75000000Y-18000000D02*
X107500000Y-14500000D01*
X75150343Y-20909657D02*
X75000000Y-18000000D01*
%TO.N,P20*%
X135000000Y-26000000D02*
X135452147Y-27368223D01*
X109500000Y-18000000D02*
X129000000Y-17000000D01*
X129000000Y-17000000D02*
X131000000Y-26500000D01*
X108500000Y-17500000D02*
X109500000Y-18000000D01*
X108000000Y-14000000D02*
X108500000Y-17500000D01*
X56000000Y-24000000D02*
X56500000Y-19500000D01*
X131000000Y-26500000D02*
X135000000Y-26000000D01*
X53115568Y-31064913D02*
X56000000Y-24000000D01*
X56500000Y-19500000D02*
X108000000Y-14000000D01*
%TO.N,P21*%
X135000000Y-23500000D02*
X135186645Y-24842138D01*
X131000000Y-24000000D02*
X135000000Y-23500000D01*
X129500000Y-16500000D02*
X131000000Y-24000000D01*
X109500000Y-17500000D02*
X129500000Y-16500000D01*
X109000000Y-17000000D02*
X109500000Y-17500000D01*
X108500000Y-13500000D02*
X109000000Y-17000000D01*
X55500000Y-24000000D02*
X56000000Y-19000000D01*
X36000000Y-30000000D02*
X37004624Y-27509981D01*
X37004624Y-27509981D02*
X55500000Y-24000000D01*
X37000000Y-34000000D02*
X36000000Y-30000000D01*
X34023739Y-44722153D02*
X37000000Y-34000000D01*
X56000000Y-19000000D02*
X108500000Y-13500000D01*
%TO.N,RST*%
X137000000Y-19000000D02*
X136023108Y-19646240D01*
X136000000Y-11500000D02*
X137000000Y-19000000D01*
X126158608Y-11653576D02*
X136000000Y-11500000D01*
%TO.N,GND*%
X134000000Y-16000000D02*
X134390138Y-17263881D01*
X130000000Y-16500000D02*
X134000000Y-16000000D01*
X130000000Y-13000000D02*
X130000000Y-16500000D01*
X126336306Y-13344263D02*
X130000000Y-13000000D01*
%TO.N,RAW*%
X127000000Y-12465992D02*
X133500000Y-12000000D01*
X121500000Y-13000000D02*
X127000000Y-12465992D01*
X116500000Y-13500000D02*
X121500000Y-13000000D01*
X116000000Y-12500000D02*
X116500000Y-13500000D01*
X133500000Y-12000000D02*
X134124635Y-14737795D01*
X113500000Y-13000000D02*
X116000000Y-12500000D01*
X113500000Y-13500000D02*
X113500000Y-13000000D01*
%TO.N,GND*%
X123500000Y-13642371D02*
X121115066Y-13893038D01*
X126336306Y-13344263D02*
X123500000Y-13642371D01*
%TO.N,RST*%
X123500000Y-11933007D02*
X126158608Y-11653576D01*
X120937368Y-12202351D02*
X123500000Y-11933007D01*
%TO.N,RAW*%
X113127083Y-13872917D02*
X113500000Y-13500000D01*
X113127083Y-15622484D02*
X113127083Y-13872917D01*
%TO.N,BAT_P*%
X110914578Y-16500000D02*
X111635301Y-15779277D01*
X110000000Y-16500000D02*
X110914578Y-16500000D01*
%TO.N,P14*%
X113413762Y-34334204D02*
X114115095Y-33632871D01*
X94015600Y-33734397D02*
X94615407Y-34334204D01*
X94615407Y-34334204D02*
X113413762Y-34334204D01*
X93415793Y-34334204D02*
X94015600Y-33734397D01*
X74669109Y-34334204D02*
X93415793Y-34334204D01*
X71842501Y-31507596D02*
X74669109Y-34334204D01*
X60850097Y-42500000D02*
X71842501Y-31507596D01*
X51045466Y-42500000D02*
X60850097Y-42500000D01*
X50366912Y-41821446D02*
X51045466Y-42500000D01*
X36437638Y-55750720D02*
X50366912Y-41821446D01*
X31984725Y-55750720D02*
X36437638Y-55750720D01*
X31841803Y-55607798D02*
X31984725Y-55750720D01*
%TO.N,P16*%
X96651315Y-51500000D02*
X114931822Y-51500000D01*
X95792584Y-50641269D02*
X96651315Y-51500000D01*
X114931822Y-51500000D02*
X115892078Y-50539744D01*
X76616033Y-50641269D02*
X95792584Y-50641269D01*
X74304349Y-48329585D02*
X76616033Y-50641269D01*
X63633934Y-59000000D02*
X74304349Y-48329585D01*
X54451454Y-59000000D02*
X63633934Y-59000000D01*
X53901410Y-58449956D02*
X54451454Y-59000000D01*
X40179907Y-72171459D02*
X53901410Y-58449956D01*
X36384649Y-72171459D02*
X40179907Y-72171459D01*
X36241727Y-72028537D02*
X36384649Y-72171459D01*
%TO.N,P10*%
X116967730Y-68147948D02*
X117669062Y-67446616D01*
X98169374Y-68147948D02*
X116967730Y-68147948D01*
X97569567Y-67548141D02*
X98169374Y-68147948D01*
X96969760Y-68147948D02*
X97569567Y-67548141D01*
X79762572Y-68147948D02*
X96969760Y-68147948D01*
X76766197Y-65151573D02*
X79762572Y-68147948D01*
X66543964Y-75373806D02*
X76766197Y-65151573D01*
X57731250Y-75373806D02*
X66543964Y-75373806D01*
X57435909Y-75078465D02*
X57731250Y-75373806D01*
X57435909Y-75691869D02*
X57435909Y-75078465D01*
X44535580Y-88592198D02*
X57435909Y-75691869D01*
X40784573Y-88592198D02*
X44535580Y-88592198D01*
X40641651Y-88449276D02*
X40784573Y-88592198D01*
%TO.N,P0*%
X140340664Y-111186329D02*
X148460137Y-111186329D01*
X131778436Y-102624101D02*
X140340664Y-111186329D01*
X108685971Y-105000000D02*
X129402537Y-105000000D01*
X129402537Y-105000000D02*
X131778436Y-102624101D01*
X107404252Y-103718281D02*
X108685971Y-105000000D01*
X83529017Y-106110214D02*
X105012319Y-106110214D01*
X83081242Y-105662439D02*
X83529017Y-106110214D01*
X105012319Y-106110214D02*
X107404252Y-103718281D01*
%TO.N,P2*%
X150672363Y-94605577D02*
X159643995Y-94605577D01*
X140826714Y-84759928D02*
X150672363Y-94605577D01*
X140372266Y-85214376D02*
X140826714Y-84759928D01*
X120306934Y-85214376D02*
X140372266Y-85214376D01*
X119446046Y-84353488D02*
X120306934Y-85214376D01*
X118299534Y-85500000D02*
X119446046Y-84353488D01*
X100391537Y-85500000D02*
X118299534Y-85500000D01*
X99346551Y-84455014D02*
X100391537Y-85500000D01*
X95801565Y-88000000D02*
X99346551Y-84455014D01*
X85254484Y-88000000D02*
X95801565Y-88000000D01*
X79228046Y-81973562D02*
X85254484Y-88000000D01*
X60970408Y-91706974D02*
X62263434Y-93000000D01*
X62263434Y-93000000D02*
X68201608Y-93000000D01*
X68201608Y-93000000D02*
X79228046Y-81973562D01*
X60970408Y-92753359D02*
X60970408Y-91706974D01*
X48710830Y-105012937D02*
X60970408Y-92753359D01*
X45184496Y-105012937D02*
X48710830Y-105012937D01*
X45041574Y-104870015D02*
X45184496Y-105012937D01*
%TO.N,second_top*%
X165299679Y-89994287D02*
X164968197Y-89662805D01*
X165299679Y-93531053D02*
X165299679Y-89994287D01*
X162379819Y-96450913D02*
X165299679Y-93531053D01*
%TO.N,second_bottom*%
X154115821Y-106575038D02*
X153784339Y-106243556D01*
X154115821Y-110111805D02*
X154115821Y-106575038D01*
X151195961Y-113031665D02*
X154115821Y-110111805D01*
%TO.N,first_bottom*%
X136963732Y-97632166D02*
X136163448Y-96831882D01*
X134793136Y-103966331D02*
X136963732Y-101795735D01*
X136963732Y-101795735D02*
X136963732Y-97632166D01*
%TO.N,first_top*%
X146012011Y-79767994D02*
X145211726Y-78967709D01*
X146012011Y-83931561D02*
X146012011Y-79767994D01*
X143841414Y-86102158D02*
X146012011Y-83931561D01*
%TO.N,inner_bottom*%
X120511291Y-77144774D02*
X122727968Y-79361451D01*
X122727968Y-79361451D02*
X122727968Y-84008544D01*
X120347468Y-77144774D02*
X120511291Y-77144774D01*
%TO.N,inner_home*%
X120950984Y-62454578D02*
X120950984Y-67101672D01*
X118734307Y-60237901D02*
X120950984Y-62454578D01*
X118570484Y-60237901D02*
X118734307Y-60237901D01*
%TO.N,inner_top*%
X119174000Y-45547706D02*
X119174000Y-50194800D01*
X116957323Y-43331029D02*
X119174000Y-45547706D01*
X116793501Y-43331029D02*
X116957323Y-43331029D01*
%TO.N,inner_number*%
X115180339Y-26424157D02*
X117397017Y-28640835D01*
X115016517Y-26424157D02*
X115180339Y-26424157D01*
X117397017Y-28640835D02*
X117397017Y-33287927D01*
%TO.N,index_number*%
X95777480Y-26525683D02*
X94917022Y-26525683D01*
X97297522Y-28045725D02*
X95777480Y-26525683D01*
X97297522Y-33389453D02*
X97297522Y-28045725D01*
%TO.N,index_top*%
X96857828Y-43432555D02*
X96694006Y-43432555D01*
X99074506Y-45649233D02*
X96857828Y-43432555D01*
X99074506Y-50296325D02*
X99074506Y-45649233D01*
%TO.N,index_home*%
X98684315Y-60388930D02*
X98000000Y-60388930D01*
X100851489Y-62556104D02*
X98684315Y-60388930D01*
X100851489Y-67203197D02*
X100851489Y-62556104D01*
X98000000Y-60388930D02*
X98470990Y-60339427D01*
%TO.N,index_bottom*%
X100411795Y-77246299D02*
X100247973Y-77246299D01*
X102628473Y-84110070D02*
X102628473Y-79462977D01*
X102628473Y-79462977D02*
X100411795Y-77246299D01*
%TO.N,space_top*%
X108469496Y-96509566D02*
X108305674Y-96509566D01*
X110686174Y-103373337D02*
X110686174Y-98726244D01*
X110686174Y-98726244D02*
X108469496Y-96509566D01*
%TO.N,middle_additional*%
X84416427Y-98416427D02*
X83604154Y-98416427D01*
X86340614Y-100340614D02*
X84416427Y-98416427D01*
X86340614Y-105146205D02*
X86340614Y-100340614D01*
%TO.N,middle_bottom*%
X80095404Y-74727550D02*
X79750958Y-74727550D01*
X82487418Y-77119564D02*
X80095404Y-74727550D01*
X82487418Y-81457328D02*
X82487418Y-77119564D01*
%TO.N,middle_home*%
X77633556Y-57905561D02*
X77289110Y-57905561D01*
X80025569Y-60297574D02*
X77633556Y-57905561D01*
X80025569Y-64635339D02*
X80025569Y-60297574D01*
%TO.N,middle_top*%
X77563721Y-43475586D02*
X75171708Y-41083573D01*
X75171708Y-41083573D02*
X74827261Y-41083573D01*
X77563721Y-47813351D02*
X77563721Y-43475586D01*
%TO.N,middle_number*%
X72709860Y-24261584D02*
X72365413Y-24261584D01*
X75101873Y-26653597D02*
X72709860Y-24261584D01*
X75101873Y-30991362D02*
X75101873Y-26653597D01*
%TO.N,ring_number*%
X53594800Y-37110841D02*
X51041957Y-34557998D01*
X51041957Y-34557998D02*
X50509881Y-34557998D01*
X53594800Y-41135338D02*
X53594800Y-37110841D01*
%TO.N,ring_top*%
X54686507Y-51186507D02*
X54044379Y-51186507D01*
X57129298Y-53629298D02*
X54686507Y-51186507D01*
X57129298Y-57763848D02*
X57129298Y-53629298D01*
%TO.N,ring_home*%
X58110955Y-67815017D02*
X57578878Y-67815017D01*
X60663797Y-70367859D02*
X58110955Y-67815017D01*
X60663797Y-74392357D02*
X60663797Y-70367859D01*
%TO.N,ring_bottom*%
X64198296Y-86996369D02*
X61645453Y-84443526D01*
X61645453Y-84443526D02*
X61113377Y-84443526D01*
X64198296Y-91020866D02*
X64198296Y-86996369D01*
%TO.N,pinky_bottom*%
X45530406Y-97609039D02*
X44804208Y-97609039D01*
X48229130Y-100307763D02*
X45530406Y-97609039D01*
X48229130Y-104015913D02*
X48229130Y-100307763D01*
%TO.N,pinky_home*%
X41130482Y-81188300D02*
X40404284Y-81188300D01*
X43829207Y-83887025D02*
X41130482Y-81188300D01*
X43829207Y-87595174D02*
X43829207Y-83887025D01*
%TO.N,pinky_top*%
X36730559Y-64767561D02*
X36004360Y-64767561D01*
X39429283Y-67466285D02*
X36730559Y-64767561D01*
X39429283Y-71174435D02*
X39429283Y-67466285D01*
%TO.N,pinky_number*%
X35029359Y-51045546D02*
X35029359Y-54753696D01*
X32330635Y-48346822D02*
X35029359Y-51045546D01*
X31604436Y-48346822D02*
X32330635Y-48346822D01*
%TO.N,P21*%
X47223510Y-93984370D02*
X45756263Y-96525716D01*
X45756263Y-96525716D02*
X44597152Y-96836298D01*
%TO.N,pinky_bottom*%
X38907146Y-100409743D02*
X43028751Y-99305362D01*
X43862430Y-97861388D02*
X44804208Y-97609039D01*
X36636469Y-99098767D02*
X38907146Y-100409743D01*
X43028751Y-99305362D02*
X43862430Y-97861388D01*
%TO.N,P21*%
X42823586Y-77563631D02*
X41356340Y-80104977D01*
X41356340Y-80104977D02*
X40197229Y-80415559D01*
%TO.N,pinky_home*%
X34507222Y-83989004D02*
X38628827Y-82884623D01*
X39462506Y-81440649D02*
X40404284Y-81188300D01*
X32236545Y-82678028D02*
X34507222Y-83989004D01*
X38628827Y-82884623D02*
X39462506Y-81440649D01*
%TO.N,P21*%
X38423662Y-61142892D02*
X36956416Y-63684238D01*
X36956416Y-63684238D02*
X35797305Y-63994820D01*
%TO.N,pinky_top*%
X30107298Y-67568265D02*
X34228904Y-66463884D01*
X35062582Y-65019910D02*
X36004360Y-64767561D01*
X27836621Y-66257289D02*
X30107298Y-67568265D01*
X34228904Y-66463884D02*
X35062582Y-65019910D01*
%TO.N,P21*%
X34023739Y-44722153D02*
X32556492Y-47263499D01*
X32556492Y-47263499D02*
X31397381Y-47574081D01*
%TO.N,pinky_number*%
X25707374Y-51147526D02*
X29828980Y-50043145D01*
X30662659Y-48599171D02*
X31604436Y-48346822D01*
X23436697Y-49836550D02*
X25707374Y-51147526D01*
X29828980Y-50043145D02*
X30662659Y-48599171D01*
%TO.N,P20*%
X63719064Y-80950441D02*
X62120824Y-83411514D01*
X62120824Y-83411514D02*
X60947047Y-83661008D01*
%TO.N,ring_bottom*%
X55077819Y-86931763D02*
X59251575Y-86044604D01*
X60159683Y-84646240D02*
X61113377Y-84443526D01*
X52878865Y-85503745D02*
X55077819Y-86931763D01*
X59251575Y-86044604D02*
X60159683Y-84646240D01*
%TO.N,P20*%
X60184565Y-64321931D02*
X58586326Y-66783004D01*
X58586326Y-66783004D02*
X57412549Y-67032498D01*
%TO.N,ring_home*%
X51543320Y-70303254D02*
X55717076Y-69416094D01*
X56625184Y-68017730D02*
X57578878Y-67815017D01*
X49344366Y-68875236D02*
X51543320Y-70303254D01*
X55717076Y-69416094D02*
X56625184Y-68017730D01*
%TO.N,P20*%
X56650066Y-47693422D02*
X55051827Y-50154495D01*
X55051827Y-50154495D02*
X53878050Y-50403989D01*
%TO.N,ring_top*%
X48008821Y-53674744D02*
X52182577Y-52787585D01*
X53090685Y-51389221D02*
X54044379Y-51186507D01*
X45809867Y-52246727D02*
X48008821Y-53674744D01*
X52182577Y-52787585D02*
X53090685Y-51389221D01*
%TO.N,P20*%
X53115568Y-31064913D02*
X51517328Y-33525986D01*
X51517328Y-33525986D02*
X50343551Y-33775480D01*
%TO.N,ring_number*%
X44474323Y-37046235D02*
X48648078Y-36159076D01*
X49556186Y-34760712D02*
X50509881Y-34557998D01*
X42275369Y-35618218D02*
X44474323Y-37046235D01*
X48648078Y-36159076D02*
X49556186Y-34760712D01*
%TO.N,P19*%
X82535888Y-71375623D02*
X80811036Y-73749678D01*
X80811036Y-73749678D02*
X79625810Y-73937399D01*
%TO.N,middle_bottom*%
X73593447Y-76896500D02*
X77807913Y-76228994D01*
X78787962Y-74880074D02*
X79750958Y-74727550D01*
X71472243Y-75355355D02*
X73593447Y-76896500D01*
X77807913Y-76228994D02*
X78787962Y-74880074D01*
%TO.N,P19*%
X80074040Y-54553634D02*
X78349188Y-56927689D01*
X78349188Y-56927689D02*
X77163962Y-57115410D01*
%TO.N,middle_home*%
X71131599Y-60074511D02*
X75346065Y-59407006D01*
X76326113Y-58058085D02*
X77289110Y-57905561D01*
X69010395Y-58533367D02*
X71131599Y-60074511D01*
X75346065Y-59407006D02*
X76326113Y-58058085D01*
%TO.N,P19*%
X77612192Y-37731646D02*
X75887340Y-40105700D01*
X75887340Y-40105700D02*
X74702114Y-40293422D01*
%TO.N,middle_top*%
X68669751Y-43252523D02*
X72884217Y-42585017D01*
X73864265Y-41236096D02*
X74827261Y-41083573D01*
X66548547Y-41711378D02*
X68669751Y-43252523D01*
X72884217Y-42585017D02*
X73864265Y-41236096D01*
%TO.N,P19*%
X75150343Y-20909657D02*
X73425492Y-23283712D01*
X73425492Y-23283712D02*
X72240265Y-23471433D01*
%TO.N,middle_number*%
X66207902Y-26430534D02*
X70422369Y-25763028D01*
X71402417Y-24414107D02*
X72365413Y-24261584D01*
X64086699Y-24889389D02*
X66207902Y-26430534D01*
X70422369Y-25763028D02*
X71402417Y-24414107D01*
%TO.N,P19*%
X86389084Y-95064500D02*
X84664232Y-97438555D01*
X84664232Y-97438555D02*
X83479006Y-97626276D01*
%TO.N,middle_additional*%
X77446643Y-100585377D02*
X81661109Y-99917871D01*
X82641158Y-98568950D02*
X83604154Y-98416427D01*
X75325439Y-99044232D02*
X77446643Y-100585377D01*
X81661109Y-99917871D02*
X82641158Y-98568950D01*
%TO.N,P18*%
X103204513Y-74044718D02*
X101357777Y-76325247D01*
X101357777Y-76325247D02*
X100164351Y-76450682D01*
%TO.N,index_bottom*%
X93985387Y-79090018D02*
X98229012Y-78643995D01*
X99278315Y-77348214D02*
X100247973Y-77246299D01*
X91947748Y-77439970D02*
X93985387Y-79090018D01*
X98229012Y-78643995D02*
X99278315Y-77348214D01*
%TO.N,P18*%
X101427529Y-57137846D02*
X99580793Y-59418375D01*
X99580793Y-59418375D02*
X98387367Y-59543809D01*
%TO.N,index_home*%
X92208403Y-62183145D02*
X96452028Y-61737123D01*
X97501331Y-60441342D02*
X98000000Y-60388930D01*
X90170764Y-60533098D02*
X92208403Y-62183145D01*
X96452028Y-61737123D02*
X97501331Y-60441342D01*
%TO.N,P18*%
X99650546Y-40230974D02*
X97803809Y-42511503D01*
X97803809Y-42511503D02*
X96610383Y-42636937D01*
%TO.N,index_top*%
X90431420Y-45276273D02*
X94675045Y-44830250D01*
X95724347Y-43534470D02*
X96694006Y-43432555D01*
X88393780Y-43626225D02*
X90431420Y-45276273D01*
X94675045Y-44830250D02*
X95724347Y-43534470D01*
%TO.N,P18*%
X97873562Y-23324101D02*
X96026825Y-25604631D01*
X96026825Y-25604631D02*
X94833399Y-25730065D01*
%TO.N,index_number*%
X88654436Y-28369401D02*
X92898061Y-27923378D01*
X93947363Y-26627598D02*
X94917022Y-26525683D01*
X86616796Y-26719353D02*
X88654436Y-28369401D01*
X92898061Y-27923378D02*
X93947363Y-26627598D01*
%TO.N,P15*%
X123304008Y-73943192D02*
X121457272Y-76223722D01*
X121457272Y-76223722D02*
X120263846Y-76349156D01*
%TO.N,inner_bottom*%
X114084882Y-78988492D02*
X118328507Y-78542469D01*
X119377810Y-77246689D02*
X120347468Y-77144774D01*
X112047243Y-77338444D02*
X114084882Y-78988492D01*
X118328507Y-78542469D02*
X119377810Y-77246689D01*
%TO.N,P15*%
X121527024Y-57036320D02*
X119680288Y-59316850D01*
X119680288Y-59316850D02*
X118486862Y-59442284D01*
%TO.N,inner_home*%
X112307898Y-62081620D02*
X116551523Y-61635597D01*
X117600826Y-60339817D02*
X118570484Y-60237901D01*
X110270259Y-60431572D02*
X112307898Y-62081620D01*
X116551523Y-61635597D02*
X117600826Y-60339817D01*
%TO.N,P15*%
X119750041Y-40129448D02*
X117903304Y-42409977D01*
X117903304Y-42409977D02*
X116709878Y-42535412D01*
%TO.N,inner_top*%
X110530915Y-45174748D02*
X114774539Y-44728725D01*
X115823842Y-43432944D02*
X116793501Y-43331029D01*
X108493275Y-43524700D02*
X110530915Y-45174748D01*
X114774539Y-44728725D02*
X115823842Y-43432944D01*
%TO.N,P15*%
X117973057Y-23222576D02*
X116126320Y-25503105D01*
X116126320Y-25503105D02*
X114932894Y-25628539D01*
%TO.N,inner_number*%
X108753931Y-28267875D02*
X112997556Y-27821853D01*
X114046858Y-26526072D02*
X115016517Y-26424157D01*
X106716291Y-26617828D02*
X108753931Y-28267875D01*
X112997556Y-27821853D02*
X114046858Y-26526072D01*
%TO.N,P18*%
X111262214Y-93307985D02*
X109415478Y-95588514D01*
X109415478Y-95588514D02*
X108222051Y-95713949D01*
%TO.N,space_top*%
X102043088Y-98353285D02*
X106286713Y-97907262D01*
X107336015Y-96611481D02*
X108305674Y-96509566D01*
X100005449Y-96703237D02*
X102043088Y-98353285D01*
X106286713Y-97907262D02*
X107336015Y-96611481D01*
%TO.N,P1*%
X149372955Y-77673328D02*
X146633370Y-78724957D01*
X146633370Y-78724957D02*
X145537115Y-78236873D01*
%TO.N,first_top*%
X138866308Y-77433123D02*
X142764407Y-79168668D01*
X144321019Y-78571141D02*
X145211726Y-78967709D01*
X137926685Y-74985320D02*
X138866308Y-77433123D01*
X142764407Y-79168668D02*
X144321019Y-78571141D01*
%TO.N,P1*%
X140324677Y-95537501D02*
X137585091Y-96589129D01*
X137585091Y-96589129D02*
X136488837Y-96101045D01*
%TO.N,first_bottom*%
X129818030Y-95297296D02*
X133716128Y-97032841D01*
X135272741Y-96435313D02*
X136163448Y-96831882D01*
X128878406Y-92849493D02*
X129818030Y-95297296D01*
X133716128Y-97032841D02*
X135272741Y-96435313D01*
%TO.N,P3*%
X169290974Y-89110678D02*
X166410396Y-89670606D01*
X166410396Y-89670606D02*
X165415551Y-88999574D01*
%TO.N,second_top*%
X158985658Y-87049662D02*
X162523161Y-89435738D01*
X164159885Y-89117591D02*
X164968197Y-89662805D01*
X158485366Y-84475883D02*
X158985658Y-87049662D01*
X162523161Y-89435738D02*
X164159885Y-89117591D01*
%TO.N,P3*%
X158107116Y-105691430D02*
X155226538Y-106251357D01*
X155226538Y-106251357D02*
X154231693Y-105580326D01*
%TO.N,second_bottom*%
X147801800Y-103630414D02*
X151339303Y-106016490D01*
X152976027Y-105698343D02*
X153784339Y-106243556D01*
X147301508Y-101056634D02*
X147801800Y-103630414D01*
X151339303Y-106016490D02*
X152976027Y-105698343D01*
D47*
%TO.N,P1*%
X143622320Y-13739549D02*
X142254852Y-13883275D01*
%TO.N,RAW*%
X134124636Y-14737795D02*
X135492103Y-14594069D01*
%TO.N,MCU1_24*%
X131295221Y-15035179D02*
X133403607Y-14813579D01*
%TO.N,MCU1_1*%
X144343348Y-13663766D02*
X146451735Y-13442165D01*
%TO.N,P0*%
X143887822Y-16265634D02*
X142520354Y-16409361D01*
%TO.N,GND*%
X134390138Y-17263881D02*
X135757605Y-17120154D01*
%TO.N,MCU1_23*%
X131560723Y-17561265D02*
X133669109Y-17339664D01*
%TO.N,MCU1_2*%
X144608850Y-16189851D02*
X146717237Y-15968251D01*
%TO.N,GND*%
X144153324Y-18791720D02*
X142785857Y-18935447D01*
%TO.N,RST*%
X134655640Y-19789967D02*
X136023108Y-19646240D01*
%TO.N,MCU1_22*%
X131826225Y-20087350D02*
X133934612Y-19865750D01*
%TO.N,MCU1_3*%
X144874353Y-18715937D02*
X146982739Y-18494336D01*
%TO.N,GND*%
X144418827Y-21317806D02*
X143051359Y-21461532D01*
%TO.N,VCC*%
X134921142Y-22316052D02*
X136288610Y-22172326D01*
%TO.N,MCU1_21*%
X132091728Y-22613436D02*
X134200114Y-22391835D01*
%TO.N,MCU1_4*%
X145139855Y-21242022D02*
X147248241Y-21020422D01*
%TO.N,P2*%
X144684329Y-23843891D02*
X143316861Y-23987618D01*
%TO.N,P21*%
X135186645Y-24842138D02*
X136554112Y-24698411D01*
%TO.N,MCU1_20*%
X132357230Y-25139521D02*
X134465616Y-24917921D01*
%TO.N,MCU1_5*%
X145405357Y-23768108D02*
X147513744Y-23546508D01*
%TO.N,P3*%
X144949831Y-26369977D02*
X143582364Y-26513703D01*
%TO.N,P20*%
X135452147Y-27368224D02*
X136819615Y-27224497D01*
%TO.N,MCU1_19*%
X132622732Y-27665607D02*
X134731119Y-27444007D01*
%TO.N,MCU1_6*%
X145670859Y-26294194D02*
X147779246Y-26072593D01*
%TO.N,P4*%
X145215333Y-28896062D02*
X143847866Y-29039789D01*
%TO.N,P19*%
X135717649Y-29894309D02*
X137085117Y-29750583D01*
%TO.N,MCU1_18*%
X132888235Y-30191693D02*
X134996621Y-29970092D01*
%TO.N,MCU1_7*%
X145936362Y-28820279D02*
X148044748Y-28598679D01*
%TO.N,P5*%
X145480836Y-31422148D02*
X144113368Y-31565875D01*
%TO.N,P18*%
X135983152Y-32420395D02*
X137350619Y-32276668D01*
%TO.N,MCU1_17*%
X133153737Y-32717778D02*
X135262123Y-32496178D01*
%TO.N,MCU1_8*%
X146201864Y-31346365D02*
X148310251Y-31124764D01*
%TO.N,P6*%
X145746338Y-33948234D02*
X144378870Y-34091960D01*
%TO.N,P15*%
X136248654Y-34946480D02*
X137616122Y-34802754D01*
%TO.N,MCU1_16*%
X133419239Y-35243864D02*
X135527626Y-35022264D01*
%TO.N,MCU1_9*%
X146467366Y-33872450D02*
X148575753Y-33650850D01*
%TO.N,P7*%
X146011840Y-36474319D02*
X144644373Y-36618046D01*
%TO.N,P14*%
X136514156Y-37472566D02*
X137881624Y-37328839D01*
%TO.N,MCU1_15*%
X133684741Y-37769949D02*
X135793128Y-37548349D01*
%TO.N,MCU1_10*%
X146732869Y-36398536D02*
X148841255Y-36176936D01*
%TO.N,P8*%
X146277343Y-39000405D02*
X144909875Y-39144131D01*
%TO.N,P16*%
X136779658Y-39998652D02*
X138147126Y-39854925D01*
%TO.N,MCU1_14*%
X133950244Y-40296035D02*
X136058630Y-40074435D01*
%TO.N,MCU1_11*%
X146998371Y-38924622D02*
X149106757Y-38703021D01*
%TO.N,P9*%
X146542845Y-41526490D02*
X145175377Y-41670217D01*
%TO.N,P10*%
X137045161Y-42524737D02*
X138412628Y-42381011D01*
%TO.N,MCU1_13*%
X134215746Y-42822121D02*
X136324133Y-42600520D01*
%TO.N,MCU1_12*%
X147263873Y-41450707D02*
X149372260Y-41229107D01*
%TO.N,JST1_1*%
X154873898Y-51671232D02*
X155062049Y-53461372D01*
%TO.N,JST1_2*%
X152884854Y-51880289D02*
X153073005Y-53670429D01*
%TO.N,DISP1_1*%
X137260293Y-47489447D02*
X137077368Y-45749034D01*
%TO.N,DISP1_2*%
X139786378Y-47223945D02*
X139603454Y-45483531D01*
%TO.N,DISP1_4*%
X144838550Y-46692940D02*
X144655625Y-44952527D01*
%TO.N,DISP1_5*%
X147364635Y-46427438D02*
X147181711Y-44687024D01*
%TD*%
M02*
